<mxfile host="app.diagrams.net" modified="2023-07-26T09:32:40.417Z" agent="Mozilla/5.0 (Windows NT 10.0; Win64; x64) AppleWebKit/537.36 (KHTML, like Gecko) Chrome/115.0.0.0 Safari/537.36" etag="JPOMCYCvB4lycNNo_1PO" version="21.6.5" type="github">
  <diagram name="Page-1" id="VU4qPD5I40OzS3jpmV5l">
    <mxGraphModel dx="1900" dy="1674" grid="1" gridSize="10" guides="1" tooltips="1" connect="1" arrows="1" fold="1" page="1" pageScale="1" pageWidth="850" pageHeight="1100" math="0" shadow="0">
      <root>
        <mxCell id="0" />
        <mxCell id="1" parent="0" />
        <mxCell id="BEvjocmE0Ja58P0zcmrp-7" value="1. user friendly navigation" style="text;html=1;strokeColor=none;fillColor=none;align=center;verticalAlign=middle;whiteSpace=wrap;rounded=0;labelBackgroundColor=#994C00;fontSize=24;" vertex="1" parent="1">
          <mxGeometry x="-130" y="-300" width="450" height="30" as="geometry" />
        </mxCell>
        <mxCell id="BEvjocmE0Ja58P0zcmrp-8" value="" style="shape=image;verticalLabelPosition=bottom;labelBackgroundColor=default;verticalAlign=top;aspect=fixed;imageAspect=0;image=data:image/png,iVBORw0KGgoAAAANSUhEUgAAA2UAAAFnCAYAAAAmIeFxAAAAAXNSR0IArs4c6QAAAARnQU1BAACxjwv8YQUAAAAJcEhZcwAADsMAAA7DAcdvqGQAAP+lSURBVHhe7N0FfFPX2wfwX5pU0tQ1dTcq0Jbi7gzGNsaQMff95+7uxoQJGxsy3N3dpaUtVeru7m1Sec9zm26MF9sGlG3Pd8uH5ia5Se4995znOefcG1mHUFNTA3NzczDGGGOMMcYYu7b0dP8yxhhjjDHGGOsGnJQxxhhjjDHGWDfipIwxxhhjjDHGuhEnZYwxxhhjjDHWjTgpY4wxxhhjjLFuxEkZY4wxxhhjjHUjTsoYY4wxxhhjrBtxUsYYY4wxxhhj3YiTMsYYY4wxxhjrRpyUMcYYY4wxxlg34qSMMcYYY4wxxrqRrEOoqamBubm5btHfV1VVpfuLMcYYY4wxxv4bLC0tdX/9OTxSxhhjjDHGGGPdiJMyxhhjjDHGGOtGnJQxxhhjjDHGWDfipIwxxhhjjDHGutFVudCHRqPR/cUYY4wxxhhj/w0GBga6v/6cq5KUMcYYY4wxxhi7PDx9kTHGGGOMMca6ESdljDHGGGOMMdaNOCljjDHGGGOMsW7ESRljjDHGGGOMdSNOyhhjjDHGGGOsG3FSxhhjjDHGGGPdiJMyxhhjjDHGGOtGnJQxxhhjjDHGWDfipIwxxhhjjDHGuhEnZYwxxhhjjDHWjTgpY4wxxhhjjLFuxEkZY4wxxhhjjHUjTsoYY4wxxhhjrBtxUsYYY4wxxhhj3YiTMsYYY4wxxhjrRrIOoaamBubm5rpFjF2aKDZob+8Q/7ZL/zLGrj2ZTCbd9PT0xE2mW8oYY4yxfxpOytif1trahra2dikxE+mZ+LdzOWPs2qOkjFBiplDIOTljjP1lnR2u7ZDL5bolf09zczMqKipQXl4u/W1rawt7e3sYGxv/VncxxjpxUsYuG1XWGk2rVGEzxq4/FOMoFAopOWOMsT+L2nmtVgsDAwPdkj+P1lFQUIDDhw9LiZiLiwssLCxgZGSEyspKlJWVSf/26tVLulGdxRjjpIxdJpqiqNFoeFSMsX8ASsr09f8dgU5He5s0Ok9Vj0ymJ/Xg02hge1s7ZHp6UiJ6NbSL96UZAUSh0D/P+3SIx39/Dn0WCi7/ysfp6KD1yMTr+TRv1r06O181MDQ01C35c+i1u3fvRl1dHUaOHAkbGxvdI3/U0tKCyMhIZGdnY/DgwXB1deWRM/afx0kZuyRKyFpaNLp7jLF/gmuRmFEAR73qfwUlMDTl8qJEsnJgxff4Ydl2lDdqYeXkg9vvvAvjhgVh1dw1GDp5AlztrHVPvoLaNdizdglWbd2J4ioDvDLrK/T1sNQ92KmqIAVLFy7AjiPRaGwCXHqE4/nXX0OgWqV7xuWrSFqJz7YZ4ePnJumWsL+LymZ9fb30LwX7lMzTSM0ly9x/HG2vv5qU0ejXxo0b0adPH/To0UO39OJo1OzkyZPSaBq9hkfNug/V5XTMUMJMHU50zNA0UxMTk6t63ND7NTWJSlRQKpV/KHv0mbo+D5WNazHtld6vurpaej8a4b1SU3kvBydl7KI6K2itlJgxxv5ZKCm7mlMZqeFKSkqSGtI/gxo9T09P6fySizaw2lKMibgBH2/dhzAHY6SeOoyYjDIERwTg61e+xrj778HE0f1QmZuB/LJayA0MoXZyhYVBC/JKKtFQ3wwrRw/YGDQhJTMPHXoGsLK1h7ODLWpKC1BYUg5NWztsHL3hpj6rDWwqwcffLIRnYDg0pzajYuAjeGqUn+7BTnuWfYUT5SrcOfMOuFgZ4diyDxFtOgGPjg9EWXG+WHel2AFKuLi6wVolQ0JcGvT0Rb5noIKxiG9cvb0h19Qhu7AalsatKKpTooe3PSoKspFTVAGFUgVHJxdYKGXIyc5BTUOLeL0R/Pz9oOjQoCAnC5W1TTBQmcPN1Rmmxn9tZOOfioI1CppaW1ulgI0SrrNVVVVh7969UjBJN1NTU4SEhFxw5IZ1+qtJWWlpKfbt24cRI0ZIx/Wl0GkQXYE+7atjx47By8sLPj4+nDh3g5ycHKkuz8rKQklJiTTtlI4p2iceHh5Sfe3k5KR79pVB7QCNlKanpyMvL08qE25ubvD19ZX+pXMRExMTpcSdkjb6PPQ5goKCpETxaqCkdNu2bUhISJDaNSrPVG+cW79cLfK3Bdow1+oNu9DGpxM/i4qKpEqA3v/cxpmeQ0PgDQ0N0g45+0b09UULdxaqnOn5jY2N0nOoYqEM90JZLj2HKvZz10PoPamiP99jXSiZpXnTubm50o6k516oIqPvSIWcPt/Z73u5GT+9tra2Vvr7Yp/pSuu6qMfFUPkpLy8T26BB+j5/Zy46Y+zKoXqHApzLrWf+rDNnzmD//v1SnUYN5+XeUlJSpB5PZ2fni382WTtyE5NQK+r2grwCGFg6IqJPH2jL07Bu3XY0Gdugj68KP3w3Hxl5RUhNSkB+ZT0MGjPx88rNyM0qhJGtI6I3/4rjiZkiAEhHZn4xTEyV2L9jE05Gx4mEJw3ZNSr0CXLVvanYbuIz5UYfxPY9B1Gr8sBdt4yGhfEf692m2grk5xehpLAEReI72fkPw9h+vqgszML65UtwOk0EG2cSUNCggJeNBo/MeBl6FoYiCStB/KG9sAvuD23OcSzdGQuTxkjM3liOif3s8dPX3yE5Ow/JIkCqawXqitKwe88BpGXmIj0hEsVtNrCWV+LnHxeIxLMU6VlFsHdyhK2l2V+aOvlPRO3n6dOnpfZUpVJJ7S+VI4oZqL2nvzMzM6VEoV+/flKnM8UFtJyTskvrGpW4XLT9Dx06hLCwsMsK3Gn9tG8oVqD3oeCX9ktUVBSsra2lfcqunSNHjmDLli1S3UxTSW+44QaMGzcOwcHB0jFz8OBBqa6nOtvOzk5a9nfRMXz06FHs2LFDiv+p7NC6KTk7fvy4FFvHxcVJn8nb2xuOjo5SXE7tDZUdSt6vdKxJOcm6deukuuPBBx+EpaUlDhw4IJVXujjNtYi9uyUpo52xcOFC6bZhwwZpXjEdlHQwn10RUJb8008/Yc2aNdizZ88fbpT80E45G2X49HxaJz2HClJ8fLwUmNDOPneDzp8/X+rZ6du37x8SN6pgPv/8c6m3gDLkc3XNmZ47d6702ej96L2ol4EKK+28cwsLJVW7du3CnDlzpM9GO5q+NyVa1BNxsZ4hKhDLly/HkiVLpPX4+fldk54kGh2j9xab77zonIuMjExRgDOkfUVJan5+vhSgUWHm3i7Guh+1n3L51TkW6XgvLi6GWq2W2pDLvVEdQb3pNGXpog28zBA9wwJQlJOFwuIS5KadEYlIHfzDApEWmYv7Hp2JpuiVWJPhjc/f+x8CXIyRGHMKtQ2tqGqywN333IUIp2ZMe+Q9DBo1Gpb6bYhLTECzTB/NVWVoaTNCgL8/TK3VCPBQ6960DWkxUcgoqIC8vR7NCjVCbJsQU6QHL6ffpzDaOLjA3EgPBbn5KK8sQdLJIyhoN4NeVQp+XL4XoWHhUDaXYN3JdAwLdcPCVdH48sfP0dfHEZVlOSIRVKA6KxlKtRt8bBtxKMUAQ52z8dO+Znzy0Svo4e4A/Y5GbF27GeUaBTw9XaGoy8TcHRm4cYgXjhyOgoufL5wdnODuJj6Lqeo/lZRRm0v/0pQ3auMpoKcRF2rrqT2nGIGSf/qXOmypzFHMQOWPXdyfTcqio6OlxPdyYxOKoSggp+d2JckUA9J+pBEKGilh1wYl01u3bpWSsRkzZkhxOB0jdAxRckx1dP/+/aW4mEaeaT87ODjoXv3XpaamSsfw6NGjpRutkzrpAgMDpWOW3ouO7SlTpkhJGX0uuk+PU/xMHTAUO18pNLiydOlS6e/HH39cimGpXaMRdorVKfamz3i1E7NuiZopifnwww+ljTpgwADpAKXM99zGmRKWtWvXSjuODlZKdLpu5xv9olG3lStXIjY2FmZmZtL66cB/8803pSTqXDT3mRJDev+zUeH75Zdfzvsaeu6iRYvw8ssvY9OmTbCyspIKLPXubN68Gc8//7z0LzUAZ6PEl7L/7du3S/dp6JWG61966SUpM78YqiBnz56NefPmSclZYWGh7pGri7YfbfcLycjIkBIy2ta+vn5SRUoNYlFRoTjgUnTPugSx/uryIpxJSkBi8hnUNLXqHrgymuqrUVZejpZWnn7J/pvoOL5a04+pHqZgiuqAP3Oj15yvDj9XQ34UftiQhMkz7sLDD9yHMf19UZydjPTcCt0z6BivgKmlPRSi+VBS0ifah5YmDcxMrEVgaSAq31rUGarh5eYIRxd3BIeEwtFejZ5BPaVl1WVF2LxyOcq7qp7WJkTFJECjcsHjz72IYFUpXnzpfRQ26x4n7c04uO8wGvSsMfOB+3HPzBkY09cZvy7fgjatBgoLB7g6O8DNJxARIQEwNhKfw94G5iLONTS1hJObD0qjtyKlVg+OIrkzMezcFtr6KsgsraCUy0RQYCteYo7GFn0RDDjCQQQIngG90TfUGyYqM0QMjIBK3o74yMOITclF83+ojqMYYOjQodK5S6SrnaJ/u/6m4HHIkCFSHEFtur9IvqmnnxK0y6VtqMbxQ7uwdfd+5JZU65Z2H21LE3LSklFcr0FLYxOaRVzR3XudRi9o+9J0s/MlchQLUfxzNpr2TNPW6EbBbheKIWh91MF7KbQtDm1djrfeeA2vvP4GFqzejrLqRtRk78WPK0/onvXnVGVHYuP2KNSI7ftfQHE3xePTp0+XpuldqE6m/UqJ08CBA6WpfZezfy6FkjI6Rmkq4tmJPL1XaGgonnrqKekz0TF7Nhr0GD9+vBTbXyk0dXPVqlVSPH/XXXf91nFDn4UGZsaMGSPlFZQMnpsvXGndkpRR4kTef/99KSN99913paHSC2WgPXv2lJKXN95447cbZfUXQgWHnk/J2CuvvCIFADRKRVMd/i5KrH788Ucpi/7111+lz/7iiy/ivffew2effSYVsk8++QRpaWnnTWioJ2DmzJnSa7755hspmfv+++91j54fFQbK4qmBodE4GtK92uijUyB3nq8goakglAS7uLjCz89f6vWm70KVKs0/ph50qqgvJS81BgcOH0VmXiEK8zKwdvkS5NdcuUJfVZqPtPR01Le06ZYw9t9CxzD9yPvVQA0U1QNUL/2ZG01NoWDsYp0+xNDMGpkbv8F7X83F9l27sfdINBo6FLC1sYK+XhUSU7Ph0n8SyqOXYNOeQ9i2cx9yqjTw8rQTr9Z18ll647ZAIKNcAwO9dtSVl8PKzBSnE+PRaqCCo60KyYlpvz0dcn3YmOkhPzMB0YkZKCnKRXVLswgi0vDbVpQpoNdSgsW//oz5i1dJMy42bNojEr4w2Dq4IsCmFfVtclQV58NUaSaSCNHI69Yv09OHm0jYWkrEums74Obu+ttbW/iOgGnGAazZeQDr163C1sNJCAxWo6apGSYW5siJOwp7J2801lQhITETVvZOaGmoQrVIPC6+Jf9dKIijHnxqhwn16Pfu3VsK8M6OI6h3PSIiQrrsOnUYUoJAo2uXozjpCN565wuk5FajoTwPi+Z8he0n03WPdo928dkrSgpR29KAXVt3ICoq6fcy2U2ok5iC2Qud40NTwrpOvSCUFNMoCMVw1EFDo2xdiRklBbQPadmlVGSfwvJN0Rg6ZgJuHDsChfHHceJ0CvTMfTEozF33rD/H2MoNwQGuUBpe/ijhPxkNTFBcSdv8UuiYo1llNGpFycnfRXU/JT/nziojNFJGxzeVj3PR4A2VNYpBrxTquBw+fDhuu+22/1eO6XvTCDCN2FEdcqk26+/qlumLNFpEQ9RUGCiIp+FBSpzOHSmjqQg0PZDmkk6ePFk68Knypdv5EjhKXGiUiubBUiZN66UNTAkS9QhQ1n32BqehSrpa0EMPPfSHgkHJBE1NpBMKb775Zt3STpRA0ZzWWbNmST11VGho29F7UTJCFQ59PxrmpGy/q+eIKh2at0vJysSJE6V1UxJDy06dOoVnnnlGet75UPJG3+Gtt96SGn96HY0wXk5P819FBe/3H4j+/2h71tbWwM3N/Q/zv2kf6unJUVNTLe0jSlIvrBmnj8dCae8uGtRQeIh1mcqb0W5oBSsTfdH45CM+LgF1GhnMTE2gkOuhtaEckVGnkF9UBoWRKfTbG1FcVIj0tAzUaPRgZWqAM6ejkJ5bBH2VJbR1xSgurxQJeYPY9gUwsbKBUv/qbTfGrkfUsJzdG3mlUI8pHf9U31K9e7k3qhfpqlY0PeRi0xf1DM3Rb+hAtFaVIDUjC9ZuPUX9OR4eDrZwsFYgJqUUoUNGYEAPZyTFxqLDzA0TJ90IdzsTyAwtRJ3iAKWxChED+qMqOwkZxc3oP2IMwgP94GJvgdz0FBTWGeLRJx4RrzHvTI5EwuXk6gFzozbEJ6fBu/9EPPm/+6BqbxJ1vGtnT6ZMD2pXT3g5WaEgJx3ZhVUIGz0d08f3g629Azxc1MhITkSr+DxjRwyEg5UK9c0yDOgtskPBWGUMPRMbuHn5IMTHBbK2Fmj17RDWMxAhgW5IS4gFzJykQCGidxis9VsQffI0zAOHY9rYvrAWbaGZQTvOJGfCt/cQjBgUAQuV4W/J3X8NlSFqwylQox50Ot+M2npqn2k5BXlU/ulvapcuVuYkrTX49M3P0GvynZg4oj/8fX1gLNPg5OFTCOrXB02lmdi+ZSMScmrh5ekCtGkRe3wPSqpqsf/QMegpVSjJiMH2g6dh7+IBY4M2KRFprC7E3qNxMDZRITXmCI4kFsBFJOhGLaVYcygJPTydUVlaIJX11pY6ZJZUIiP2KHYejIa9mzeM5e0oKy5EtUaDHSuWIDK9DDJNCdpNnWBraoTmxgacPHQUlq7uMPgbh/ufmb5IsQnFZhe6aA/NqKE4guIWirfoNAzqaKd6gJJq6qChaaY0jZHiQFrXiRMnpMcvpqowCWv3p+Kue+5AD18vhPQMgYerA5pytkvnZ47u54HD63/GK+98joMHdmBPpKg/DLX4YfEKHNm4Cr/8MgeHs9oweEAI9HUfuzz1IDYcLIa3Yytef/EzJB/bih9+XoLUMiA0LOBvbdPrDcWqNPuKYlza5peDjh0ayYyJiZEStL/TplAOQLE2dZhc8ng8C5UlmjJPgxM0enclUPxOMTvVE+dDn4/aKyrjl1V//A3dcvVF+kFB6iWhjUBDlPfff/95T76lk+1ojivtOGqcaIPR7dVXX/1/2Syh9T788MO45ZZb8M4770gFhnpl77vvPmmKIZ0ndnZFQ8kRZfy07nOTMlo+bdo0LFiwQLe0s0foiSeekCoRmkbo7v7/e2OosD722GNSb8K33377W6ZPw/WffvqplIRRQkcVDk2PpO9O26Jr9PB8aF10ANCUTxoBpN5pGpW7kvNpz0U9B1ot/VD0+ZMy2gY0dTEgoMf/23fUK5aUlCgl066ubrql55cRexB7I1Ng5+yBoMAQuLvYiqCnHUXZydi3/wTUXn4oz0mFQ9BA9POzwg9f/YzgYSOAujIUV9QjPLwnoo4dgcrOBT2CwpB9eAkK9APgY6eHrNwS+Ph7IT7yGKzcgmDSUox0jRqPTR+je3fG/huu1uXxk5OTpXNvhw0bpltyeSjoogDs3KkrF9JBUzBFY0y/U0a/USYtE/epfpLOl5P+bqfWs3N94j7VXGc3np3TsSlBlXUup9fonkevObeZpdFFWj/9/pieeD693/9rjKV1dK339wuq0HPpRrq+H73/2d+16/HfP0vnZxN3Or+L+ERdz+/8rp2/y0af5ULL/msoQKSOTurBpsCKOkypXNFUOjpP5p577pE6L+niAfQvtUmX05nZnHcCUz/eiDnvvABHGwtpWVd5KE0+hi/nb4BLYCgMik9iTb47Vn96L9574k7UWA5EuEMLDhw9iaDRt8Cm+jT21Qbh1/em4I6Jg+A14mFYtdXi4Il4jL1pEsqPrYfhuBfwQh8NRr63D/t/ehNJp0SbeDIOIb5qzFuxAT6ho+Grn4vPl+Vh/dI3sH3hj1AOvw1Za5dDz9obAxzLsarIH18/NwnFKQfw/vwEzP74sb88DYrKFcUYFwpQz0XnJFEsR3HKuWj/UJxDo+m0TkrCwsPDRdwQIL1P12gHnQ9I8VRXTPXDDz/g0Ucflf6+EE1THbYv/w5zlmyB3MIdk6beicnjh0CbMg/PrrTEjy+E4bGnPsFHP3yPithtWLAhGrdOGIQXP1+IT776AhHu5nj7sSmY+MY6DHTr/K75Uaswb78eHrrNCzdE3Iu5cYdgX5+DZUsWIOKu1zHM499zlXJKbOg0nQceeECaEni5KJmimWc0zY8S7b+KTt+heHnSpEnSDLLLReWITiGify9VRi6GZqBR/XC+cns5aGCCTq260v7qcfu30PTC1atXSwfoBx98II2C0YFNvTPnQyNmVBCo94suj3mpOeE0R/bOO+/EqFGjpMSLenLvuOOO8/b8UMVAFQclTV032tnnQxVI1wnqZydxZ6PvRHNgqUfofN+HghH6TJTI0L9UCV1s+iKNjNEI4K233ipVfLTtqCDTlXDos3cXSuIpmKivr/vD56C/Kamlm7l5Z2N2QeK57sEDMe2WCXCyMETUvjX4dNa3SM4pRWl+DppoxMzUGA52lsjKykVdTQPCxkxEiKcLTIxp+2vR2NQKC7UbeoVFwNeyHsfyTTHztrHoP2AIRg8bAIOONrh6B2GAuD92WD9U13T/eQGM/VvRhZXoAkp0QaMvvvhC6jyiv6nxp8Drr6LEg4LproSMUP3z2wVMxN960uO/3+9KkLrQY/T835bTa2iZuJ0vpfnth6p1zz93fRJpHZ1X+D37cfqb1v3b5xHO/pvQc/74Wbpe37nOs59Pzzv7s5DzLfsvoc4/mtFCnaU0CkW/dUXtMiVedKM2ltohSgqo3aUgjNrTC7XvZ9No62EkNv+5m5Z+5PtUzGn4h4bhjpkz8PCrn8AzdT5OlwMmtjYYc+/9uPXm4eg75EaMGjIBD91/DwpKcsQLATM44f7HnsLIIREYPG44Rt44BXfNHInylEqp3ezqAKW/u25OLoNw+6QbcdsDz8CzJh80CZAScZW5JezVrgj080L/SVNRdnIrKrRtiNy2Hv1FsvfHknZ1UZxDn/Vc9Dnp4ms0snDjjTfif//7nxSXURxF+406vKleoJiOYrCz46XLO+9PhhHTn8WWnfsw9/NXUHB0DeZv3Iea5s71NOYnQOPSE07mRvDwcoSnV+fFKdR+fvCxNRafyxAmIkahn8Q4n46gMPRSm8DY0AiWxiZo1u2ffwuKZbsu6PFn0DFGrzv3PME/q2uEjKaqXs4xSaic0XFOV4qkqYZ/B+UFFINTO0UXCPwzNzpdiS44cjVcy2P3N7QjKBGjyvL111+XMs6vvvpKSj7Oh843o7mv9HxKuGgY8WKosNBBTXNSaWoiBQU03/x8KEOnddK6u240rfF8I3eUcNGNeuYuNJ+Veh9o5JF6Hs5X2OnqT3SREJquSO9B037ON2+2C13ohNZDCRlNA+ia5kkJKlVk3YVGKqmXJCcnV2oUKTmjbUK95ikpZ6TPTD2XF9OuqZcu+1yl0UdYv0GYdvcjmNzHAUejk9DR3oZ2bQsam5vRJlfCSW2DDm0Doo/sw4m4ZNQ0aEQw0ll8aQRALoIYiMpVz0gfHa3Uuy2HsamFNDdcX1Qicl1C3nqZBz9j7M+juo8uQf7II49Io2fUiUR/Ux1O9TxjVwpNX6Jp/DTThQI8ugIwJbJ00j61lRToUXtNv4E0depUqVzS6A9dYvtSTO39YN5Qj+zSzgsa0ChZUW4G9h84gOqGdtE+SQvR3toOuakB/XIDDEUbozbrnMGjrxBtjp5oc37L6iiBdoDuYSjFcw3p9wN1bRj920EzU0T21taq+S1INTG2FOu5wNXexKopTZCZuGNSYAfWHojDrhRgfG+XzsevEersPrfDgWIwuogHzaihC6ycfWVt2lc0UkbLKSim83Uonjg7XrpQp/fZYjb/iLdmr0FeURlkSksMDAmAXGwQbWtnUmZo4QhUF4ukuByFBaWifHReU4D2k4w23qUY6OPPpSv/LLTNqdPi8hLg31EyR6fjXCxuvRwUy1IeQBf8oCnHl0rMKCGjBJ5moNFgzvli9D+DpmxSOXvyySfx2muv/akbzb4bO3asbk1XVrckZYQSC0o0aIPcfffd0kgYDXFfCVQBL1u2TOqJoQt9XKnLq1IySBUJJR409HruSBgVVlpO34POl6NCdy4qCIMGDcILL7wg9R7RlMquKzKeiwIcunw+Tc2gi4fQd6FpjnQQ7dy5U5qScfVQpXXxiosu8GFjYy0lYdRAnjmTLPZjnNRDRje6CiNdNv9CqGe7qboEcbHRiIk9jTiRaGaXa+Dl7gIrtQuszVQwMTWHrLUZHaLRaqiugNxcDQ9XJ1iYG4vGi35D7awKxcwBIVZtOBkbh8T4WBw/dhQFlVfuZFDG/qmovv2namtpkDp+SsvK0ay9cH3SpVXTjEZRF7f9zZ5tTVMDKqtr0HqJ32m8lKb6WrRcxuf+f0TdSR1vzS2dF6ZoaaiV2hbaFnQrq6iE5gpfcbHrPYpLKy/rAhLUBkoXbNHdv5ao45M6QSnpootJUDxBAT/1gFPbSOeQU7mnNpem2VJnKgX+5zv14VwylRPuGOeFPVt24sC+A9i3dze2btuIhIwK9AjyQ311Gfbu2Y092zegzmoEPH7/pYS/xsQOjtpS7N5/APHU4Vp7qYtkKaAy6kBWThbKaxswdupkbP7iLdj1ngTrC+RwVwsluhQwU5tPaLYRjUxSsE3nztPtbJScUQxE0xipU5wSuLP3C8VRl3M6jd+AiTArP4XFS5dj1coVOJhTj4genrC2soezvTmMHYIwwUeB1es3Y9eB48grrYOevjGc7G2l89MpvrG1d4bqrBPF9JVmsLU2hULfCF5unSNrcn0DWNjYwkS/28Llq4KSKhptpjjzctE+pufTcX85x9Gl0DFMpxvRJecvNZOCRrrp1B86hYiS+r+LBg2oDNK1IeiCg3/mRp0M1MlzNXTLhT6owqRpLnQwU6ZO54JRI0NzS2naQZeuC31QckOXpaTn0rRAupFzk56uC33QDqPes3N7b871Zy/0QeujgkyFh+aSUsXR1btDDQO9NyWCNJ+dzm2jZKpL14U+6LtThk3TFilZ7PrNMjqv7OznE5pqQeujKzWOHDlSunAIXQKYGh2q9OiqUlfv1+/phzh/Py/ifKjBo89sa2snPoMcxsZK8Xn8xM1XqnjpnDOaumBiYnr+oFBPH9bWlmhvFoFASamozGth7RqA3j39YSYOGH00i0a3BHKVLQJ7+IkD2A5tdWWorGuCTGEEJ2cn6YR3U1MTqeE1MlTCydEG+dlZaGxphZ2LL7xc7GCoNIaVpRUM5B3QwBBern//NzYY+6egY4/qqbOn/l0pFAxT4tB1LgjVwTR9m6Z4U3BPjTfNWKAr31JnVtdvS1IPOtUNVH9cNGFsb8apYyfRLOq4uqpyVFQ2wNzGBheLj2pK85FXUgUjE0sY/eVAqgOZKYmIOhUHSwdHmCj/+kU0Mk5HollpBXPjP7kOmkmQlonmdgWszFVorq9CSXkVspOjUaE1gtJA1LkmZtCXX5n9WluagzPZxdBqWlBVVoKKOg1sbSwv+pnrRNKanZkFK7X9NR9VoE7SrniAyjcFSjRaRp2W1J5LCa1od11dXaVpdBRQUlm8vPNnZHDzC4KiIR8JZ3JRUV0JS0dfTJw4TgTrLlC0NiI7Kx2ltW249a674WljInUQunr3gAWdnqSvEu2TI8xUcjR2GCIiyBualjYEhAVDIZ6nNLGAs/i8RrJW6Jk4wM/fG47KWiSml8DE1Fq6iqeziwNU4m93V3soDeVobtQguG8vGMj0oHbzhat5B0qqGuHo5g4HR3us/H4uHnrrDTiY/P1zR+m4Pd/pHudDz6VYjfYHHdM0EknTSSkp7qoXzkXHfNf66UIh9DftJ9qPdB0Aiq1of16MkZk1+vaLgKWJESysnTBi7DgEejuL9t5Ceq2tuQL5hWXQNzRAW0sjVDZO6BneF0E+rnC0sxbvpQcrWzUcRTKv1F3pQ2FkAju1WpR7a3i4OsPF0RZyhT4sbe2htrWB8b/oImG0zel4oWOD4uvLiSPpeKL9QzHolZq+J8VuIv+gMkOfiY7Rc1HMTQMtN910kxTbXwlU1qj9ovibZnlRBw913FzqRgNIFMfT9SCuhm650AddTXDx4sXShSro8rSU0NAviNOUPmrMu3Rd6IM2Fv1oXFcCROgcMfpthbOde6GPs59/PjR0Tu9NO/zsrJ/ejxIeSoTOvtAHoYqdpjh++eWX0nldlFjRND56DQ3XU0GlUTC6sAhVUF3OvdAHZeiEpmXee++9UkJK6zx7aib1CFBBpIPm7KmAlJDRCCP1NtEVGf/uMPKFtLa2SbeLJWYXQhV1Xl6u2CZZYhv5Qa12uErJI2PsYui4MzBQXDz5+YvOvdAH1cFUH1LHGF1Vljr8aIoZJWE05ZrqeUJ1GHWqXfJCH9pyfPH5Ykx/9CFYyFtQVloNM2szFOUWSFeaM7R3h5eqAQdj82BtbwVDfUOYKbRISM2BuZ0j9NrlCA0PRGXGKeTUK2Es74CNrRUqS4tFomcCF1sDFJU0wECvGU36DogI7AwI2horceBYDKqKcmDXcxj6B3og+cQ+NCqtoTJUoLasHDbOHmhvqEULjWg1NcLf1w0J6dUI93dAZkY6bFx9UFtRjoyo/YCjP1wsDNCoUCPUyxpZqYmo0ipgaWkDJxtTZOfkokPWgeo6PUT09kVu8mnUNGmQllcK/5AIhPm5Sp+LRG5dBL2gW+Fv3oQcUb/WtAC2dmpU5xfAp08YmnLikdlkgSAXC5FYxkMrEgQ9EYA2NeqhV1gP1ObEILvOGEq9Nrj6BsDahLIIDQ5u2wkjlwCE9/BEc00p0nKq4OFpj0KRfFRr9GBn7wjDljLkVLfBXNmOmjoD2JhoERWXikHDB6OxsgItTfVoM3dFqLcp9m8/AVsPD7iKpMHc+MoP31C5o+lM1LlLiRa1kxTHdLW71FZTZwCVL+pgpSv8UScAxR3n/vbRP1lNbizmLduEGmM/vPbEVPzdLU3tPU0lu9wLfdBzKa6hY5niN0qK6UIQNL2M4hyK8Sg2opEzei6NjtGFzmj9NNWU9hu9lvYh7TOaDTRhwoRLnv5wKdrmGmxesRI1bQq0iRDGMzAMESIpNvk3XULxb6LYn34Dl+Ldy5mOR/uPkic69miG25VE10qgU4moLTn7wlHUVlCZoBEtKheXiuv/DKoTaOCHOg/OHhC6GPo8hC66dzV0y0gZVYg015velw48uogFTTk89/LIVJnSgU0HLFWkXUPhdKPM/twrttBracPSeQz02KWCEMr2qTCGhYX9v8CAAgsqGPReZ6N10qXvqbLpeoxG1ujzUQJJc03ps52dkHWh703JJT1O701oHTTtgv49t7Gg7UOfoesHMrtQEkbbhXqDKPg533tdCfRdqZL8CzmZtD1NTc2kng9aB42WXTT4YoxdFdSI/XZBjCvsqo+UyeTQ09YhNydTJHmJMHd0lUbCahs0cHSyx+ljp2BtocGx9BaE+qhRWZyPkupm6ZxSW0dn5J4+CXN3GxzYl4jAIF801VciLTkNGvG5jK0cIWushsLYALkZmYhPykHP3kGg/vvSnHRUtnQgsIc7omOz4evrjtN718PYuy/kzdUoEMmSi9oUWQWVsLSxhaqlECdytKjKiIeFkw0ij0eKhLADNQ1NqC0vhJmLSMrsjXFw90m4OBggLrMKPm7WyM4tQmOt+AwqU1TmZyPmZBTsXO0Rn1oKP08HVNc2wtzSFmqb3ztNC9PiILP2QkdtHnIrNHBTq5CYKpLU4hQ0W3ghL+oI0iur4GBtjLjoJLTLFbCwdUZhUhwsHJXYuisevXoGoFV8j6y8ani4qkUEW4Njp/MQEugHMxMlDJQmYrsqUZSXjsySZng6miE5vRANRSmolDvA18UWcUeOwdrbHXXlFaAr5tY1aqB2ckRq5HFYeNtj9+Zo9O3fCyYqY910sSuHeqrpAgFUtqgtpXPI6G86P4nafmpTKcinTk7qMKXRNBqJoVEcGh2g3vmr1W5ec9RG65th+MhhsLpCye+fGSmj+oWmHNIxTdudtivFd5Rs0X6iv2l9lIBRPUD7ieIXGnGhTnGKiShuo3qAkmxa35U45USuMISHtxesxfHp2yMY/qKsGhv8e0a6rgSK++l4oZ8poKmMdPycL06jxJpmt3Wdh0adcTR970rGdFR2KAfYsWOH9H4UE9O0RkqaaACCksbLOdfwz6D1UTmk70ZllM57vtSNfjy765oQV0O3JGVUWVJiQj2olHRQUkQH7rmNM/Wk0MFJCRBdqOPsGxWkcwsEFRhKUuixy8mmaafTyNa5O5oqFVpOydf51kOfk4IOShZpRIyu8khD9fQ5Kcg432toGVU89H0oEe36rrScKiW6UeNy9neiz0c9Sueujz4vBTe0LuptvmhQ8zd0rfev/vAsfRdKzFQqE6mCv1qfkzF2fnTMXa1RMkJBFE3poN51SrooOKbeV2rgaaYDBcA05YWSNZqiTnUZPY8eo0aQ6tiLNexNlcVoVjqKgMoNFioDFGYnIr2gFk10rldHG7SaDjja6qOswwEDAp1RV1WK3JJqWIkG083DB+WpUVBZm+NUZgsmDAuDRtOEnJQ0WKkd4ejmKR6PRUFtA5x8wlGeHo8eEeHQb22SzpPNziuBtrUdJZlJULmHoC4zDp79RsJQWy8S0XZ4qJUorG0X9bQXnFXN2JlUj56WNSjWKFHfpIC2MgdWriJZba6HnU8QPJ0scWL3ETg4KRGfUQ5DvXa0tIuks6kU+eUNMFd7imwwGUaibanUmmFAL3dUVteLttkUduckZbDygKy+GE0GdugZoEZyUh4CXE2RUNyA2sp6uBjVo6ZdCX1jC5iqjODi4Y+arFgYmhjgsEi+bFRy1Iokiq7i56wWwYVeB1KTM+Ds7iKebyzi/Dbkp51GYXE5MguroBDbWiPSVWVbLfQdghDkJZKvUwdg6tkTbbVl9NNuKM4vkq5kp9W0wsnLAWcSyzFyeO8rnpARmq1CbT0FcdQeUkJAQSL93VXWqVxR+0idmFROqX2mOIdGbagNvpazg64mhdIUbu5uV3Q08s8kZYS2JQW2tM0pWKXtTokvHf+UPNP0RnoOxTiUINNoA62fYjmKB+l1lDx3XbzlckfpLk4GhYERLMXnMDNVXZVy+G9AsTfFn3Q9BDqlh+pyOmboX6rb6acl6AqFNEpGCRKdukM5A/3W3JU+hqjsUHJGV1ekK7JTeaDrM9DvkV2NHIXqC2qL6HvQ1EiK+7vi8fPdqL2ia0DQz16dL86/ErolKSN0QNKBS7cLfTmqXOl5lCSdeztfQ07L6Pnne+x86H3PV/F0ve+lNjo9Tp+fksGLfQ9C6+x6v3MDpK7l537uC32Gs7fLueu60mj9lzq37GK6vvfV/pyMsf9PujLpVQxGaH491UPUA06JWFedRHP0qY6iRo960SnIozqy63lUJ9Ay+o2Yi9XXirZGLF+zTiRLQ2GqaENFaQWMRcBgbm2NEH8PxCZnwU8kOftjixHsp0ZORiqU5naQK+SwtnNAUUoMzALCUXBiP9x6hKIqLwXljTKYm6lgZmOLVBEw+vQdAmeDYuw6UoABQ8PRUlGMvOJKeAT1Qa9APzibNGN3fCnMNSWwF8s66qtEkNkIHx8nEexnw8rOFsUpJ9FiGYAQR2DPoXgE9gxBSXEhrJ08YNBQBkO1O2xNFYg6fBqBA0JRU16LsFB/VFXWoignC3b+YQhzMxXByF4EDBqGiow0EaxaIS09Cyorezick5Tp2QfCSCRIZWWVMDdoR05FE3yCA3Fmx0roefSHn3kLjp6pRkQvDzQ1tsDSzhFl6XFQ+fZE1Zl49B19I1QdFSip1oOXm72oqMW+aspDVF4zvF3sUZF9GruOZsA7wB1tGoht7YJikTjKW6qlUTp3WxWSoo/Dwq0HmqvKRDBlCRiaIijIB8nxafDr6YLEmCL0ifj7J+SfD43CUDDVFVDRZbJp+hP1rJ97ozJKZZFGcI8fPy6VRwqurta0/3+DP5uU0fFMo+V0jjwlXpSQ0fFOs3moc5mSYJrWSOukzmkKtGlmEO0DOv6pI4eCcJq5RIE5xwvXFh1DdJEc6uinaef0O2Dr16+XTtGhjg+6uEXXlU5pGiElTrTvzj7d5kqhskPtAh2ndK0Fel9qR64GKmf03anjgE4Vogvo0dTbC93oOg80bZM6hK5WGe2Wc8rYPwslZRqN9i8nZoyxa09f//ydTv80HXWF2HYoVvqJC//gMKgt9JAan4CsvHIEDRgEs7IoLD5eDi9HS3j4BsHRpANVjW2wsrVHceppmHkGwVJbih3HEmHj5ImeHtYoq26AmbU99BtLcDw2GW0mDnDSb4BTSF901JShqq4ealcP6beqgEYc3Z8EC8sOOPXojY6GSlSLpMzdwwX15fmISUiBwtIN/Xt6o6W5DqkJmfAI9EQlJZAWdmgpz4WBnRtsTOWIPhqPoL7BKM9OxemsCvj7B8DTRh9Ho+JQ3WQAH0e5dNU4eW024jOKYGxuCx8Pd9hZ/55AFKXHQ2bnDzsjLTLSziCrvAW9REJmZ2WGzPhjUDiFwUa/BhkFTfByMEFlXTMsbR1QlpkAYxdf2KEKWw+dhrmNK/pG9JCma3YpyohHXFo+ZEa2GDasNxTaJmSnp+BMYZ14jyDpnLIGpSNcbUxwJuYkrD0DUJKdBqW1Gnp1ZcjIKYBX6BC420EEOvkID/fXrZn9U1A7/2fOKTsbjYrTaAuNStKow6U6ZCn5oxEySp5p9hQly5yQsf8yTsrYZaHEjOb5dv3AJWPs+kRBjUJBCdnVmV5xvWnIicLefBPcOJATAMb+rr+TlBFKtGiKG517RKdf0GgKdQ51dRDROeYUS9BICF15kaYz9u3bVxqRYey/jpMydtmosqarMba10cU/ODlj7HpDl72nZOx8054ZY+xSqG2npOnvTBmjddBFVeiCEJR80VRGmj5Kyylpo4SNRtVoCiNNmfs3jOgzdiVwUsb+NErKuhKzrhtj7NrrnOkjk5IxOjeDzh/j6T+Msb+DRrMu99z8S6EEj34SiC72QeeV0cgZ3c6+0jRjrBMnZewvoTysMyH7a5fMZ4xdGZSEUVLGyRhjjDH2z8VJGWOMMcYYY4x1o6t3rWTGGGOMMcYYY5fESRljjDHGGGOMdSNOyhhjjDHGGGOsG3FSxhhjjDHGGGPdiJMyxhhjjDHGGOtGnJQxxhhjjDHGWDfipIwxxhhjjDHGuhEnZYwxxhhjjDHWjTgpY4wxxhhjjLFuxEkZY4wxxhhjjHUjTsoYY4wxxhhjrBtxUsYYY4wxxhhj3YiTMsYYY4wxxhjrRpyUMcYYY4wxxlg3knUINTU1MDc31y36+06ePKn7izHGGGOMMcb+G/r06aP768+5KknZoEGDdH8xxhhjjDHG2H/D4cOHdX/9OVclKZPJZLq/GGOMMcYYY+y/QaRWur/+HD6njDHGGGOMMca6ESdljDHGGGOMMdaNOCljjDHGGGOMsW7ESRljjDHGGGOMdSNOyhhjjDHGGGOsG3FSxhhjjDHGGGPdiJMyxhhjjDHGGOtGnJQxxhhjjDHGWDfipIwxxhhjjLFuZGRmCU9vL1iYGeuWsP+a6zIpe3jpHmyc8wpUuvujbrkdb7z9MjwcLXRLrl99pjyIdQeikBCfIG6JiDy4HROCXXSP/g2GJug3/VG8/er/dAu6l7NvMGbPW4oFH74IFxtzaZmeXI6PV+7Dgm/fke6fz5IdezHUV3fnH8p/3L3YfTgKiWIfnzi4Gy/ePwkW7n54+/NP0C+ip+5ZgIWVNX5atgR93HUL/jXUeP6d2Xj89r5QGXYusbKehJUrf0ZQ593/5zFRLqaM9Nfd6z7PbTgq7beEuM7bpm8/RZi7g+7R/y4HzwB8+t18aZskJib9to2WfjJd94yLMULEwJn49PUX4KZbciHWTj3x3qxfcSIyGgs+ehJGBvq6Rzr5Bo/HL4sP/VZ/xp48iPtH+Oke/bM88N3SZZhoZam7f/1bezT5t21/6tg+vPDgZJgr5bpHz2aInn1uwEN3TIetTzhmffcRAnwuvPUdvIdh7pKNiIyKxpxX79At/V3EkAexfsuJ37b7yQPbcWs/D92jF2Fhh4lPPovH771Ft6B79ew7AyvXH8Prj4yDiW67WdkGYPWeXXjnmTG4+Y578eKTU6E2kx76A/feA/HIRx+jp4+dbgkxw+PvzsWp2DjEx8Zg09LvMSzCB70G3YXZjz4BZ8vzrOi6IUfo8ElYuHoLjh85ipNi3y+c9RKcTLu+60cI6RWC5z78DocOH8ZTD03Awjn36V7bvfQU+pj48EtISkyUjoX407FY9t3b8HS20T3jr+t3+zOYecsA3b0Lm/bwMsy7b7LuHhA06la898Zbl9Ve3PzubDx45yjoyWS6JZcih0ePQZi9YC22bdmG1b98gXBPJ+gZ2uK171YhKjISB3ZtwcOTh0EhIuNxM57Gpt0HEHXyKF6+vbduHdeYkSUmP/Iq9h4++Vuse+eICwd3DyzagbsnBuvuXZixSEyf/PgnRIrvPO+L1xDo+v/jfmMLW9z5/CfYd1iU65MnsGn5jxgR7gGFngzq0Btw8ORJrF2yCF9/8DMObl+MMUN+j8uud9dlUmbt5oVhtz2JJ+/oI903MbeEWm0HA/3zNU7XF2NzazTEHsRdt9yAPn0j8P3RSrz1/kO6R/8GmR5UFtawt/v7ldKVoG+ohK29GpOmjIS9o7W0TGY/EjOGBcPJSS3dPx9XL2+Y6AL5fyYv/DDrDRz94iH06T8AT30wDz1H3Y3hYb3EdnCAythI9zygpqoST9x7P6JydAv+NRRi3zvBxlIFua7NkSvM4ObmIsLz8/vprhuwfn+q7l73MbFT44dPn0Wffn2k223PvY7YnGLdo/9dxdkpeP3ZR6Rtciy9FCt+mIZ+/fvgvjdW655xMXowVlnAwV7U0bolF+I/YjAMFeV48o0vETj+NoQa/PEVhkpTKDLP4JV7Zkj156MLjuOL72fpHv2zDODs5gYz+fXfbnRx8fTCrJepbPbHc+8vQnjYTejn7al79GxKODuEoneQJxSiLnZ0coCR4YW3fsT0m1GbdQTTnv9G3F5FD93yLkoTK8hOHcLtN46XtvubO/Pw4hsv6h69CLkCZra2sLHq7JjrbkbGlrBXu2HmuNEwV3V26zoPm4AhQW5Q25pi8/JF+PKHtSipkx76g5zo4/jlrTcRn1GmWyLK68Tb8P5dnrjn5hEYOuZm7Expw50zp6A2eSme/3kOCqrPs6LrhHf/sXj56XsRs2EOJtwwVvr8ja634ZNn7tJ917eQoDVBTz8TvP7ikzhW7YbR4U66V3cvmfjP1EyFzFObpTppxI0PQ+PYD5PDvWD8Nw/ngFEjxbFz6Y4aCxs3uFj9nhAoTc1FHWcP5TkdSedjrnaGtaXIfi+TobkFht0yCrbtZ/Dd3LkosQjEjVOGYNzMJ/FY32bcMn4kXp+9EsPueBA33zYaM8YG4NcPnse0B7/Gox//iB4XanivoqDQ0bizfyC+e/0h9O8XgWfmJeDtL7+Bq+7xc1m7esLSTKm7d2GWFv1w4yAPfP3OC9CoTBEa+sf6T66vxKipz+KeIQ549YGpGDpqIpYer8Ssrz+Er6UZ+g4IB1IX4eWvf0aNvSk+/+Az7DkSr3v19e+6nb64bvt2TH78AwzwthGHZyc9fRUeePUrJKekIjU1Het/+hA3j5uCBUvnIcLHAe98uwx7f/oUjuJAenHhaXx4x3DdK68tPbk+lEpjqGwd4Ks2R1lOEdzDB2BhbCbSkmLx1bvP463PfsDp+CSkpWch9vBaDOrlj/dm7UZ8ZBRSM3MRs30ZQjyd4dXnFsSm5CIlOgpznpwOqo+Ch9+C9XuOIjUtHWeidiHc41Kh0NWhLY9DscIeQ7xERaWQ4ZbbZyD3dALaxGNWal+8+dlCJCanIDs3F8s/fwgGCrlU2VqovfD0R3Mx5/M3ENIzFB//vALJycnITE/BBw8Ng72HN95YvxPjBniJVrEP5q74GUP7zcD+mFjs3RuDNLH/929ejN7e3THC0YrGpibYevnB2sgAZ45vxn13T8f6k2ekR/WVFnjg7bk4vecXhHnbYt3e3bhjwiB8M2cP4k/FID0rH5Hr58LOVAWv/uNxNC4NmWnJ2LToewwIDcX/3vkWMXFJyBRlIGHvfPhY2uD1L/YjMzUFe1fPw/+eegGrdx1DcmoGUk7twdBejtL7XnsyKFXmsLaxha24WVuZSsepibULnnhrNuKSUpCVm4cd89+CmcoIrx5IweN3jcDLn/yInDNpOLr2J4zodb5g8+qi8mdgaCSSZ5W4KaHQ08PQm17DkcNxok5JxS8vzMBjny1CanqGKI/pWPbNu/B3ccQ9L36OpOQ0pKWewekTZ/D1k/filne+REFWKmIOrcS9Dz6D9WK/nElKRnZeNt5/eCKGjPwfYsR3PXksHnlZ6XjtnptgKgLFJ2ctRlZWBpLiT+HT5+9Fj+Ah+GHpNpw5k46UhJO4a+S179XraG+HpqUFjY2NaG1rg0bTLJXzATc8jdjkdGSI771p4dfo5+eCnjfciz3HTyMlJQPJ0fsxIdxD2vek56gp2LjvmK5u2oleLn9sYipzC+HrF4Q3nnkYpcf3IbZVq3vkdzI9OYyUSqgs7RDobI3KnDOwcHDFVyKpTzuTgOWbtuDw0c0YOayf9PznNiThhQcnImzsNBxPSEVGeiq2LPkMvXztxaOGeHrZVqSIfRd/4gDG9XBDj/6jsGTrflH3ZiD20AaMC3OBV8QMJKTlivUnY++q+Rjm113HlUgljVQws7CEnbMDGjrqUNPShGEzn8HxmATR9ol9kRCFh6cNxE0v3Ysp99yP+2ZOhpWxPX5ZsgHJadliu29AgK1Ct7ZOJWcyMXDkGHzw7AOIXDofSbrlZ5MpRLtlLNotKzUCHc1QU5gl9oEjHn1lFuLF8ZydkYJ5HzwEWzMjhI98EmcyspB4eD/emTIWKtcQzFmyCHeNHQQDmR7u/3grlr8xTbfma6s4KhXGfsPgY0EBtR4mTpyKpJQY6bGZjz6Fj964D3fe/y72bT6AuMRkcSzmYfGHTyFg4Ai89NNcRPT4vV3RalvR1G4Eb3dHyNrqsODzl/Dwc5/APuIxLHv5ddx21/8QGxsnjt00FFdU4uCmXzB2SD98vXCT7niOxP3jOzuXry0VBkUMFIl4JDbt2oOq+ibImsvxzofPYHdyKfwGjcRLP27B/FdexbiRE7Hwu5/wxXuvwTbgcWxe/DSe+GIp0jKzkJoUgzcemwZL1aUTkStPJnJ+famuVqsdYKZoR1G9FnpmXvhx4zFkZaQj7tQxvPTAZJFAueDp979HbILYnzkFiNr0DWxNzPHyykOYfoPY/mp/fPjjTyIm+Rz39/bDc699hze+/AoJkZvhpC+HX8Q4zPrsS4yN8NG990X4DsO+Q7ux62QcUsTxdmLfCvg7mWDQmDuw81CsqCuT8doNg2Gi0IORSziW74tBRkYaThzcijtu7I9xj7+DPacSRByTgtfu6Byx6+joQHu7Psxt3MXxpY/vXnoQH3yxAtkxUXj2sU+RX9GA+qpq1LfJ4BTQAyWldUgW5Tbj9AqcrvfAgBFW0nqupdY2DVpF3Odo7wRTExPErXkb/mETUGpqgzue+gCxiSIGyM7B3hVfwL2r414mF3HPTdh05LTYJunYu3E+hvT2gd5ZA4rN2iSUtqjx+NMvQdkhF2UwX/dIJyNjI9xw2xhsWPA9jp3JR1NtGZZ9/wVim7xx40cv4pvXnkDY+NewdfkiPHLLWDz/yGO478HnsGHfSVF/Uty0G4NFmxV+16soKshCXNQ+fDZ7DjbuEe23iKvS4w9jkE/3za64bpOyhN2/YvXRMjz+1MNwEI0A8ex3Ax660Q/vP38fps94CC3uEzC6r4sIgtoRMuQmWBqbwLefHyzVQbh9mBG27Nonve5acx86AT8sWIrNK5bhxn5eiBeJl1K0kVW5yXjz8bvwxq8H4K5ux9vPPojJt9yGDIu+6BMeACP9Buxa/SV6h41BbLMpBls54tVPP8Ker6egZ/+B+GZzlLT+XoG+KE8+gMfvnYq3f1wHPWV3jZ5VYfvRFPQIHwyluT2m3D4QS/btkB5x8feGsX4pXn/qbtzz9neIGDFRVLBy6Bua4ra7X8NI12Z8/vFX8BcJprd5LZ578iE88MyPeODDX9CHYqnzMTDHiQX3Ibh3H6xPbcYDd0/UPXAt5eCxe5+FvPdMrNi0Ab/+NBsPTb0JjubG4mgywLSnXsUjg+SYPP0RZFXrXiKoDGqw8JuX0Sv8RlQ7B2OESAxe+nQO9v30P4QMGo+Np/Mx/MabEWzShPdffBw3Tb0fyt5T0T9YVGTaGuxe+jFGP/AeXIN7o+L4Bjw4cyrmHqvGj588rXuHa02OKQ9/iFVrNmPzps1YsugZmIiltm4eoFjo41cfxbRn34dr2FApCeoiRx22rvwCwyc/hL2xmbql146hkTGeePEj6TNvXr8KD984BtSfaVB5EsP7huORr5MwKtQOr9w9BU++8RVkHc4YNuZ2zBjuIALhUfCNGIX01s5OELlokHat/gWjR01Fo6UDMg/9IuqlaXhGBDs3TBYBqSgPZVkn8cL9Q/HAm4vQ3ysUASPuwrvTvTCiXwgmiEC7zrE/HnvyHtg1pODZB2biteUn8emsV3F9nFHgiNc/egw/PT1OlNEJOFltghtvfwRvPz4VOz57FsE9fPD0/Di8/eGL0r4noUH+KI3fg//dcxve/mkD9E1+nwpmoDSDo5UZmlsV6OFmgIUiEfX2C4DFOZ2n1qH98e53c7F59Qo8edNgqePCXBQhTVUxFnzwLKY/+grisip1z+6kr6+PXkF+yD+6EjPuvA+LNh5Bg5a6sAxwcMWTCAwJwspjzZg2aSLG33QLWnOP4t6Z07E+tgMvPjQdgwbfhZJDC3C7eO3sRRvQbNA9o2t6cgWef28zNqxdjVcfngyD1irUNFlj/OAwLBMBx2233oLVka0YaOaIjZ8uxJqF8zBvyVrUibr1h1ceRIh/TxxVDsDAgb9PJFaKIMnFQh8VzcYY6KfA25+tQEBQIEzPmbGgHjoeP/0q2q1Vy3DX4CDEiSQ1LDwM/SKc8Ny949Br4B1QD74PE3p644t57+LHR0dgyNiJWH8iBQ25ZxCZUIqe/QJg6xyAu29yxc/Lt+jWfI2VxWBPch1GjQ+AoWUQJoS04OiBWN2Dv7NWFeCWIWGIGP0U/MbejF665WfL2LEMj3y4EQ++8S3WrV2JWR++jNEDg2Gom7UTuWUpevUKxc13P43dR47hxx8XQR16E9yQjxceugOvLjmCtz54rhuOZwuYKq3QWFCEhspG2HoF4amnnsYjkyfA09sHnUdlAb7fuADb92zA9PvvwtOvf4DyM9/h3pfWItTfCd+9/Sgeee5NxKSWQk/vj0n+tSBTGKGvqFuprp73/VtwNNKgobEN4+95HTfa5OKOW0X8M2cVwifdjiljR8Bd1oB3X3gck2a8Atuht2CQbj1nSzqyE/Oj0zDrg8fw4fNv41StGuPHBcNfxCtt2iIkiSTrchhYWGPlk9MQFBSCoxo/jBFt95hRfXF40Zvo2Xc4dkcnob0DuOf1r+FeIhLDqTOxeFccxt06DX5OKlSd3oPxIwbig8VHpfVpaqtF8rIWsVktmHb7vfj4g/cwsX8Q0uM2YfmJZHgFheGO+6eiMnIH0gob0GAkQ3NHu/TahJp6GJtexlTjK+xM9C58u2IH+k1/AmvXrcUPX3yCOycMhYOjPZw81fjhg6dw2xNvQOHYA2aWnUmZvogFZj70DBpPrMZ08T2jy41w88QRsDX/fWDBsUc/yOoqxHcyQkpyFGr1TGFpqvqt4486Ul0tDZFTlqVbImjKEVNSDWVKEp7+6DtEbngTIydPx1drt4l4ewMCBw5A/t7luG/mbfglsgGz338CMrkMiZH7cOuI0WK7l6A4aS8eu28qXvpqOQyMum9a8nWblLU0NWLJL9+j0S4ct04aDH2RSjtYeUKpb4OJIuB98om7YdJegsaWChRWZWPshLHoSE9Ger2VCGinwTB5I46U6FZ2jaXvFAVu0lj07dcHEx/+AZOffAfBIm8qr6tHflUV9KqrcepUAYaKyuSZ556Er7mo8GQyNJVXozglD7XVzWhqahMBoQUC1CqcPn0azY3NSDqVjBYokJyUjlaVJ5554Q2M6RsCj64Te7pB7LGdcAgNRO+hM9Cj5gAOJdWLpXqoLSpDRZkWo2++Gw9NGQ8zFTVLMihERevq4oj6xgYRgMjgZKWCi1sA7rrnQdw1uS9ycqpgruuopINQXxyAiq552e01OLIuHi0aDWLSs2FqewXO1fuTlLZO8LOrw1MzJ2L0hFvwy6bjGHLzZNw4SgRBBpbwszZCU7MWcvkfm+H6vBIUiQO/XjSQTZoO6cDr4WqB+NMHUV+Wj5Xzf8bqTbsRV1CHYRNvw7OPPwBLffG9xf+a2iZUJBeizdocKmtT9Og7FA/97wlEOBujuu3a95B1asWiWY9hxNC+6Nu/L8ZNeFekW0BzZQmqiisxaMwUPDrzVtha/LFy0zbVoLIiW5Tj7tHc1ICPXv+f9Jn7DhqBL1ZuRI1YXh6bg2ZtG9rNaxAZlYwh0x/EvdNvgqe9CZxtXCArzUVuWS06avIRdaKzYmlvaUBRZSXKW/RRGH8aGqUvHnnsKdw1uq90PNM2Ks8rRnFmJRqqmtCuaYeXixWacvciq6QBeWdOYs7PC1HWoYJHsGh0H3wUN/d0RVmzCS7UL3FtecNe1YSkg5loKC9CflYuVH7OIrFqxsH0fGjb2nFiVyQU1m66z6uP5MQUtJn54rkX38SYPkFwM/69bnIODMfUm0dj3+Kv8dGiA7jnqZewefNSBNjqnqBTdvIAnrr9VmkfjbzpOQx/5BMM8wOqRR14pqhc9yyaRNtZR9C09tbWNiTGZ0PPthdeef5pDO/XC3ZKQ/GcBsTtS0eHCJDqaxph38MMTjYm6BHcBw888hhCXFUUv+L0mQ2osgnHG6+/jFGDwkV91T09pe1trXjrSVE2+/XFzfc9Az0nb/QZ4Y/omFNw6jcOTz/9DIYGnn3OU6e2+hKcyisT+6QGOQ0tMDT+vV7wH3IDpo8IwrfvvoBvt6Xig6++xool38HznKqjYOda3CbaUdruk+/9FCPvfhkj/O2g31KO4sI8VBefRk6lBtbuXnCza0Xy4RxU1dYiLl1sX2iwf98ReHn2xKjp98MoaT12p1Fb0D32btiH4YPGYND0e1B5bCXSGnQPnKU0MhElDW1oKa1BS7tMmoVyLreQCFScXI2JY0bi9odfQlqjJW696154O/4+XdMjeDjeeetpJKyajRWHM6BytINHYAhm3P8IbgnzQJXGBBee0H+1NKBO1LWGdjYwNleiua6qczZKqwVumzyeivwFNTZocep0IsZMfRSP3jkdgR42MDS49qFih7YJh7YskMpj/yHDsPpMPW6aMBze/XqgTeWIB596EreN6g9FTQM02kacqa7HiBun4LmHp8LcoDOJpJkRFD/QuV3ys4djhPb2WqxfK4LyGQ+ih48LshJOIa/695F7jbYORrZd3U0ykYjrQytrF2WlTWykMuxNLxH1igYldc0wMjSHcYMxSjJFG19VjKjsYjSJOsmmpzuMnfzx2OP/w9CwHmhsbIeeoSkSCkpR3/L7e+kbGMLYoA0bls/B7F/mI6vZGtPHibjJ2BQh/SfixRdfQHv6QXz+4wpUVDVD2doOQ2lathI+pgZorCrtXNE15OjqjJqcE3j49htx04z7seZoBp757CuEWFWjIjsXIQMn4n93TYO7w++z3WRyPVgEuovjqi8ee+R++DnYQtuhFAl4Zzshkxng1XfeQ8bu2Xjzm40Iu+kJLP7xI/QL9PxtHW3t7Sgub4ST2uu3ZQbGtgiwVKKutEC35Cw2FjCxViFwwAjRPj+JcAdD1LSJI6BNi/LKCmTWdiDhdBy0IrF94eU3MFG0HWrb3zuSr7XrNikThwyK02Oxau0eWLiHw8pQhsLCNJSUZGDt0nmY/e0vOBmfgv07jiM7oxSOvqGob0jE1mOZmDltLLat2qhbz7VnbG2H4J5h6BPRB4EutqJCrEFzZ6eGxC2oL6ZO6IP8pEgsW71OBGEiAdNTiEqoA21NZz0RlTh+OhNDx88Q6wrHwKEhMBD/WZibIyPmMFas2QwTz8GYOlgEgd2kNi0ekYUWeOfxydi2cB6apKX66NGzH0YODUJK5G7sOBqJJm3n92pqqMRPs95CVqszpk+7AdUiqE2KO4pf583BghXbkRK7F/HJbTDQyNEzJBxjInrDQzQsIqYSpdUUY2aOR+/w3hjW0xt56YnSOq8lA2sPvPnJZ3jkzlsR4uOBVk0j6kSDpxEHODQVmPXZxzha5YA3n5gBs7M6F9tFItYhbmc7fjoDg0ZNFY3OEMy84248cO8DmDigN/JEuVi7YQcaW0VjQusQEWVHq3htZRWK8wpxZO9O/PDdd9h5NBr7d3ZTb/QFePkHYMyYAchJOoIt+4+iukkD1R/bwutShyifFLgr/IfhkanDceboPuzcexTlzRoUlqWhycIFQwb0RXj/EegTfk4WARUmTZsGb1stdm1ciT3xabqe5Q5pv7c3dz6LZGVkotFmIMaKZHbYqAm4a8okGDdW4tTJw1gw9wes3nUIR7Zvwll9gN0oHWdytRg2bRz6DxqKYH93VMYnITG3DeMGD0R4WDgmTx+GyvQEdJ6F01k3pZ86iBVrt8DUaximD/596hZ1RWhaFTBTGiMzIRE2foFQtZSJ4OWP2YGBmSX8gnpK9WfPADtoG6tRK7J4muLTRjupoVEk0HKEB/VAH5FY93MzF9tbDjNTayQf3Yn1O6Lg3mswwj09xSdqRytl3TqNTY3Iyc3ByeP78dOcH7Dz4Ens3BoLtbcrkg5txsqt+2Hj3wuDBnbPieEyETx6+fWRvnuAvw9kHSIItHDHzNtvRkdxOlYtX42UwjrIlTIqXbCwsYOdjRVkIlCk7XM+HR16aBH1qY2ZKWKOHIf3oGEwbCxHS+sfzwMzonarV2hnu+VrgRZRV+dV5KNRZo1+YjsPGjEJXhZtyMlMx7G4agy/YwIGRERgQJCfFBxlxJ1App4aD00eh2Vz13SutJskndqDUqcBeE3EAsuXdc7eOFdbvWiTzr/JfuMzYAq++/IjTBozCC6Wxmioq0V1gwZakcQR+8D+eO+LD2BRHoVDiUXwcrJDS0URTkUew6Kf52DV9gM4vH0zrv2cgGpExRxEu00P3Dx5CvwdrUW5L5LOAWysrda1039ULwJ9A5U7eni7wEyvBRtXLkVycSuGDxkCJ9uLpXFXiUwE8NaOUnmMCA0VsbUKDfVNyDgVg4r8VPw851ssWrUBJ5Pi0GrvjiEDI5AVfxLrtxxCo2iO9YxFnV7XiLCQnhjSrzd8XR2lctouvqfa2UuszwgnD+6EWa+xCLQ0QfTxuM731TmdtBd2o8dg0qihGDh4OEb1D0VdbR6Ka6ppJajVPY/U11ehtL0G/gP6YZBIIAf6usBIoYc0sc7cpCjM+f57rN28FUkJp1FWViHVY/RfF30jEwyfMBPPPDwTajNjNNc3o7G+Hm69RmP2D1/Auj4Nuw7Gwc7RDQ0F+bBRmkvt0bCxUxGgl4Xo03m6NV07HqKOfe7ll3HHrRPhqbYQ5aoStXV1sBHJ2qRbb0B5VhS27D0ktlcjRHXVue3b2pAReRqnj+3DnB/nYvf+PYiLixPbr7FzpVCIukwj4h6tiKvKoG1VisRUKRaL1kOXVDc3N2PL5t0iLp6OG0YMQljvfph292Nwb8vG0SOd05T/oKICRXlFOLx7G77/9lvsPh6LA3uoTqAaVLQpkMPeyhKZMYewTOQNBs59cfeEzqnx3UH+ttDS0gIjoyuXGb7zzoWvvnc5nILCUB61C8kZRSgvL0NLhxEayzOwa9culGlNEdrDG86unjBuK8HufftQ3iiDtSjIMUf24VRyiagYlZj348/Ir/3/5ytcbWb2jnB1dYGdrTXc3D3QI8ABe1fNw4G4EpiIHZ8TcxJF5U2wsrWFoZEStiLhaCyuQm5CNMrqgLL8eCQX1cLDxxm5sSewMzoRPfsOhtraBnbGBjhzJhoxqQUIDO4BKzMlGqsKsGbdWqSXnDVX7howMjaBg40RkpKSkZTXghBPFWbP/gk1hnZwMdbgwNHTsLCwgrGxMYzaFNC21WPvhu1wDw7BvrVzkZyvgYeHM06fPIpWIzU8xbby8/dEQcJB7D58BgqFiQgMPGGiVImgthr7D6bhhqmj0VFQDRNnZyjqC7Fy1XqUVHUdzNdGS1UFCmr1MKB/BNS0r53tRXIdg637T8PSXIXY40ew73AyRtwwHFmxUVDaOSLh5DG0d5ggJzsR2eXNIuB0Q8LePdiXmo7QsAFwsreDMRpx4lQ0GkVjrxLbzNpaiWIRicYd24X6NnvUFSUgVjy/oqYFnr4+Ytu5w8PZCge3bkJK/h+ncl19BnDzdEFZTgwS00vEvqWePhv4eBvhyK7DaDW3kfabhUwhktVmRO3cBn3PIJSf2otaERzWleYh9kyhbl3XlnNQKEqj9iIt5/eeRXMrZ1h2VOFQUhI0mhY4ODpDXzQhxmZG0LYUYu+h/Uir0EOoCJKdXN3g3zMUKce3Ir5UHLCVRYhNSIOBkQUszFRQmlpC2dyBmtpSxJxIgtKwRQRo0YClI6xEM75VrKsMtugT4AF7G7FfC+KwY99RGNu5wlskEd4u9og5sBOx6efp8btGPP16ID/5MJLSC1FUpkVInzA4O6pFsJmFzWvX4URqBYKDg+Di4gp3Kz0s/WU+cutF3WfYiLiUXLiGBMDCRNTZ1flYtW4NMko7s6KW+gbIDJSibvOGq4Md0qMP4Fh2M+QlyUjI6xwBMzaxhou3J+xF2aaLdAQE+eDUtoXYsDsFZiIgKYo/jjwRXHbom8LXyw3Ozg5oK29AbNQeZFY2o2d4LygVbSjKTMKeQ1FQOZgjfu9eZGs0cHDyRmNJNLYcToejixd8xfZ2sjXAkQMHkFnYhKEigVSIgKC8MBMHxPGZXVghfaZrKSRiAIz1DOHg7C3KggMKkqNFu7cXrXJjmBgaSu1Ge1sZSgqTcDKtAG4+bqgqL4dhexNORsagqroOzsHhKI3cg9TszgvYNFRVw8jKFh6e7nB3UiN633pE57eipSAJacWd7YaZhZPY7k6wdbKFm4cHfPzccHTzYqzbHgON3AQBfgHwFPV1RpRIercfwemUUvQe2Bd2ol2ic31iY6IQHxcLI4dwjPPR4t1Zc1HV3Cqt+1oyNbeHlUKDaNGOlMIJvqpUzP55ozi+7ESAXoQskWS0NYpks6gZhk3lOJCYjHaZCfz9rRF95CQ0pipkn45CeXVn2lKWlwUDW0/09PcQx74HLAw6cHzXBqQXNMKsox7Vaj/09zRFQnIWbJ09ReJrgJTE09AzUYv60Ate4niOP7IXMWnXPmiuLC1GZX0r/Hxp37nB08sHriYtWL9yFRLEfleaGiM7NQUWRvqIOxWLPBGXBAeEQlNfgMImc/TwUIv6rw6nRJt2PCYRDc3XLp6izgkbcbz7uDjB3NJWlEd/qJpLsH7TBhw7EQkT9xD4iuPDwcER5emxiIxLg4mJGcxUSlhbivq3vg0njmwU7W0HggJ9YGlkCoW2EUdPHBMxZRsC3BxQlJGAwmIRLwYOgV7hASzefBCas/rES0vyYGDpgRA/DziLY0JfU4ndm9cjuaAeAaJ+2rtXPF/bCkfvHsg7tRvxWaVw8/aDlzjOjEX+kBC5Hzs274drYC/RVjvC1sYcmSJpzK1uQ3tDhSgnyWjWjZa1traivkUDV79e6OHpjNaqDCzbsAbK4GHobd+BhLR82LvQhTKMkCbqhBoRT/h4e8PH1w3RW37BmkMZl+pfuOKqKyqlU2d6+PnCVdTVfv6+OLJuLnYezoGhmR1MlUYiuTdAW5uIYw7tQ7vaS4rrT0SmwyMgCB6urqLN6BAx4HFkFZRL0z0BLSqqtAgU7bS9lRnKc5KQlF2Iwrxs5OQXo7WNzr1rk+7rWzuJ8uor4mxPOFrJsG3NYuw/nQNzW0eYtpbiYFwxLCwtkRd5EIkZ5fAVn8/d3R2eFDdt24yiZgNYyepx+FiUOF6tEBIcDAtRfloairFu5RqcKfh7cZVIrXR//TmyDqGmpgbm5lfu6kl0QP0dNu4+aK/MQ2Vts1iZAhaiQTEx6kBpaZnImFUiEHaAvkKGqpJ8FFfWw8BQJZIgK9SJTL25TS4afGvkZGRDc4Gew6vJ2MIGapFoUS8JadM2Iy8nG1o9I5hbW6GxogSNImizc3CAlYUJWptqUdukD4O2OrTAUEpAKuq1IoCgIKhMNGwaqN08YK7Uh7axCQ2aRpSU18JebQ8L0YBoG2uRnVsAUVavKbr6op21CWpraqGRGcHN3gIZGTmQm1pBbWEoKrtq2Nnbw1wEZ9WVtdIUiuL0TNh6eaM8Lw1a0dDb2liivqoM7QbmIkC1hLyjVWyrLPEd26E0sYCTo71oFFpEeKwVFaQdtkYtwIJxt+CESh81FcUoLLu2iehv5IaiEnKFylAh7d+ykiKxnwAHOxF2V1WhobFVCjybKgtgILZHTXkpjIzM0NxQjZqmdri4O6E2Lxe17e1wcPWSLnldU1mO0qo6EXSpRbKtEhVDBZr0LdBaKZIXhTn0NNUorW0A9PRhL8qOpXhOa1MNMkWFdfbY6rWhL8qvPTqaq1BR3SBVpnLxGV1dzFGaVwwTWxEYmZugoboGChMlKvKzYeDgibaqQsj0lZCLRK1UHLfdwdbdW9qmVbW/J/PGpjawMQQKKivFdxHHprMHrFQGaGoW361NC42xEx65dxpa66rR3GGISbdNxpcPTsLunAYoOzQoLRdBrzGVVzsYiHqprLgKZlbGon6qEes2EPdLxHawhrWRDEVVoiEzNBENkhM6WltQWlSAalFerMQ2k65gp2lAdna+CA6u/V7t4uDsBm19kQhMNZCLsu7s7gZjBVBVWYay8iq0iYbWydkZZsZGItGqRHaeKN/ieLU00RcBTzWs1GpRNxlD01iD7JxC6cI/XYxMxLFOnRBifSVF4nvqW8IMdSis6LyKnaHSDGp7NVT0BIG2f0FuFhq1MljaO6CluhR1DSKgVpnDQW0HI71W1IiXaprLUNOohZ2jC8yNFOI4rBD7pR5qERTX5uVJx5qVjTOMZDUoqmiCta0drC3MxOauRG5hmWjsZdKVD00M9dBQW4XiklJoaHT6GvP07SHaDvpLBB+tWpSXlqKyuhYmNmqobSyg16ZBZZ0od/J2lFQ1Qe0otklDgyh3YnuWlosgTwNbD5/OMl7z+5w9FbVLttbQl7WjQCQaMmOx7dpqUCqOX0LJsNpetFuGnZP42rQtyM/NRkNLuyjD5lCL9sZA1obiwnwR8DaLT6cQ28tT2o9aTTNq67QikXbHXY8/D0Xicrzy3VoRsJ69568NpcoS1sYGouxWSOczOli0Sx0w5lZWUOq1oKnVAIZi2zVrFTBXdCC/QiTeMmNRn9uI47Uc+hbmaKgoRVPL7wmloVinm7M95KJJb6yrEWWjRBzDFuJ4lkOjNIG1aOO6Yp6WpgbpcQOVBWytLSETiQAdzy1t135bSOSirhbHk5WZifiMHaJOLkN+UQUUxiYiETdDQ329aEtMRGIv2htxjHl5uaNDU4uiyha4ONhB1t6CkuJicYw1XtugX2xPc2s7ONl1notEo8CNNRUoKq0Qx2UbVFYOcBExR1tLkyiTBahvlUnxBrWdTbUVaFeKeLAkEw2tRnAWCZFMq5WmBlO5aO0wgouTLarKmjB0wmiMGzMWO+e+hpUH///VgY1NreHsZAe5aGVrxWtLyypE7KKEu6MN8vIKRILQDmsnd2hrilEv4jpbOxGXmRiiRduO+uoSlFXWwcLeBWorE3Gc1qFYbEs9UZ6UouzRLKHWtt/rebm+IdwCeiEi2BPZCVGIScqEiYMb1KJ8dWlurBfrKEK7XCXVf4YKcTznZKLu7KlY15BUD4v6XGmoj3ZtE3Kys0TcrYCltT3sRFLVVFcHmYGI18oKoWfjgvYq0d41tMKart4sEsy66kppm9I+7SJXiH0mkjyl+G5VInZqEfEG1Xs1tXVo68zcpPKhVJmJbaCGob5MbOtyFJdVQtvaDlORL1gZtaJQlGFzkZQ1ijLfqOmAWiTw1C7RzIus3GKROFqJdl6OgsJSEWMZijqus91qbRYxdVYB/m6X0oVmLlzKdZmUMfb/OeD5tx/C7nffQ2w3Bqzsv0duZIoRE25GqK8rDPT0UHjmGFZv3ofalm4KtBi77igxdMwNGNjLHqtXrEJabpkISnQPMXYd0tOzwf+efwgtBaexfO0O1DVd+5Hdc9Hvs9FvN2o1LSLB4Pbln4yTMvYvpwelsaE0Wtj9VSf7r1HoG8BANJZUs2lbmv/Qs8cYk4njwwAKOZ3zoZFGnBm7vlFMoUR7awtaNBxVsCuLkzLGGGOMMcYY60Z/NSm7jq++yBhjjDHGGGP/fpyUMcYYY4wxxlg34qSMXXNKpRKDBg3CDTfcAGvrzqsrMcYYY4wx9l/FSRm7puRyOcLDw/HVV1/h22+/xY033ij9lhljjDHGGGP/VZyUsWvK1dUVb7zxBsLCwqQf8nviiSfQv39/KBSdv0vEGGOMMcbYfw0nZeyaoRGxzz//HMOHD5eu0Em3nj174s0334Svry9ftZMxxhhjjP0ncVLGrpn33ntPmq6or6+vW9I5nXHAgAHS6JmJiYluKWOMMcYYY/8dV+V3ymjkg7Gzubi44J577vlDQnY2+k2HlStXIjExUbeEMcYYY4yxf5Z3331X99efc1WSMsYYY4wxxhhjl4enLzLGGGOMMcZYN+KkjDHGGGOMMca6ESdljDHGGGOMMdaNOCljjDHGGGOMsW7ESRljjDHGGGOMdSNOyhhjjDHGGGOsG3FSxhhjjDHGGGPdiJMyxhhjjDHGGOtGnJQxxhhjjDHGWDfipIwxxhhjjDHGuhEnZYwxxhhjjDHWjTgpY4wxxhhjjLFuxEkZY4wxxhhjjHUjTsoYY4wxxhhjrBtxUsYYY4wxxhhj3YiTMsYYY4wxxhjrRpyUMcYYY4wxxlg34qSMMcYYY4wxxroRJ2WMMcYYY4wx1o04KWOMMcYYY4yxbsRJGWOMMcYYY4x1I07KGGOMMcYYY6wbdUtS1tFWhQdGhOHm6Q8hsbSlc2FLCd5+4E68u2gfalJ2oN+AwTia29z5mFCWsh8PzZyI4H63IqmkBh3tbdi34DUEB/fBU6/MRoVG98Sz1NeU4/XHJmDBhljdEvZPcurgGtw2Nljs499vk57+VPcoY3/0+bM34eUvF+vudcrZvxEzbngMJzOL0KFbxhjamnF850rcP30iQnv3we0PPoMT6aXQ1hdj+ffP4sX3vkBpo+65f0Kbpg67ln6Ax16YhfLztEnsn6ejLgWTIgbghVmroBX3M47twgMPP4O9MWfQ3vkUxjppKvDVS0/g9e/XobqRSguw+8s3cPtLX0MX6f4/nzw7GU98ukB378Kq8jPx4aPTET7qVqzZe1Jqz/b/8hHCQ3th4B2v4fdo+QI62lGSlYAPXnwYgwb2w/jJM7F0x3E0aVpRcupHDBwyDMmVuueybtMtSVnRiZVYcrgI6Rkx2CkKl6SjFQXZmSisqBXtZS2SkpNRr/m9ymttrkN2ZhryUvZhV3wx2kVStn3zNmRl5yA3vwSt54m42tpakZ+TivLqv9C6sm7XWF+FitpaBIb2wcSJE6Xb8N6BukcZ+6Pi3HTklZTr7nVyGTQeP6/8DGHu9pDplrH/ug5E7lqGF994F8Xtlhg9fBAy9i/DnTMfQ0GDFpWlecgrFG3KX4i4qbOwtqIQOXnnb5PYP0+HSOCTT53A+l+/xa6YIrTU1yA7Oxd1jZcMg9l/jYhjS/JyUVBahbb2zgqgtrgAGXnFF+wULBLtVm7xH9ut82nVtKAoOx/Jx48iMTkFteL+zj17kJMbh+TM/Et2EFC99MlrD2LJ/mSE9hkAw9osvPC/J3EirRiahjIkJ59Bc6vuyazbXPukTGTr879fgKCbp+GhkYE4tG8vKlsuv/UaOyQcB7cfR2tTHqKjatG/p4+0vK40DR+8cB/cnOxh7xmML9dGSsupAW6qLsZ3HzyHm+76H06l5ODwqu8xKNgHzp6BePnrpagXSeDKr9/CtAdfxOmSBsz/9BlYjrkHHR0deHxyCPqPGI/B4YEYOP527IlMhu5YY9eAub0rps68By+++KJ0e2TqOGz7+hn0HvsQSprbcWr7Ctx06x3YdjQWh1Z+h4FB3nAR+/WVb8R+/StRFftXydi2DCN6TcWhlHysevl2GIePxL3j+sE3pD++XLIDjRw5//c0l2Pf7iNw7j0D3307B59+Ngu79uzGr/O/hFrZ+ZSEYzsxTZQTr8AILN4VA22rFuu/eQUh3m4I6T8aP63bJwIYLY5t/BXjB/QUbUkPPPXhQrS0dZanjrZWnNq9EpMmjMWPa/eiSct10T+ZXK6H2uoC/Dr3J5Q1tumWirij+AyenDIKTrb2mHD74zienIp5n7yEe596G+nF+Xh0dCiCJz6OVlFW5rwwHZOfnSWNtrF/N01TA6qrq1BVVYWGls4h85a6ciz/7n2E+3kjuM8ILNt1Cq1tv9cL8Se24tbRPTBy+GgE+Hrhrhdnobz23AEFI/i4uorlDchLOolDha4Y2NNCeqSloQqr5ryLngHeoo4aj6XbTpxV73SgMuskDsa148Nvl2L2l7OwbOVKbN60DBHe9pDJRLXYUIsPnpoGLy9vPPr6l8ivakJB8hH8b+YEONs5ov+Y27DtVCbatM2IFHXbLaP6wM3DFzMfeweZpdVoq8/F/yYNgoPaBr0GjsfCzUfQ1FSNxV+9jp7+LvAJHYSfNkVz/HwJ1zwpaymNw9LNJzBq1ER4BYWgPPU4jiXk6h69tOBB/XH6xE6kHt+OTM9BCFebSsvLy6ph7zsI337/I0Z5y/H+Tz9Ly7XNddi2eh5WH8rE3Q89Bj+TUrz+3hyMfPJzrPjhVRz68Q2sPZItPfd86Jgxc+yFZWtXY4izFis27EZxPVer10q+qHgeuP0WBAQESLePtyYjYtJU2NWfxp4TCUhMjIWdizccDSvx2ns/YNTTX2LZD6/g4I9vYd2RHN1aGOtkWN+K537ZgI8fG4/dKxYhJqNC9wj7r2htqkdVQzUc3dQwM+3Mwsxcg9Cvh/NvDaK1Zzi+mr8ct0dYYf2q/ShP3o7HX5+HBz/6GU9P7YPNC37Ant07Mfu7JQi5+XEsmfMq1r32IJaeKBav7kBG3CF89tVc+A+fgSljB0Op3y2TUtgVorKwwk33PIDqlP1Yvf0otFIw3YEVX7+B3ZWuWLlpLYIVGZj1/Tq4BgeivaEUyQd2Ira2A9lHjyGlqgL7o+Ixctho6Heukv2Lbf/+dQwI7ynFLE8u2CKWdCA5+gjWbjmEGc++h0dH+eKDj75FxTmjrU0i35947zNYP/8TxG9dhN3JVJ+cTR++nu5oKivAoU2rYR3oBi9rF7G8HfkZsZi3aCumPfMx7h7tiQW//oqs/NLOl3V0oK68AK2mxvAS9R5RWjkjtIcXVIadJVJuaIxJj7yH+V++jPwT+3H6VBy++ehDVDqOQkJWBl4cZ4GnH3seUYmJmD//VwTf+BQij26BYd5WfPHzduRHrcG6k6V4+/tVeP+Fu2Eq1yJ61wb8vDEaT4mY+5P7IvDso48gvZY7qC7mmrcUxzYsRnItELnlZ/ywZCuyc1JxXFRaTZfVY60QiVdf+JfG4PMfN2Jg7z4w1acC1YaqgizsFhXj5n2RaJHpo1rTOQ7bWF+DrMwE6OkrIe+Qobo4HWWN1dix9Ad89M2vojV2QUuV+EBCB6Xw9H879YR1fh6FWL+rrzucHNRwc3RAbVUV6pv4ZIFrxcrJGw8/+TxmzZol3W4KdYLKxh/D+nhh06/zEZVaCr9eETBrL0ZZQ43Yr9/h428Wif3qjJbqzv3KWBe5eyD8HG3g6OEFZVsdasq5jPzXUFtgZmKKovw8VFTXiXilDSUZiTgZE49GbWe972BvDQcHd9g5GUFPBBfl2dEoFsnc6p+/xrJNh9EmN0N5Riaqqkuxe/1ifPb1Ipj5eqCuqEq8ugXF5bkoKKyDUq4Hma4tYf9cMj0RDIcMxsT+gTi0awsyyqjeaEVa5hlUZZ3Ax+9/hKMptTARS93d/WHc3ow1q1bDIXQUxrsWYfHCxThTYY8h/X2l9bF/t15jpuO9jz+VYpZ7hoaJJW2oqylDdkIc1iz6BWsPx0NWr0HTOVWDhaUazmpn+PgFQKUU5auY6pOzyPVh5+0PveYarNy8Dx6+YTBUmlHQiubKQsQnZWD90rnYciAW1Vot2kXd1kkGIzNb6GkakJ6Vi9b2dtSW5iMmJhYVtc1SDaWvUCA4wBcqC0uYW7VBW12EjOJqBPbsCSNDQwwaOgINpalIyC5HZVMdPNydYOfghSAfNXKy4uEQMgnTbwjDmh8+wlJRR1bXtiAjNx9lJRn4dc5XmLvhJLxs5ajiQY2LuqZJWUdzOX5dsQO9Rk5FgKstPDy90dPTBYmRJ5BZfDnBkTkMVQ7oO8AaK7YcRcSAfjBWGorlbchKTURNswpD+kXA3FB8LVHoiLEoiLfc/iSG9rCRejbrFSK5srHD2OkP4/kn7kXfiH4Y2N8fBkoj1BXmIvrwPiQkZ0Cr7SzMba1aZCTGYe/eA0jKKYGjsyPMjQ2kx9jV196mRV1tDSorK6Xb0SPHIFcao/+woYjdvR6ZdQqE9woSlYM33Gxpvz6i26/9MbCvt24t7L+gQ/yXGn0Y3377rXRbsXY3Cs65WoM27wx27N2PyFNxkFs4wF7dOfWD/XfoqawxeMBAVJ85htlfzcLs2bPx1guP453vVuD/xQu6ExGtXUPhbWuNyfc+jvvvnIahg/oiYnA41A6uGDP5Djzz6J3o1XsExgz1Es/WR0jEWDzzyFQkRx1CVFI2dLMa2T+YsaU9xt58E7zURiguo2BZjsAeobD36oNnX3wBt9wwFEPGDoGHlw/8HFTYfygKnkHDMPGmYfjlqy+hHnAD/GwpXmH/dq7BfXHrbdNx++23Y7C/m1gih4WNPfx698XNM+7DjJvHY8q9N8He6I/jpnXVxYiOPo4du/ahRWaFEGdr3SM6RnIYOrggyK4NqamFCAhwhpmpuXhADyorERuH98CNtP5bb8LMG0bB3tqy83UyGWy9wjHExxJzZ32Ar7+ZjY/efg0vvf+1NPXwfP1GchNbhPiI+PzkIRw7dhRrN22HS2B/hHio4Whth7ioE9i3dzui0yoR0isCzQ2NCOo/CnfefiuMajKxevk6tBtZw9HNH3c+8D/cP2UsBky4E4FqPgYuRv620NLSAiMjI92iq6epNAXbDibi/jdn47kHpuKGG8bC38MWBcXl8PT2QktFBewC+6C3mxIxqSUYf9NtcDRTSK/VNlYhM68eoYOGwNdSgdwaEzz40AygvhAdFu4YPqw3mmqKUFHfBLWtBWQGDrh53AAU56YhdPhMDO0psvncYrgF9kUvLzuknElEfl4h7AL6YFi/XlAZKlBVko+axmboy/VEwffG7WMGY/vKOaiR2cNMrkG7iRNunjQRPi420OOrBlx1tVUlyEhJRlpGIVJSUjpvVXJRoY2Efkc7Tu3dBsug4aICGgsrS1uoLYxwJjkRBWK/2vcQ+7VPCAwVvKP+K7LPRCMzp/S3slLbYgwvJzUaW/UwYOxAVEVux4aCFgx2MUVOeROGTLgZg8L8YCDnMvKfIpPD3skJ1qYKJEVHISouGcZOgZgybRpCvW1QVpQHmYkb+kaEo6YwGTIzX4wcNRKO5jIkn0lBdX0LfEP7igAoDHZWBsjJSENmVj7UPQZi7IAg1JcXoE3phZl3TERTSTZajW3h4+EsyhlPYfxHam1EXGw6wsfeiIgAN6iM9dGiZ4xRI4ehb69Q1JZmIyM3By0KMwwdOhROdjaQt9ahskEPN02djH7+djgRn4cZ9z+GcBF7sH+xDi1yM7Jg6tYDfYI8YagvR0VOOqpNnHHruOEwUrQjJzMNpXVa9B0wBP7uDshJjYWJaxh6OBjg4P59MDRxQZWIhYMGTMQtoyNgbNAZA7c2N4lYuRj2fr3Q090S1bDBrbeMh3FdEaoMnTDz1vGwULYhM1XUUY1AcO9+8Pd0luJZYmBkCk9PF5TlpCIyKgZ1emYYMX4ShvcNgry5CAnZzZh4y20w1FSgoroBQREj0S/UG1WFWchIzUK51hS3P/AgBgd7wNrcBEW5ucjIzIWNd1/cOW0STNorsXfvYZQ2NMPU0hEDh4/EmNEDYCNi59T0LOQUNyB85DiE+zjyRbcuQtYh1NTUwNycsu2rS9NQKRKrEjh7+sPEoHO3NDXUorisHBaWVmisqoTM1Ab2qg6kZhXBxctXPK+zQNHVF/MLK2Bpr4Zhay0yChrg7eeKxopi1GkUcFBboaqU/pbBzkIfuUWN8BJZfkVBFgzNnWBh1I6i0kqYWNrA3FghTV2p0wAuru4iIZOjvVWDMvH6xlY5lOLAqdLoIcDdCU9O7Y22oPvx+r3j0WFgAjtbayg4I7smGuuqUFRUgD/MFjUyg5edAVbMW4A1W/di4qPv4MFb+ktDvh1tGhTm56JelAFnN7FfDeSdr2H/CcV56Siv+X2OvlJlASuVEapqGmDv6ohtb92NR87YIH3uS6hq7IDawQFKLiP/We3aFpQUi4CmvhkWNmo42FrQQlSVF6OhVV+0KWrUlOWisc0YTmpr6Sp8+Xl5aFeo4CDKjpG+HjpEu1FcVIjapna4uLtDqd+BuspSUb704ORsi5rSQjR1GEFtawUFJ2X/TGK/Z6TlwNLFQ9QnBqirqUBJRS3s1A4wMzZCQ1Up8kvKYWbjBLWNuRRwNtWKtqusFrZOaqj0WpGclg0HD19YiYSO/YvR1RcLCtFqYCrKggXkIlasLSkQCY0CHs720DTVo6SoBO0ilnRS20BfIUeRaLe0+haoyTmJT7/4EmNnvIWBvZxhZauGmYnRbwkMXX2xrKQEMmMzmIoYtaiqAc6OamiqSiDCYfiJBKy1uUHUR8Vi/aKOsrOVksKz0ak5ddUV0kivgViP2t4WRiLp0zaUIT2vAh7e/uhoqUVFZRXMrdQwpfIu6rPC4iqoRB3pZGchfZ52EWtVlJWiuq4FNmpHWJgopYuFNFSXiWOhAvpGJrC3t4fKSB9a8Z0LCovQKupNd9EOcz/5xV3TpOyfaNmc9wC34ZgxfpBuCetuDRVZ+GXOYph498KE8aNhb3b1R3nZP9+pNT9hUbEZvnpsum4JY4wx1v3yM+OxfecuhA2dgbAAB91S9l/DSdklNDc1AHIDGBlwD9f1gnp7GhubxG4xhKHYL9zxwi5Ha0sTmttlMFFyEs8YY+z60d7WihaNBvr6RlAoeFT9v4qTMsYYY4wxxhjrRpyOM8YYY4wxxlg34qSMMcYYY4wxxroRJ2WMMcYYY4wx1o04KWOMMcYYY4yxbsRJGWOMMcYYY4x1I07KGGOMMcYYY6wbcVLGGGOMMcYYY92IkzLGGGOMMcYY60aclDHGGGOMMcZYN+KkjDHGGGOMMca6ESdljDHGGGOMMdaNZB1CTU0NzM3NdYsYuz4U56bh6NEjqGrsgJ6sc5m9dy/cMDi0886fcCbmMCLj06Ft64BM/GdiYYf+Q4fB2cpY94yzaCqwYkc8pt04TLfgj4oy4qC1DICDSRsKc9Nh4RIEc0Pdg6zb7F7zNYLGPQW1SrdAU4fjCRlwdXGDo62lbuHF1RakokRmD2tFI7Kzs+AfPgDGct2DOk2VudiXXIkbBvbSLWH/LFokHTuOU/Fn0KqvQAfkcPTrhVH9g1BVmofk7FoM6Ruse+7FpSdEQmPqCl8XOyi6Kin2r9LRUo6FPyxGte6+obEpAnr2Qe8Qf5go9XVLL629vR1Nzc1QGZ+nzbmAwsQo7EgoxpSbxyB690rUmARg0tBw3aPs+qNB1M49SMwtQLu8s+EwUtphwpQJMFNId/+2rDPx0MgN4eHlC4NzhlVam+tRWlYJA3M7VOWchtbcA77Otn+pbqotLUDs6ThU1DWgvUMPbgG9Ed7DVURP57dn7SKETrwTVga6Bewv4ZEydt3KSTuN/YcPoKKxDR0dHb/d/orogxtxPCkTmtZ2aR0FKcexcM1utOse/4OWYnz18zrdnf9v/4YFiC1uQWNdFfZsXobSRt0DrFut+P5Z5Nbp7uj82eKSvmMV9iSX6u6dX0NxCn7dfFB3j/3zaHBy+0FEnzwDLRWQdi3WzP0I0YX1KMhNwYYdR3XPu7TTx3bhxJkcaNp0C9i/TkdTAT556RX8tHQdtm/fhhW//oL33v8GcRn5528/zqNDJGRHdq7Aqh3HdEsuT+aJPXj3q/moamrB+vmfYO66vbpH2PWpCXuWbkNKaj7adPHKX4tYLiz51DGciolBy3kKX0NJAU4eOoSM0vrOtu8vvnlDWQ62bN2OhMyizu/R2oQdy7/FrlPZumf8f9L7sb9N/rbQ0tICIyMj3SLGrg8FWUmohwpTZj6E4QPCERoaCl83B5SmHsH8bYmICPFBWVo0jsZnQF9fjm2rF2LN+m04GhUPe59AWKt+77KJP7ELtqETcMetk9CndyhsDWqwYG00xgwNwMHNa7Fi1Trs2HcEZk6ecDBpwbx1p3D/1FFIjz+O+fPmYdf+Y2hSmMK8LR+ffTEbyTmlkGsq8OuiJZCZOMBOpYctKxdj3aYtiMusQo9gf3Q0FGPRj99h4/Z9OJNbATtHF5if9ZnYlbXp13cRfutbcDLRLdDU4WjsGVha2WDX4nlIyUvAmtWbEXsmF55+AagpSMGq5UuwcdMOJBU3IlAtw9tvvo9YkWXb2NiivjQHLj7+SDm6FQuXrsSOPYehsPeDLUqwNa4cIwPtsG37TtTKTOFoa3HBHkR2vdEidn8i3Hv1w/R7pyA8yBOb5n4D3/F3wLixAHHp1XAz1+BUai6s7JyhbMjCKz9txfBwf+xcNQ+LV29BVHwajK3sUJV9GklpuYg5fkQ69s1ce8LFpmuolv0bdDSXYN6cVbjljS/x3H1T4Wuhj0NH49Bz8EB42Mix+JtP8dnXPyIxvwZuvn5QiHp/zaI5+PzLb7HtQCQsXQPQmrIG9z35FnacSITM1AyNWafw2adfYPnGnahXWCPYxxm1JZn4/pP38eOvq1GmMYCbmwvKE49jXXQB7r3jZhzf+AsqzXri1kEB2LdpCT6Z9Q0ORmfBxdMb1gbVeGbGfTickYVtm7dB38IaO5d+h6+++xkHT6XA2csftuYqyLiSuspacGR9DPpPuQW3TB6PcBGzBAf5Qk9Tj6iD27Bg4VLsPXoK+ua2cBD1xPevfw7vkYOg31iNmEM7kF7YjpTk49I+3LtjE/bElaJPn2C01pVg5c/fYd2uw4g5FQ8rFy8EB3hg/6rFWLFhC3Zs34VaPdHwlZ7BN3MXo87IBnoNIqFSqeFiqcC6X77F4o27EBVzBqZ2rtDmnsahAwdEzHMA69ash0blCR+Xrtkk7Yg+KNrEvGqMu3UGBvcJQ2CPAJi1F+D7ecfQv7crjh06gBZLV9jq12L2gk3w9nDF4U3L4BQ2BIfXz8PKdduwe+tm7DiaCGc3d9hamurWzS6FR8rYde3ItlV48I7JuOnmm6TbL/szoKeyQtbRTSho0CIuOQ2lZRU4uWU5ivRdcOu06RjdxxFzvp4vQq8/itq/BfN+/gk//TgH385ZitABfZCVlIRsEZDfcNsMDHKTYdvuZLS2dnZBVZYUYc+27fDoPxFTJg7E8T17UdyohJ+nA/qPuxW9Qnqip6gYQ3v64qiopJqVDpgy4w441JzAgi1JKIjbiOhyG0yfMkkkk3aob2iQ1suuEW2jCJgzUFFdh6SoRUjVeOA20Vg66hVh0eptiIyMQSOsMHXmFDgp2tBkaI0RQd4I6DscdgZapJ1JRF5SJHaczERI/9G47YZQ/PTlj6LZBeoqCrF901pUwhJeLnackP3jFOOXb97CFFGn3DBuElJN+yPQ/vdpZRUl+cjKzUeTVtQFLVXYF5UATU0GVmxJxq0zpqJ/iC86murRKp5brjHGmBtuxLQBTvh+ydrOFbB/labaSiz86HncfffdeO2Ln2EfHAY/Dxfs+XUW5h+pwCNPPApZ5j58M281Tp7cjZWbD6DPqFvQP8gJqWmpsPMfBk+1EsERgxBiKcOCRath4h2BKaP6ojAzEw3tHVj9w/uILDfHtElDEbN7DbYdisL/G4DtaEVq7GER9O5Dv7FToKqJw5zFm1BTXY5da9ciIU8Pd02fhNK4vVi9NxmDJ90myrURsvJKpREPdi3k4fM3nsZkXcwye9lR5GelYOf2kxgyaSpuiHDF2vXbUVBShsh9x9AkXtGmbUZRTgpy88tx9FgUagzsMGnqTDTEr8TRrGYk7luFBI0zpt48Gs42lmhqBIoSD+Jwnhw3T56CW28ahj3zVkHf1gl9w8JFItgDDSUZyCmtQuS6H7CzxB533T4VPT0ssHXlEqRk5oqEPgM+If0wY0IoPpozv/Ojk/Zm5KRUwVihhrPavDOR19OHf79xUBTsRXZRDbLS01DWKGq/tkZEnU5GY3MLog/tQrOeIfoMGYfbJk+AtYUxTM1NYWXJp0b9GZyUseta7+ET8OnsuZj3yzzpNr2/mzjQ1ejvZ4HtO4+gvK4ZFvZOyEw8iW2L5+Cdt97Cx1/Ox4m9h1FK0fNZ5HIFFAbiZmyO6U+/j+fvHgMfXx84WsmwbO63+HnFRmRmVUhTDmjcv66uGDvWr8C8rz/BOx9+hXVL1yGzqh3mpsZwcPOGrbUtbKzMYGqoQWr8biycPxfvvPkm5m/cga07dsLSOQxVkYvx4ltfIi2/EhZmXUM47NpzxXgRAPkH9EBQRARK4lPh4GCKE3uW4u2PvkIZjGFsZApna3NYifJkYdx5rkhaZgYMbR0Q3CsUwb3H4NvPnoFC24TorUuwdl8i3H2DYWOq5KTsH8cW0+97Dj+KOmXxypW406sQXy6++JRUuUoNd1Uunnz2BeyNToWRqSXoNJHg0BD4+vkhIjQIkRk5nU9m/ypyA0P49uqHYcOGYUC/IKRG7UFkQjL27N2Mkzvm49bJt+GzeZuRcPQ0FBZOkDUU4v2338KuU/kIEG2M0tIZtpYq2Ng7ICzIF86WwMLZn+D7Vbvg5OMLYz0NdmxeivW/foE7H3xSJG1bkJKUi6ZzsrIOEbznpp7GotVr8Nwj92DW3OXYtm8fmpoptAdCRowWdVUYfD2d0V4UhQ/fFYleQSM8XOwg52Gya8QRj7zwNubqYpZ7bwxBRWUhclROGBgaiN6iDClKy1FXX697/h8prW0Q4O+NANFWqS0MUNHQikiRqHkOGo6AHqEIDQuFvY0J7Pz6IcKhBct+/Qmff/E9krJqoFCaQG1rC2sraxgqOsP7PQf3Y8iECfD3D0BPGvHSb0ZaRQNsvb3hFRiIkLAQ1JWWSc+V6OlBX18PCln7H2Y/yuQd0Gs2hgijLkhPTw57tQNqC/NQ32GJKdOmwM788s+hZJyUseucgaERzMwtYGHReTMSlYWhsQn8+w3B/hW/oknTDr+gHuJ51nj6nc+xZPkyLFkyF6898wCszrn4Rujgsbjrrvtw350z0DdENIRyLQ7t34Oj6Y14+vX38e4TM2Fj3jX1SCYqGCVC+o7GdwuXYtmyhfjh6/cR7uMkNW500nZXhSWTGcDOqy+ef+tT8byl+Pnb7/D0fZNQX6fFE58twtfvPYqckwewcdNeaHSvYVdHe1sb2nS39j/0DFehtq5VPN4KbUM9NIZ6MLFxwysffov3nrkbhxZ+jG0JomESccvZ5wGYKAygbdaiWaMV62vD4e2bUKdnhL43PYCHZ4zCkW0rUd7AJxT98+hBqTKR6hRLS1sMGuiNvIxU3WNSMUCrrhw11FVToUB7bQX63v4iVs39GuYN6Vi5ai2K6tthrDQSdYUeZOLW3M5l4d/ISGWGG+97Bu+99x4+eOM5BDrJkZpbBpmBCoNvfwt5OVnYvuwn3PPQZPTvNwq/btiN9QtmwaYsGuNufBzVos0wMDKR2g1jtQ/e+moRDmxbhfEhZnh6+i3Yld4CcxsH3P/qj0iPj8HSBV9h/Oje/+8iQxQwGxgaY8i427DtVBp2bliI9564D+Ymne2WgSiLkOmj55DJWLP7GBZ8/jKqTm/Ewy99gcZmbn2uDTlMzCxgbW0t3UxURjBQGMK0vlnUD+1oa2wQbQjFDaLOkGmh1bShVbQv9RXN0qsN9A3ETSHVQfQcojYzQXNtA9rE67UtTWhr1WDfqh+wO1eOR597B999/zG8Kfeh9ov+6/j9hDMrlTnKa2ul1zZpW8StEUqFHPqGBtCT02cQtz+0lUbwCrBGlbYM2XlVqCtKxbajp5GyeyWqg0bARbwPrb+tVbSl4rtUiX+73k3UkshMPIHNW/Zi8KRp8LU30z3CLhcnZey6pdA3RHF2KtYuX4j5C+d33jYfEqVWH1Y2HrBWtqBaaQsPK2NMumkMNi5fjo1btuL7j9/FsRoNlLr1EEOlCoYGnRXdb0RDaajUR2NDGY7s24pftx9BdaMIwGRymJupYGtrjwBfJ8z9fg4WzZ2D1SdjpAuF+Dk4I2rvVpQ3is8oN0RybjXcLa0Qu28LVq9ZiXc+/h7txuaQtVXgpy+/wsnEbJiq1XB0cpB61tnVoTKzwrZVunKyZCUik7JgJIIUhWiA6ATs2bO/waaNG8U+2oGxN01CQWoSli9ZjtNpBTBz9YOXnRIWfo7IO3UERVXNUBobI6BvP8gr0rF13SosmzMLK6JqYSYaM1u1A/r06QN74zYcOBaDtrPbNHbdM1S2Ii5yH36lsvLzt3jjm0hMuW2SKCsGMDY2gqeLM2py0rF5/UrMXbUVjgb6FC1h4y/fY+OBGLQbWcDF1QnW5ioY6et31iuiXrI05V7hfx2ZAnrtLXj39sFwdnZG4KCbEFNkikHBfrj/nsdQEr0BL779Dj79eSGgr8LpPSvx2P0PYeH6fWiEASIGhMNYlBAvtTNSY45jzvx5ePHph/Dh7IUoKGuCW0hPuFoqcecdjyJq+3w89/a7WLv3iAiYjWBopISluSn0RFtlbGoBc3Mr+IYOgJ9xDWa/IZLEzxahtkMfctFWWogEQKkvly7KsH/jPNx734NYv/cUOhQm6NXLG3IRgLOrTQalibGUVP1GlB8HJ0+4mxbix7mL8cN3c+Ho4wc7WxcMHGyGX2YvEUnMRhzKLIGhoT6URpTEdb5eqTKFgVyG8EmTkbT6WyxZsgS7dh1DVZOBSPws0dxQjJjIgyLO+A5FKrF/DY3QIatH1pkUtLQrYCg+x+R778WRbz/A8rUbsH79NnSY9kQvV0sYGRp2jp5SvGP+x1k8Qf1HwdWsDUtE3bjjRAI2f/Y0bn9lGe666xaYWFpCKW/HQRHrzF+9Gk31tZDr6Umfp6WuDCsXzUGdTQA0hQnYc+A4SiprfuvkZJfGl8Rn163yohxERp5AWXVnD5JE7Y07RvZGVmIMDh45BLdBd2JEsL30UFlOMg6diIaFay8M6RsIxVkZWFZyNFpNneHh+MfLw7Y0VCMhNgpF9Xro5e+KrDINBgSpsfNYBsYPj0BzfQ0ST0eisE5UjL17w8HGHJqqQmzZtRe9ht0EvcpUZIuGNSy8N8qy4hGTkge/nv0Q5OmIjvZW5JyJkZa5+/dCkJ+HVMGyq+PYzl+RVqy7Y6BCUKCfaG8UcHJwxOxnbsfoFz5BadIZBPYdggBXW7S1NOJMfCxScsrQI7wPfF3V6GipwO7dR2Hu1gNmonHz7NELHfWlOHEyEvVyK4wYIpI00RCezKzB4FBf5GUkobZFAS/RyBrp8779Z2hFRmwMouOSpfM59JUq9OwzDD1EoFJVUYyMwnr0DvFGYeYZxCTlwD84AIV5VRg8sBcqCjNx7EQsTB08ERYahKq8M9CoHOCutoaiuRRrTxVg8uCwzrdh/wodmipsWL4Jtbr7BiozBPcMh6+HM/RFfV6UHovD0clwC+qP3j3cRQKnRX5WKqJOJ0LPWI1BQ/rDyliB2tJc7D8SCye/YHjY6CM2OhqVDXKEDRgIDwdLkUxpkZZwEsmirPXo1Qc+LnYoS0/A4bRyjB05EMnHtqPO2BPDewegvDAHUbEJohx6IzTQB8byBmxcthEewych2Nkc7dpmZKUl4XRiBkztPdAvIgSmSr7I1NWnQcKRJFh5uUKttjpr1KMDNeVFiDoVjQ4TB0T0CoS5yghtzbU4tHs3tKaO8HWzQBtEYqOpgamFDZztrJAcfQhKj/4iQQIKMpMRn14EcwtbODnbi3bNCgknDiNF1FcRA4egoSAJLj0iUJOXjOyKNpgZtcNc1FNUN9UWpmL/idOwcQtERGgPNJdko6hZJnUymOo1YPOBJEwc2U/3WXUofklPRExsMpS27qLNVOHI0WSMmXob9OsKER0TDxNHVzTXahDeyx+nD++CZ7+hiN21HsVdMzOVVhg6WHx+8Rm4dbw81zwpizm8FafOFOruAZZqV/QdOBjOlmePazB2Yc2NZVg9fzm0lq6YMmUSTA34cGcX98PbT2H4U5/C35J/UI4xxhhj159rnpS99/BwfLIuAxGBXtJ995798ehTz6OPh5V0n7FLadU2Ii05DdZuvrAz52SeXVp2SgKsPXvAVJ+n8DDGGGPs+tMtSdmCTFes+ewZ6b6RiRkc7W2QdGwP1m/bjaoWfQyYMBV3TeiP2pIcrFqyCDFZ5QjqPxq33jACFnq1WLZwPg7HZMGvz2DcMWMq1Obc+80YY4wxxhj7Z+qWbuOS0/vw7LPP4tlX3sGqfbHoaK5CblkN/EPCYFybhDef+RR59U3YufwHbIkuwoAwfxzesgq7T8Zjw4KvsPp4GabNuA1lxzfhmyVbL/tX9RljjDHGGGPsetMtSZmhuS2Cg4MRHBggnQDYpm1E8qm9WLx6Iyoam1GYmY6yOg0OnTwJdUAobrv9Hsz64hNMGOCOEzv24dDmhXj4kUfw87q9OLYzEnW69TLGGGOMMcbYP023JGXqnsMxa9YszPr0fdw5cQgSo47jWFYzXn3rAzx1y0gopCvUyWCgp4/Gtg7I21sQe/IgTiRkQ2Ooxdi7P0dyUhLWLvwa9z8yAXzdSMYYY4wxxtg/1TVPygyNjKEyNoJcLpd+24B+f8Pezg7G2ir88uO3ePfXnVAq9aBvYITJk29E9rbFeOTxpzHrx9VobDbA7Xc9gPijv+D1t9/Ge198B5mBtW7NjDHGGGOMMfbP0y2XxM9sscGtI/volggdrUhPOIXTaaUID+2B4/sPou+k2+Fq2oH0pBjEphXCLyQcgd5u0u+C5CSdwMFjKfDpNwz9Al11K2GMMcYYY4yxfx7+8WjGGGOMMcYY60b8oz2MMcYYY4wx1o04KWOMMcYYY4yxbsRJGWOMMcYYY4x1I07KGGOMMcYYY6wbcVLGGGOMMcYYY92IkzJ23fo/9s4DMI7i/NvP6XQqp957L5Zk2ZZ7r7hhML0FCAkBQkgPCUn+aRASQiCh92YMBmNccO9Vli2rWpIlq/feu3T97ps7nQuEJCQfGEPmIRtrZ2dn93Zm531/M7MzZrMJg8Eg/rXYQ6xYMOj1mCwXh0kkYDTo+XixsGAymTB/5rJiwWg0oBfly2g0ib0x/rM0JF8FzCYjep0Ondj0elHHyPyV/Bts9kjUDQajUdQzY+XFIuoGa/n5PEuPxWIWdk+P3mr77Nexlled7dom2/4/IuyiKMumj9lKyaVH2ByRR5+sT6xl57PmjbVsnbNDJrPZHvrpWCwmEfdfx5F8tVA+IrAaJhcXF3uQRHJ5UFOaxfsfbkDlFUZIgA8KEWYcquepR5/GMWkGEV7OYxElEsEHL/0Ez5RVeJ8rFrpBjuedQalyxctdbQ/8dEwGDY01ZRw7eJADR0/Q0jWE2sMDD3dnTu4+jN7ZGV8fL1sZlHzV0ZG9ZzcfrN/Iybwc8k6XMYqS8NBgHB1kDkv+kaGeVjIO7uGdd9aTXVKDs9obf18vWjP38qfnDjL7ypl8Xh5Ue1M17775MjsziomIjMLf250Tm1/nqdffp7DPwsJJifaYFzPISz/5Jf3RU0kIdLeHSS45xiF27jiKo9odX28Pm70wG3XUFWdR16cmNMBtLN4/waAbpammnGOHD3HsZCY9QwbcPLzwdPv00jXcms/u3D5S4oLsIZKvOrKnTHLZ0tZQyt4P13Asr5xB3VhrUPHeD9h4YD+l3RosZhNDfT3U1dXR0dN/viVqsKed2tpauvuHx1owLSYGejqpr29kSKO3xTGbDHS2NlEnwgaGRVriv97eHvrFufWN7baeuJGBXlva7V29GEyyBfJy59j2V+gcte98gp6ODjSjQ9TX1dIzMGIPPYeFspPbePyZNRjcI7liyUKMnWW8t/Y96ruHKMnJp7mjC2sJ1AyK8lZbQ2fvoL1smUUZ7BblqI6uviFbK6e1pbu3o4Xa82VLcnlhpDy3EoPRjSmzZjI+3pen/+9+8tu06IVT1NHWTnt7O0OjOnSizDTW19Lc3mPLf5PRQH9vJ329vTQ2NjE4ohXVi3C6RLmqqqqybQ0iXGu09lyM0tbcSHNbl6g/xuqvzpYWcW4nbZ29oo6xBUkucyzGYd7926/5ye+fIPdMsbBJb/CbR//Gmdo2OotzeO3VHVhrFKtN6W5vobGpjRHtmJ0RJ9Pd1iTKRbWwUQO2ukAzMkhbWzM93Z00NDTQP6QZi2unt7OVnVs288Ira8itqEWvH2LNGy+xbt1rbDiSY6tzRob6aBBlrqm1E53BKM4aZccrr5Bf349eO0xzU5Ooe6xlc+ye6uqb0OhN4lwLo4NdNLd0YhR/D/Z10dbehd5gEvdZR1vXIF1t1jLbKW3ef4NJQ9apPFrF+/0PT0/k2/DQEH3d4vk3NdJj9U8uimQx6Tmbm86adz9kRBXA7OmTaTm9h98+9hwtg6Iu0gwLn2bIFndkqF/UPZrzPXIm/cj5+se6tXf3YpS9pl9JZE+Z5LKlseo0I731aN1SSIiOxM/dwivPrWdCjB/uk5cSomvlyMHDlNdUk3/6LD6hUaj6a9m466gwWDU0CAdI7RfCgBB3x9IzKK+uoriigcSU8cIJ38WxnBKqK0poFobINzCQo7vfp7yyjppWDZEBZnZ8tJ/ahhpKSmtxdPUkOHCst05yebLz3UeZeuPDhJ1rKBbOzMmiCvz8AsjY8gaVQkhVny2jsrIatb8oT572Os/Qz+OPvchVP/wt1y1MIzg4mIT4OLw9nHBQe1OfX4B/Yjyexh627DxMbV011bUN6FSeqDQdnMhIF+WqluLiCoJiEhmtzWWbcJ5qq8ccMd+gMNxdHMeuJbkMMFB4LA+9k5qECfF4uKppEnXIuAVXououY/072+i3DhPTD1OYn8uZs6VUVZTRqnEm2MOBPZvfo7J5gPKSXGq7NIT7unD8+EmqRH6fPX2S4znVJCbHU5Z/glO5hdSKtDu1SmLDA1n71G9p1JgYHLIQER2GSlYolz2jTRnc9+Cz3P/ku/z9kV+wYsF0/D19iE1IQFuRzdr9zfzwN7fTnHWY9zdt5XTBGTqH9ISGhtBYeJB1W/ZRWHia7LzT+EWMZ7A5jzVvvSrqkHYyDu8jq7yfmTMn4GTvpe1qbWD/nmyxbyZs/GRiXLt5aWstUW5VjIbM5fZZsezZ8iEHT2RxKjMLo3MgUWEurP/zM4TecBem8v3szSgjOi6OlpJTfLRjN7n5pymp6SR5fCJVpz5k7dazTJ07mYKDG9h1rIz4xHHsWfsrNqW3091QyMGjmZhcAomJDJQt9/8JphEOH8knfnyyyJNAe0+Znsby03RpveitL+D4sUwhpps4XSh8lsh44deMDe3Q9rVw5FAGfkkLuOOGKwgLj2TqnHnUbXmCMtVUghTNHCpsJm1cNIWZ+6nuBy9zCxllZqbHOrFj3xHqayrJOJZOr96ZhIQ4nJWygvmqId83yWVNcOJEFMPddPd00leXTXfYXCI9hYNrNtDT1YFW4cqElERq8vaRU9VKS+4+1h+pIiw+kbAAL3SD7RxNP06/2YN582aiaasRBlNL5ZkKkXYqUX4q8jIzqKjrpCo3B40wcHNnpTLSWk2vyYMJ4xNoKy8hK6tQuHKSrxRGDZW19fQNDlMhnKMmjZr5C+bjrGliy+4MW8+HjZEuTuv8SI3wsvVyWcvSi6+/zbG8Mgb7e+yRYN/6l2kmiIWLr8BXNcq+bcIBO51PVl4h3sFRhPi62Vouy49u5nBFD7HxMfh5uGCSLc6XIVrqq0qFU3uS9CMHEP4qXiro726nrLabcSmptJdmUtLYQ9qshUxJCub9F56isU/D2dKzjDj5M2NCDNki/1v6DCxavJjli2Yx0NlJeMJ4+utLOHToGErvEPzdjax77T16tAZK8naDbwKTxwuHSVrfrwR9jXn0K4JZsmAmLipHolOmc8ddtzIuMuC8A6XT9PHuC49xMKua9tpiXn91Dbll9Qz0dtHa0UVbQyXvvf4CO47k0tvZJOxJBgMmZ+L9TLzx/Bu0jHziWzG1C6kTYmmsq+X47t0ET1uEqJ5sGHQaOtqFrWuuZ/9H7/L2hsMMj471zOXsXssLr28iICENX0dxT2+9ybH8coaHWnnmd79k7+kWuprOciqnGJ3ZQkttKfkFojxr9JSePkx67lmixk1ENVjD62+/S/uQtHr/v1i/B+xqrqKhtZ/aqmqaew1Mnj4D9+FS3tudZ48lxH9fP5oeLb5+EZzXUgpnFi1M4Wz+GVGWRN1U32IL7myuo6mjh5G+OgrKWlG5B7By+TJS4sJROKgIDQvDxVEKsq8i0ixILmscXHyZEOpIdWs3+7cdZem1V9kKrcVsRq8ZpLG+ioKzNcLBNqMzWgiasoLrpgeSk3GMY5nF9LTWMWR2ICFlAklJE/nWPd8mQG1hZLCf0oJ8Gts6sDgohaETRk3vx4TJqcRHh6EbHaW9sYIikfaIdXSJqFj/2SfWkq8CPiy7YiHx8fFMnjmLrqqqC/np7EaQcYRRvRmF+M/NJ4i4yCC6hTDPL6uzRzJSUFDNlauXkxAXz6TJU3HV1OIbP4W05Diq8jM4lVtA18Ao4xbfyIxgMyeOHSOnqJKRUa09Dcnlg5qUyTO5avVqrrvxG9yxQM2Gbccwq5zxjolhYmI43Z39xCcmMj55HFPnX0WIrpD2YfD0E3XStKlMSh2Pq4uzKBkOBPt7sPfdtXhMWMntNy5huK+LztYW+rtaaOvVEejmjMakwNHRh+lTphAc5CeN71cEtXsQSuMwbd0Dtn3DSD/NrW0MC5F9DoO+l8LsctRuPvgGRRAXHoUToxTklzBscWP2smuICTIwOCDUv8DDL4AZs2Zx5fIpuJi0DNtHO57HVUn8hCQh7st5f8ceJs2ajYvaTxg+Iz0dTVQ2dhE3YRqTkiLQDQ9gsg+PzTl0kNYhLV4BQei7mqiv60Lp5IKLR4Bw7meg6f8n47vtRCfNYeXSRSyck0ZbWx0t/Tr7EcnngaO7D+MnTiI1JZVVV0ylpKjEfgRUrs44uDmg0Y4NUTxHZ1sfHv6+9r1Px8HJFVeFjnwhtiddsZq505JRyQrmK4nMNslljoLJMyZTlZvB0fIRlqYIwyTQj/RRX1OBe0gayxfPwV/tiEUIp9KcA6gSFnDbjdcQHeDIiTP1KPRGBvr7bWPo0ze+RV7pWfZkt7N0xTLhWKXiojjXk+GI0sHqlsPBA7vxn7KQRfOmE+rngU7apq84XRRVdNhaLXubanANChW5bcclkNvmBPLy+t2MCsc5OG4yK4SAiwj0sEewoiQi2J2C8lYsZiODPR30aN3obm4QhjSUa266lcm+g+w+XkNh+h7Cp6/i5muWoTL1k3+2yp6G5PJBhZ9/CDExscSPS8Lb0UDPgHCyre+/UikMowP+3q7CER9kVDjf+r46qvr88XcTtYSDA86OFw9HNbD99Sepd5vCN29cgberCje1KwFhEUyasYBFM5MY1hlxUVpE3eKMUrZgf6XwSlzGgjgTj//fg7z82hv8+ZHfcfd9P+Z4QaWwKWNxHJQeBEUFEJaYwoy0RHSGQRSaXvbsPoRR2Khls0XYRZ+yOihEORPFQKl0sP37D7g44ROTRLSlg/wiDbPTonFx9RWazDoUroDCxgEmCHHv5eJubS88z7Xf+w13Lk1hx6YNDKs8cPdyJiJ5GqvmpVBaXIV3qC+OSpUo0620trTQ0tLN0EU6rbQ4k65BDc31DXh6+BNwboi35HPBMNBDe0cXIwYzFSVlRMUm2I+Ae0AYoSF+VJ45RXPfCGcyd/Hmqy/x4p5mbls9A4tFgUFkltGso1sIc83ohYzTa/rZ/t5buMbPZemcyailIvvKInNOctnjGZ2Ga08uPlMX4+40VmRVrp74enmRsX0Nf37yZUZHjDT1DZE0bT657z/Gw48+Q35VD/OvWM3K+VPI2/s237r9Vva1qElLGcfEsEEe/d3v2Lgng/ZRMxptny3dc8yYPoWDax7niefWcLapHgdnLVqdHIZ2OWMdenjfdfOYN19sK27g5Y0HueCvuJK36yW+fdfdrM9s5647rrSJbxsKFVfd+yBLfbu5/5u3c8cdd3Dfzx9mSBXNygUzzkXijgd/R8k7v+XWO77Bc+sPsvTW75AWF0hZ3iEe++Mj7C43cdWCBCbOns/W5x/mL0+9SrdGJYT/BcMruVxo5YW/PMhiUVYWL57P2kJ/Hvz2cvsxKwrmr74ZS1MuP7rvdm5/4BFu+vXjhLraD19Ec+5mfv3qRxRnbePBB+7lxw/9nj73WCYkhPDuc3/kt4+/ydSVy/FxVtnPkHyVULqF8ucXXiNG0cATj/6B9/fnMHPpVUxKjDw/zEzt5s8Dv/gltcfW8ru/riFx+nxSJ8/iGzcvI3vNQ3zzp88RFJJI14B98ql/hxBrDi4BJCRHoB6fxqRgV1zUPigcnYmdMI1QUwO//+XDVHeOojUNYTaP1XSxE6Zz9Y234diSQ0a1gbvvvZ3m9HXc/cO/Mvm2H7JifADxU64iWF/F9+7+LkcKKxAa7TxB7k58/9aVvHKgkXvu/S5R1k8FJP8Z3eU89N27WGC1Q2L7zQsb7AfApFKQdWAzP7vndtbkKXjgG3PtR4Qz7uTG4lVXMz5Ax6MPfp9H//Yi+46dwuwcjKuoO0LCY1A1HeGbd/+YwqImnFQXKqPi/S/xhzU72LPpNX5w7938+aX3aOj+5IRWkq8CCotgYGAAL+HgSiQSydeR33/7aq5/chNTAj/Fq5ZIJJL/cX5xSzgNkU+z6e+32EMknyuGAdas34qLVyS3X7fEHvjvMY50UVDVw/S0JHuI5OvMJe8pO7bjHX778KP8+c9/tm2vvvshNZ3D9qP///TUZLL9UNknFhw+h5mm6joGRzUMNp5ky6FSe7hEIvk64+UXgJOciUoikUg+FR//MPy9//V6jpL/DxQK3N3dULv+Z0NCHd0CpCD7H+KS95Q9/dBtFASt5o4JY98GuXkHkJSciq8r9PX1oTcrCQj0x1FhXU9jAIXaC7UjDA6P4OTkjFE7jNLZjcHeLnByw9/PB6U17vCgbV2OnqIPeTs/gSd+tRKFWU93dzcmhQofHx8wdvL7B59h2R23MT1Sw9FqP25cmoJRr6VXXBtHF3zEc1ApzWJ/BDcnC919o3j6++Ph6mS7X4lEIpFIJBKJRCL5PLnk65SdOriZkaj5LE4MwcPLh+DQMALUZgqyTnEiK5fyigqaOg1ERfiTs2cjXd4JRLob2HvkJEaLI5XZeyis6aOmLJ+CM2dReAWj1vdy4ughTpdUUVmaT7sxnisXxHBi73Zyis9SUlLKwKgZs3GQfdv2MKTyYny4jpwaZybHe5F7dD8n885QXl6N1uJCgIeRd15bz8hoH9nZeVQ3dxMZH4ero/wETyKRSCQSiUQikXy+fCkqo64gkyNHj3Ak/TglVU22hfUOZRbgHzuRWRPj2fPW0+Q1D9JYdoamIT2YdVRW19LZ3U9dRSHpJW2kzV5IqHMv63ccovB0DoXV3UyZOgmV2SLEl3Xhz35Oni4nPnkSnuYBDh8+xLCrL8GBkcybkgoDteSWtNDZWMrGPSdInDidxEAVuw8cprGliYO7DjOiDrUt6liRvoPC9n89laxEIpFIJBKJRCKR/Dd8KaIsYeZirrzySq5cvpS0pGiamxpxDwkXomoyE2cuYm6EnpymQXvsf2TSgvmkJMQzOW0Sgz2t9AyP4BWVxJRJaVy9Ygbu7i5Y9Dr0ei2VZaV09Q2jdFKAsytqtSchwf44Wr8vsZgZ6Wlm1DeB+TMmMX/JPIzGUYYGBtD4RLBy8QwSE5JJCPWkV/PJhUQkEolEIpFIJBKJ5P+fL0WU+YXHMC5xHOOEsAoN8MHfy53h/iGGBkfAMEhhTT/x/u6olA5o+0fQDPTQ1t/Fub4qdxdn+18CR2ecHRwxDPQyajDT1NiJQW+kp/Ygpd2OzJgxjcT4CExG60JTQogpLIwtsyhQKFC5+eDQ28qA1kxfe6uI4YDKSaSvFunao0kkEolEIpFIJBLJF8Vl8ZFUwpSFJLpreeqRX/DNe36Kz9IHWJ7oS+L0qex/8bf85tm3aG4dwN0e/2IUjmqmT0vD0l3Ejx+4jw8O5dvEmWfoVFxbc3n26VdIzyoQEVVoB8W1wkb5+/NraR/RijAHgqNTmR+v4iffu4df/PV9UsZPJiYi2J66RCKRSCQSiUQikXyxXPLZF/U6jW2Ww49PT23BaDBgMJqwWMRhlRNOKiVmkxGdTi+ko1U7KkSYowgzgNIZlTjfumCi3mjBWcQ1iPNN4nyFg7U3TIWLkwNajRazte9LhCmEAHNUqWwr4utN1nMUGExKEU+J0WhAbzCej2NNe1RrQO3qLO7Hem96If6ccLSmLZFIJBKJRCKRSCSfI3LxaIlEIpFIJBKJRCL5Erkshi9KJBKJRCKRSCQSyf8qUpRJJBKJRCKRSCQSyZeIFGUSiUQikUgkEolE8iUiRZlEIpFIJBKJRCKRfIlIUSaRSCQSiUQikUgkXyJy9kXJZUtXax2nMk/S2a+1h0BI4mSuWjDVvvev6e1sp629jZBQf5rb9URHR+Dp7mQ/Kvm6kbHnLZIW3UOA2h5gGOZ0eQNhoeEE+f2r+k3Lye17qejqsS2h4R0YzbyFswn2OpfQx9H2t5BZ1c+S6ePtIZ+NzrpijmadZfzc5aRG+tpDx6guOUluQRkj1jXubSjw8olk5bXL8HC0B/0HdHR0EhQUaN/7/8ds1KLRGlC6eODyX9zP5YhJN0LJ6SwKa9pJnDSH2RNiMGqHaWqoB/coYsI87DE/O9rRIYpySpi0aDYu9rCLyTm2izPV7ba/3bz9mTp9FnGRwXxshRgbFlobGhkc0ROXkoDKHnoOi9mIVjOKSemGWqljSKvATe2C4z8mJPn/JPvwZuqModyyYo6tFXu4s5HMrDOET5jGuOhPy7vPB91gE0fTs2nucOC6O67GX7x4nfVn2HE4j8j4JObMnYf7JwqGUa/lTE4mA+6hLE5LsodKLhkmDbnHMzhb04hR7Lp5h7Fk2WKCvD6tNvjvGeltIysnh/Z+M1PnLiQp4uP25GL6Gwso6Qlh3mS5/u5XAdlTJrlsaag8w/GTGfRbl6pTOtg2q9P8WWlrrOH4kf0MarQMDY1iNFnsRyRfRza+8nMah+w7VswmBoeH0Rms5vFfMcKWZz+ka1SLQgk1Z47wxz/8gdYRs/34xxnpqGDd7gz73mdjuOkUjz2zAaNZy6/u/TaNo/YD57AoUDg4MNqayZtbDoiyLvaVFuGa/xd0FfHth1+173w+lBWeYtOmdfSdF41fbQbbynjisUfZkVlOsJ83+19/kF++vBPdaC9nso5RVNFjj/mfMTzQw8712/hk9p5j/5a3ONU6aqvLOmsLeOypZ8gorLIfvRgz1cVnyTqRg6j+/oHOlnreW/Mydf0mTuz5kN0nchk2yPrti0Bbdow//Pz3VPSaxJ6F/MwDPP3WO7T19PFFLl2q6S7ntRf/yoMP3s/B4k5MRgPH3nte7D/Imvc3cVFb5XkMmhEObnqH9w5m2UMklxTjELt3HqSupUPU3+Idr8vigXu+T+en5NV/h4WK3P388c9PUtQ4jJeTlmd+cTdPfJBuP/6PGDSD9A1+TSru/wGUjwh0Oh0uLp+vkpdI/n9pqimh3+jE9d+4l4Uzp5A2KY1x0WF01+ZytLibxOhghjtrKahowNHFg56aXNa8uY5WnTvx4lh3cz3VtTUkpqYyNGjE383ArhNFwqMp4r2PDuMaEEWQrzv64R7S9+9i16FcvIPD8PV0o7XkAIdKWig8mY1bUAQ+7s72u5Jcrmx967dMvuFhwtztASYdtS1d+Pr6kndwHzjpeXft+wwr/YgO9UOhOOdRjbLjleN8408/Y9mcWSQlJlBxJh114gIi1AZyju9jw0c76da7EB8ZjKarhh2n25kxLpCigiwKcrPJr+kmxNOBLR+sJb/FRGpiBMrz6cNA0xn2lwxz121Xc2L7eubfejd+F3Xa+ooyljpxMlFuLRyqU/O33/1MlO9AGsoyOXSqhOqaFnwDfKnIPsQ7m3Zi8ggnMtATi8lAzdlcNmzcSHnrEKGhweTseZVXPjwiynIEgQ5tZOQ1U3BiLy1CsDqMtLBx40fo1MHifG8M2hHy03fz0f4MlG6+BPp7c2r/fnSWQTa88y51fUpiQz3IPrSZ9z86gG/4OGIiw1B9pZvz9Gxduw6TbyL33HsXE5KTWLTiSvY++2dCZy+ht6aY2rYRUQZOMGRxI1g8d2tvSFnWXtZtEMLNxY/wEF8UmKg7c4r31n9Eh8GFhIggRof7Ob7vJHOvWUxVbiZ17QP4BwaK5zVWFo7uXs+4W3/NfavmM2vOVFqPnMHi7ElcUij5B7eyZv0WegyuxEaH0FhWQVf/KBOmT6SzMo91a9+jZkBFQnQANfl7eHHNJgwYKT2Tw9GMPMKTphLh60z6tvfZfDgL94BIgrzVDPe0smf7Jg5knsE/LApfD1fbvUg+G6FRfrzy5Iuok5YwN96J7Rvep9UQzvWrl9NbcZy3RD70OfqSEB4gfGYj9WX5bN1xgIGBFrZv24ZX9CT81A4UHN/Juxu20dytIzgsjN7KfN7deRxnSx/r3nmfIedA4kL9Rb00dl1NTyUbNu9C6ePFkDKJq2dF89JTv2FAq8YzOIqVq1bSU5nFhvc/IKOoluiEJJGWjox9O2h3i2J+hAtbtuxC7+pLgKcjR7atY4Mom77BsQR4O1Gek8HxrDJ8wiLoLDzKqztzmDEtlbzdH7LtdDX9Vblkl7USGBKGu8sn+2oln4ppmP3Hirli9bVcs2oZM2cvpGDPCwRMuwFTdyUHDx6lvKoeD19/uqpyWPv2e7QIfyUqSE1VUTbtBk88TC3sPp6Dh6cfns4a3n73IJPTxtmS1/XUsmnnMWJnXsU9t11JUvIEVl+7jFd/cDcBi28S16jhTEMP0SEBnM09RovGCVdjN63D3rgOZ/Hsq++Tnp7OsWM5oPYhVMSTneuXF7KnTHJZU346k5efeYLH//q4bTtU2o6DkxO7319Ht85IQXYeVZW1nD20nt+9upPEabNpP/UW//fMRuEyjTHSWc2p7BJ6Wxt58s9/4cBZC0mRHjz9x19T2tjMu2+9wtGiRmKCHPjjz39JWecwjUX7eH3tVqJSklC7yCGPX0l0A6Rn5dLU3sOx7c/xp7W7mDg5jcz1f2XNrkJ7pHO08/bzz/D444/z9DNPM+SUyuQwFXs3b+BYfj2pqUlsfuxnvFd4rgfFTHNVPm+9+Rr9Fleyt67lp39+mdDEKdS892vWpDfZ41mx4BYxhZjRfO688zss//UbRDlq/m3PrVE3TPbBjziee5awqFB2rfk764+eYUraeHY9831e2X+WaiHI1ry9hZDYZCr2r+ed3ZkER07CKySOGcnRlOVu59l3N4Crmi1vPM9z72QQHRnAb777MzoNRg6/+wSv7ygjwl/NR+vWcPhkMScPvMXja7czceZ8yrb9idd21eAbGMXECeOJiY75igsykRvD3VTqHPAMj8DH1T4WU+nF0x9sJNlHSUdbFQWVpfj5ufPq356juLaJY2/+nl+9k0XS+ARO7niTNR+lc3L3e7yyfjfBcULE73iKX716VOS0BaN+mFNCYO3NKMAjMBxXxwtej8Vspre9hcbGBkrz82lx1OIR5sP+N/7MttIRli+eR/7GP/HqR2fOnUHpkY386ZUtBIybxODpdfzwsfXCn4olJSmB5AlziBVO9aTpswj3c+WZB+9kd42B8VG+bHjlMXadzGe9qCvLW3XE+Rh4+sVNmM2yR+0/QRU4jasWh3HsyG7qqys5W9HM1LlCUGes5bYfPEafZpCnf3g9f3hjP5UFx/nNLx/k0CkhzN5fw58ffZTKjhEaT67je796jpbmWl587Hc8+8ZH1Jbk8dpTj/KUeNeGmvO446rVHG/U2K96gQkL5pB5YjdDvWepKPdn0YRYW3hT0XH+8vdXKKpp4vDbjzPzzodFaRFYzPTUFfL0Y3/iRGU/gb5uvPzrO/n1qwcYbi3nnluvY7ewd5V5J9i2/SAdg1rqc47y1Bub0Vss5O54jycf/wtHM4tZ+8JfeOK19XSPGKwpSz4LQ+1sfOdN/ir8lYd//QO6g65mQpCJwsxjbDhUgHtwOGd3v8mTHxwnbf4iOjJe5+dPvUd7eyNHjmZRdTqfN55dQ2F9O8252zhQdaGXq6OhFYNOSURMDEp7GE7+3LIolfRjJdTXlHKioMIWXJp/nKK6NjoqjrM7ownvoPFcfdVVzBwfTU9/D/1aI0qpAC47ZJZILmt8AkOZOGUa02dMt23hXq6ovSOZGWvm6KkiWoe1orIJoSArm5TEWMy6UUJTZjFYkEv/OVV2EcawFH783euYs3AFqdHulBdX0N4xgKe4jsLZl6RAA8fLu3BUOjF1+vXMmTqRYG/Zi/zVR8k99/2YxYsWctMd36DkRLptzP8F1IyfPNlWxialjsfYU0LOmQaCYscxOS0FtbMzwb5O1PZfND7S4MTE5Hmsvu5G5kyLZs7qW5g3bz433jCblrOd9kjWzwx6hIO2DnPCfGbHh1HfUMPeLR9S3/Pvx7R4eocyY9bVTI91I6duhLCAAPTCmM6eO5cT6QdRu3sKwz7P9v2bl7sTvXotARERuPgGMz4uFBc3D2bPu4Jbr19J3ISprFg5n+Wrb2NqcBetgyb2Hhbia2oqji6eqC16urta0ZiM3HTjXcybM4ebb5xDZ3sfPv6BREaGERIc8NUXZWJT2P7/48NDRwb70RlM+AXFsmrlTVxzw01MDHBmRIjj9zbsYfmiGZiFkPbxDaW/Ip8TRc2oXT1xcrCQPG0umcf2YRL/tTcW8NGeDIKTZ5H8iW89DDot2178C7/+v9/y3NqdTFy4VNQxSfgET+HKeSkYjUbxrL3p6+q1n2HipHDww63P3WIkbOJchvNPofcKIiwsmKj4cYQF+xMZm0CwsoN3TxtYkByCyawkOCSIstKzeHu6ox8ZxKyO4jvfuALzFznm7muIQrhJ166+ko68I2w4mE2n2ZWpE2I4cXgfKidfVMJWxETEcvpkBtX1lYwYw7n3x7/ll9+7gZAAT1saziHjufHq2ShMBob7e+kV+aux6hz3cfz457/g0T/+Bk9zP5U9g7b4FzNx4kLCK/PYuG0bmgmTifQZ67VyD4xkydxpBHio0OgMNNVWjQ2b1QyQtWsT+88OsHzZFYTSyoa9ZwgT76+jizcBvs6cyT9tS+NTUboQPf1q/vjkH/n26rlC/J0VNvIf70vyT3BSk5gynmnClsyYOQ9aT3LiTDtKTx8mz57F8tlJFOY1cfsdt7Jw3jy+89AjOBQcRecVhbK7ktMdFmaOc6erb5Dt205x053L7AmL2kBhQacYG0Z7MSYhxE36TxvofAHPgDBiw/1o6+ln1sJlrJgz4YKwk1w2SFEmuawJFsZuweLlrFi2wrYlh3vh4qpm4qw5HP1wgzCAZmLHJeHsqGBgcBC9wYB2aJCQ+Lh/+Djeip+X+8cqIgelEqM4RzM6IhwiLWY34Xx6OwtLrMDJ6dw4OMlXH2d0wiG2WCxC1Izi7PzJSTy8hKFaworlK7ju+uuYFudGcWEBlcU5ZGbl09o9iIMwiB93Z11wdvIQ5WRsz91JNfaNyUXDFq1ou2soaNOxbNmVPPzEHyjf9Bcef/UjzKp/PyRI6eAonD5ro4DS+gsYGtWgF45736CWcXExtNefIeNYJtXNHcIRv/DFpUL8TitKByfcXf1sf4uExP8cxuLYIzoJh7J3oB+DXoOTlxfePj44KrzHJsT5+M8Qz876f2N/f5VxUPuQ7KNmoLWF3uExYawb6mLDundpGzLgqFThpDo3xE8n6hQLLioF3b3iORn0tuz1Dw3FSWFmROSHVm9gYGCI8akptkfm6R/M5AmTaCvLoa69fywZO06i7vrOn19i/fvv8dqLT3PblQvwdjaQl5fJiYxc2ntFOXP8+EwqTkoFQ9ZvI4XTNSryKmzcOKxFznota57Yskn8YVEohbAeoWfYes8Gsa8iNCyKpNQ0JiZFUV+SyR//+He6DJ/+raTknyAyPGneaoJMDbz7zhY8hMAalygcaIsjCpUbyRNSCY2JYGqqsEPifTUhbJB4nwaHrd8xj7UMbn35Yd45VsN1t36D+WlxtjAbro5C1IscdHLBxx70SZw9I5g5FZ59ZiPTZ87EPcA6lN5C1qEtvL3pIBPnX8d18yde9Lo6EJWYSkK4hyhXWXQOaUUdJeyZZxATUuKJjY4lPibS9s2TXpRfw+go3aJcWR17G+Jfo3aQAXGeVpR3R2dHlLJL5bPj7MmUmXOFIF7BNTfdwZXjfcgraETlqMRV1PnWBiGVeDdHRvXiL4t4/sOYXFwIC/DB07mX0qYhZsyaQU1hNkfrXFiW6G1PGAJCQvARdVF9RZUQ9UZaqs9yOi+bY3X9zJ6TILLOglnUR2aLkRHhB1kbec6hGeph/65dDDgGsnLFwo/14EsuH+SbJrmsqSrOZe0bL/LCCy+MbZsPonB0IjB8HCpdF6NKf2KDfJi/dAmeLqKiGx6kr38AL1F5uX6GZiAf4bRMmpyK2qxloL+PUbOaqID/fNY1yZePVXB9+Ja9nLz2NicLK7jgfg5wZN8u3l/3Huk5Fcy+Yi4fd3072PDW67ZzX1vzDtW97qSlRGMyGYUcUqIwm1AKB2qk5+KZRD4bTt4RjAt24/jB3Xy4/RgJqVOZMSOFlrpme4zPgBBWK+ak4eFsYXBgkJ7+IaKFMDAaNMJnFE6TMMYKYax1IxrMTp4EDdaz7XiB/eRPR6lUsuKq23EcEQ7YoBAcDq54eHji+ClWwc3Nnb7OVgpLzqIxfsWVmfidsxfMwFnfzsb17/Hu2ndZu26dbZIYD/WnDVV24vo7bsU0NMCg2KzOkGdgBHNnphEe5MnIoKhz+gaIjIoWJcURT+8EIeyvJNhFR3pGFgOafzPRjChbozozrs4OwplSiDLnxqjmXE+ZI9PnzSPQR1xH1G29vb14hYXjK+7TSeR9fm4WKhdPGopzKO1W8u0rpwuB2CfKyBCi6BLg5U5tVTm1zZ14h0YTF+KL49dAWF9q3H2jRX4n0NrZx4SpMwn38WHJ9dcRHgjlJaXUNLQRkhhH/DghhkIc+OjtV9l2KJehUVHchOgKiorHRd9D+tGTNHaOYDJoMZg+mzj2cHVj/pwZNLb2MH3OVJzV1sYcCz5+gXi7msk+eZiy3n4sQrjbipqrJ6lLb+Khe66j4cxJcpuN3HbdCow9jRSXltE1ZCAsNIJgUV7Nww2sf/stThZXX7gfi4mehnLee/1FjhS2MWXeHIICZAPlZ2akk50b1/OisCUvvfQKeZ1q5kyPsR+04sKCq6dQfOow77/zHh98uIWYedeREBmEysHMYF8fkTOWoj17CN/xM/G8yI9xD4wSwjyNvrp81r33Pq+//DyvvPEGFQPBpEb74+vtzUh9Ae99sIna6kaRlWMvu0UI7by9H/Dupn1oRobZ99FGsooqRV0mK4PLDTnRh+SyxdlFOInunngIh9Dd3Q036+YXRGpMOIbRQbo7m4ictoKUMG8h0mJws9oqRxXe/pEsX7EIf093AoNDCY2IITAohPBwsYWFkRAVaush8/YNICY+mZiwAFwcFShVrkyeu4S0+BCc3bwIDo8m5Pz86pLLHZ+AMFFGfEWZEeXEw0vkexQJsTHEhIeSc2AXKUtW4efqSmTiJObPSEV1/gtnB3wCPXHxsJ7nLsqFP5NnLmLGlFQCvH1wcXZG7elN2vSZJETH2SYJCQwKZVxsJMFhoQQF+dvKaXh4FH6eauE0eRMsylyovewonT2IDA1EqXDAycmV1HlXcvW8VCGi3Any+3gDgNLJnZCwOOIiQ1A4KMV1fQkNDxPG1o2IqAgcFaKcOjoRFJ/GyoXT8PMNxstVhbO7N4njJ5AyLpmo8HBi/dxxEc8jMTaOkNAogvw98fTwJioiDE93NV7CoYuNTyI2Jh5n9EJwepAyaQoTkxMIDAggQvxODxcn4fB7EBQmnPmoENzFM/UR70ygr3Dsv+LNeZ6+QeLd9hGurahnnFzwEs/qqtXXEOytxt3LTzzzUHw8nfHw9iUqLo7USVNxMo+K5+Eu9pOZNXMK0SI/3F2dcVCIuiQ0gWtXzBUOtDP+gUHEpSQT7OuDtyg//v5+ONkfmKePP/FxiQTYHGs7SmeRZ34YLUq8vLxJmjSDhLhwEmKE4yzKV9LEScL5drSVBzefcFZdtZRAIba8xL25CxGdmJiEl9qFgNAY5s2ahH50FLWHDwkTpjBrygSRX542AW7Ny9lLlhJvm6RE8p/gKOxKRGyCqBfmsnTBLCF21YRExhMd5i8cXgdmXHENq6+YhaNZR1dPFy7egUT7Ksg43c2t99zFvCmThIDzxy8kinmLFjNN5EtCQjzjkpOYlByPq4ta2LA4pk1Pw99eNpSOLgRFJDJpYhrjxsWJ93sGyxfNITQkhMQUkbczrMsphOLm5cvcxUuZN3UKU9KSCRTlb7woM9MmphIcHER4dAJz5swm2NMJR/cAVl1/KzNSY/AVdUCEeK89xTs9dfps5s2fw+SkWPL3f0SZazS3L5xK3KQ5rFwyl0BR/8gy8xkQdYGX8DusdsS6Wd/PyXNXMGdyvK1hKzxU2Atfb5Gv0bg4WIQf4mRbgmXllYvxscb39GdcQhwJiQkEB3gzY/58QnwuEsQi/SCR/wHe7rYGnLCYBCZMnsaMiUL0e/gRK8qDr5crDk4epE6cQsr4FEKCggmLjCbQwyLsRgoxIf6o1Wr8hU/k7+Ml6nKZs5cTl3ydsjNZByisbBdXdsBdONjTps4gMsiLhsoi8otKGbYOtHZWM3XGAsbH/OM6O5q+Ng4dS8c7bjbzJ0bZQz+BUUNRbiYldb2MmzydycnWFswxhntbycnJo3vUidmL5hHh+yktQCYtpYW55Jc2EzdxOjNFgZcz1Fw+DA808tTvHsdj0hLuvvMGfFzkyGjJv+b3376a65/cxJRAOfOcRCL5YuhsKOftV57mcH6NTfCHpa7iyUe/Lxzir0a9Y52I5sUf38pHqhkcfeYhe6jkcsdk0DGqt+DhJjtXvupcclH21IPX0ei3ggnBSvraWugecuT2H/6EhsOvkF41TGxUJCrzKFkHM7n5kRe5ckKA/UyBrpvf/d9jxE+bQdH2zaz40xpWJn78vrU9tfzukb8RPG4WyTFeFGWfQhm9gJ/dvYqqzJ2s25lLXOpEQlz0fLB5B9/5/QtcMf6C+NP1NfHk35/H0S+ByakRnM08TLfXDB756S04S2F2WWAy6elobcfZ0w8/Lzd7qETyz+lub8E9IBQX2boikUi+IEwGPf293fQNjdi+8fP2CcDPxx2HT3xnejnT19HKsMKFiMB/viCxRCL5YrjkwxcPf/Qak+54jDuWz2JCYpgQZhUMKCIwd51GHT+P2264ntkzZuKvzeZInT9XTLuoN0zbwRsb0rn93u8ymrsNU+pVTAz9uFO+4ZlfYZzwDX5y19WMS0wiOiKEqtx9qDx92LHzKNOWXM3Nq69gXEoqM2MUPLchm9VLZ57/uG7320/SEzCT+++6ifFJ40hJTaX86PsoghIZbq0i/UgWdV1DhAb7UX5yN2s+3I+Tfzjh/p5gNlJdnGNbB6i8XUNsTBiq0WY2HymktzqL9KIGvNVOZBzcxdk2rW1Ik5Ojhex9m9iw6wS4+REW5COHCfwbHByUeHh5yanqJZ8Z6yyFcpiGRCL5IrEOi1e7e+Dr64efrw9urs5cWA/xq4GruH8vNzmiQCL5Mrjkouz4rnc4XtRMRf5JDh09Qb/Jh+uuW07L2QwOZ+RwtugMp44fYu+pDh748T0EeV5wvI244tiezs9++zyBK37ED69OxbrkivVDWhvmHt5+8hBX3X0DUYHettYpL78gZs1fgqnxDKU1WtusOBFBHqKidMArdDzXXSTIsAyw5fVjTF68gJSEcJQiXVc3T+YsWUUALbzz7qtUDzsxLS2NE+/9kQ1FFq6cn8yh91+kSZmAqSmHrXvSiUmZSOnulznRG87CsD6u/fbDxE6YTn/Fcd7ZsJfYlCT2r3sN16RZ9Ox5hqfzYFlaEKfTD2IJHE+kv+z9kUgkEolEIpFI/lf4Uj7XjklOY/LUyUxOTUDX30xOYblt/HVwRBwTp4jwtCnE+enZsjvDFm7DYiBj+zqyu4O5fXk0nS2NnM7YTVZ5iz2CwGIRIs3hwjkCi9mETjOKTm+yzvT6MSwWE8ODwxdmaLNOJ2r+xPkiTdv5BhMBIQksnrecWUlq9qZ3sWROAga9xSbCCvJO4BoQxZz5C4kI9iI4xIeuButMbQrcJs7hge/czPRpC1k4ey5X3XAri2bF0TOoR+XmhaOhB62DJytvvpOJkZdmGKlEIpFIJBKJRCK5PPhSRNmU+Su4+qrV3HLrbUyekEBlRRXW1Tysi5uuXHkVV193I/ffczOnTmRyfh15Yz/70itYsXo1P/3Dc0TU7eah3z9Hx+hFP0HpzeRZLpwuqcFgnQpUCKq+9iaOHjjAqIc/Kpdh2jqbz0/92lmbz6bt6ZyfFVTpQcpkNVWNjWMTjgg0/V0c2bWd6s5hHB1dxOYs0rUuJ6mjvaOHgcEBRkTchJhwmmrPsvfAQYrO1qG3duHZCfbxsD9o63ofKrGJPxUiRAG+ybO5eVEazSVZvPz8cxzIrrTFlEgkEolEIpFIJP8bfCmi7Oi2dax5ew1vv/cBtW19jEuOs82OeCbzMOveeZs1a9eydV82cxbNvLCWkNKNqePDKDh1jM3b9+KTOpHYceMxDbVftBaRIytvvIXO8mw2bdzEls0b2bRtN+VNvfhGJjMjNY6qwkw2bdkijm/gw027GFJ5oDo/5FvJAiEKdZ3VbN28iY/E+R9u3kphdSeurtYFG+04+7F65QzbVMiODkosJgOeHp5o9AYc1G74+oo0hXgb1QzYT/jntJScIK+ml9CoWFKTE3BwGFtsUiKRSCQSiUQikfxvcMm/KXNRe6AwmWzfazk6u5GaNpM50yfi6eaGgwXbR7EKcSwgagLXrVqCp7NdlilUREWHY9Bp0BuNBMRN45brl9kWTQ0LDTw/OYZ7YARxAWq6egZs6XiJ/cVLlxLp70l4VCRqcZFRjc429WvwuJlcv3w2zhfNyObmF0JMoCcDA4O2oYtOngFcsWoV8UHeuLr5EBoSireHG3FJCWh6uzFYFARFj+eKBTMJEWLMWWHGJO41NmUSsXHRjIsLw8M7kOSYMBxVKgKCgwkKDsDF2ZWwiBhSJ0xE29uORelMZFwKM6dNwFUlp3iXSCQSiUQikUj+V7jkU+JLJBKJRCKRSCQSieQCX8rwRYlEIpFIJBKJRCKRjCFFmUQikUgkEolEIpF8iUhRJpFIJBKJRCKRSCRfIlKUSSQSiUQikUgkEsmXiBRlEolEIpFIJBKJRPIlcsmnxJdIPisjQ/3U1VTS2NRCW1ubbRvWg5+3hz3Gv0YzMkxfXw/Obh44XFj1QPI1pbHqNI6eITidW1HCpKetuxeFgxIn1fkVD/8lFv0QNa39+Hq520PAqO0X6YzgKupI61IeIhZaUbY6WnpxO78wvMA4SkVjF/6fsXxiMWMw6jFZlAx0t6M3K3Bydjq/vIcVs1ErynAvOpMSl3PLg0gkkkuHfpjTRSX0Dw7h7u2HCgOtDQ3U1NZhcHLHxdTH2fJaPP2DUH1qM7eBqoIz6By98HBT2cMEFhPdHS1U1dQxqDHi6eWJEjODvZ00t3Xj5OaOk6NsN/8qYtJraWqoobapDQcnN9xdnexHPgfO2TXFZ7drjdVlOHsH4Phf+EGdLXWijNbTKvyv9o4ORnUm3ETZdLxoKal/j5mRES0qRyUdrY3g4ins9H9+M6315VTVNtLW3k7f0CjOLm44O336M9CMjNDb3SfeMwP94tqOTs442h1Bk8lIe3MDzh4+/Be38YUi33jJZUtjZRGbN73H/iPHyTiRYdsKK+vtR/89baJSPH5kP8NGe4Dka82HL/+cxkH7jhWjhoqaWnoHRuwB/x7zaA9ZxVX2vTFGO0vYdSiboRGdPcRCR2MNu9buR2MPsaEb4ERBmX3n3zPQ08GpjCO0DRlprq2kvbsHs8V+0I5htIvTOccpqeqwh0gkkkuJua+an/3sZzz6xDOcaRpAP9DM+jXP28K25FUx3F3Jnn37GDhXPfwDGjJ37qKsVjiI5zFRfHIvf/3jb3lQpPOLh37Fy+/uR2sy0dlcQ3Z2Ib3WFkjJV47B9jq2btrMsYwsSooK2Lp+LRnFQoh8Xuj62X8sg9qWTnvAv6fo1LH/2g9K3/k2u47nUHq2lOKiQvZu38Lug5nozPYIn4HempNsP1yFyWyiqqyQntH/4OSL2P3e03y45xgZGcfZs2Mr23YcoO1TXzwLg329VJVX01ReQHpukbjmhQegHR1hz8Z36DPYAy4jpCiTXLYM9ndhVqmZc8WVXH3V1bZt9sRxDHXWcaay2RZHN9RFbUMjA6N6elur2bdzB3mljVhf+ZGhARqryig8nUtmfjHDGquRM5Gdk0312TyyTleg0YxQfiaPg0L4tXQPYBzpIeN0qYhnYai7jbyss+iFo9xaX0drZzemTzjNksuHyjPHGfpnlaxZT2necQ4czaKttYmqhm7am5ppbGwRJUKUla4azlRcZOQsZvo6mzhx/Bhny4qpqm9Hb7DGtB1kdHCAurJGPs3OmYVjVZKbQ11NmTDMp2jrGVOKo33tHDu0hwPCwA1pdTRU5PDOu++SVVDCiP6CkeprqWTv7p0UV7diNIzS1dFC94BGnN9CblEZOr1sZZBILhnCCc7MPEVpeT3Zwja0VJZTJGxGVl4O1R0DojYYMwrWXu36ilyycnI4U3iaoydz6Rv+WLPNBbS9bPngffK7VVx/653Mj7bw7F//SEHbqD0C9Lc1cOzgPrZu3Wrbdp4qGquXOhpJP3SQwrIatOfrJMllgVnD/q3baBwwMnnmfFYsXUJiuCf7Nn7EgLBNw/2dZB8/Qkb2GYa1Y6K7MDOTFiHEjx09Sn1LF42VxaSfyKJ7cASLcUj4KyU0VuRzOD2Tzn5RnkxaGppbGRgWZcUiRE7hKXbsPUB9xyAm/QjVVeXUtwpbZtFTJMpiz8gFcW/twasVoujg4WPUtY75M7Wl+XT09pFxaJ+wReVcZIpstNSW4Z80k+UrlrN8+XLiwrwoyNpH+5AR/Wg/uZnp7D+SyaDWJGyfgc7GSvE7hsSZZvE+VNPR0cyxHRt5b8M24bf12NI06Ydpba6jtLiUdPG7Kxs6hGAbe4/aa0vYf+AAFfVtNj/uYurLTxMzfbnwBa9ifloc7XXFlNV1U1deLJ6N9V202nLxfla2j50gGO3rokX4blqjmZGeFg7s3U5+RTN1wje0CkuDdpiS09kcPHqSzoFRWxrNJTmUV1eSkZVD/0Vi7lIghy9KLlta6krJzssTlZeC7rYm4UA34ho2Dg9jK6++vYd5i2dTlZ1BSV2HsGD1vLHlMN6+vlTn7KagR02Eu5Y9+7aidwmis/g4xe0WkuOD+Nuv76RXGYeXmwONZzM5cLICpWmAXbtOEZMQxDNPrGHZNUsoP7aeZ9YdZvr82WQfO4LBwYmI8BDZknGZsvPdR5l648OEnRt5KByfbUdz8PMPpHT/W2w700eAaoTNH2xiwDEcc3s1tc1dxKUk0FW4gw0nLcyLHeW5nUXMifPiow3raB1RUJZzkpoed1YumY672joMxUJ3SyNFpxqYd/NCztecgw08tj6DGxZN5dk//oAqrQv6jjryi6vx8XJh/foPMTmq0bYVsuNUDykhjkJknSUubR5dpVmY3X1w7inn0We2ERzhR8HxHXQaPW29d0aLE/knjqLwCiM+KtQ+jFIikXzRWAbq+dvrW0idsBSzQY+7skM4mvU0dw2TuOgGZriU8Jsn3mP5dTdTtPcF/vLSdnq6Oti54T2ajCHMmODDc/c/iCVlNXPTguyJGjh1YB+nK7oZN2E8s+ct5ZprV5IUHUxd3jE+OnCa4PBgGiqE01mczSsvv0GJJoCrJnjz9MN/IKemlUzhzI6qvEmIjUR1uY3B+h/F0NfA2gO5LFiyjBkTha/i4UlETAIxEcJv0Pewfctmarq19Nfmsaek09bI/OIfvknBkBpzTzvbNu9gUIi31rMZFHc6kxqh4Lff+xUjzp6M9rdwMqeAiNgYCkuriYmJofLgWnac6SHI3YH0g7twDE1lsCKH7DN1jHRWsK+wjelpKWx6/lGSl91IXeYOPtyVj5NSx+EDWXgFh5Gz+022HKoXvpNKCMQDNOp9mBQXYv9FkHVwEz6Tr2f2uFBcXZ1orS+luqmPaVPG8dF766jtEkJmpIk31mxnhvCVKk9spbQ3mAkJQowKIaZzVjLUWsaZNk8WzR3P6fQtwo9LoOjwBvbkNKN2GGTTxoOkzpzKSPFu/rrmOAG+zhSfzmXI4klsRMD5If1HPnqdFlMght5mamrrsTj7MmvWDE5tX4vJL5KwQH+6zrzPeycVJPiZyMksJDDIheYRB6L8FLz03Ou4BoTRmHuA9NO9XHndFWTv38LJwlrhA/ax/UAek6ZOJPvtJ9iY10dsVABBIZGonS6d1yf9S8lljcVswWQ22rq9rZvRYMLFM5wAQwV5NW1UtXejcHTk1ME9eAeEEhIYRGzyONLfXU+fWUFMbBJXr76eb95+A3mZWQwMD9F5dojF119LQqg35ZW1zLz6Jm64+RskebSSXq8nTlFFdvUwTSX5hMf5k3Uyi16NEUdXf859riT5CiDKTd/AILqRFt7f3cC377qV5StWsjAtWJQDrW3M+fDwiK01zqAdoKdfg8WopaO7m+bWRlqHfbjtlhu5+ZplBAf6jKX5r7CN9e/DYjGjF4Jw0Yqbufmma7HoRigvyqPoTDEDIxZmrriTH35zKV6BkSQkxBIfHy8E5ACjGi0bP3iLGbfexepVV3HTDTfgqtCjGWjl9RdeZ1gdzsyp41HJ70wkkkuK0tWVyKmxOHUc4mBuL+7eYfh7u9qOmXT9tgZDndHEUH8Xar9gvnH/T5gxzpmzhcUYDDra6+vpH7xomJXKk3t+9hC3L0lm97tPc9sd3+TRp9bQNyLe9+EBOju78YxM5rY7b8Olp4XGAQsPffdGKrO3sjG9FJVaTV9rKdt3HKa109orIbkc0Gv6MAmB7ObqfP47dkdnNfFJsTRVVdI/YOTaW27mtm/fRd/RPdQJOzTQXcb8pbeweNZUIsJ8iJyxmGuWp9JU34xWM0pJuwM33nEr16xcQrDLKNm5lWMJjzTywvYSpqQkEOgfRICbhW37jpE2YyqDzVn89cWdzJszAx83F7rbW4QtHCAnK5spq2/lhptuYWKwhtyqWlo7OvCaPp+rVgrbOGsCBWf/cQj+24//nLu+eRsL58xjZ34fN991H5qyPLoVvixeuZrrb/omEy1lbM5rsJXfoRHrkBWLeB8G0RgcGZcYLnypKYyL9mGgtxuNXo9O+HNJqRO57sZvEGiuo0M8i1df/AORadMJCwtHoRulKOu4rYfxYqwjUazfhGmH+qmvraGjp19cpxeNbqxH0KTtp2dgFINOx4C4/rnetrLDu1EkL+GaK1dy3W3fID7AhdbaagpKqnAPiyUiKpHRqv2kl3czOtBL8IwlLJg9E1+3S+v1SesuuayJTp7Ezbd/m+/c/R3bNishALW7J3PmTWHP2vfQihcxOCGFod4BGitOc/ToIbLzhdBaNEu8nS54eoYQGOCJd2goyuFRjOKFxiwqsEBrd4oZjVFHcFAQ7h6eRPv50KUxccN1M9m6t4CSPncWTk8lc8c+3FxcxUsbPHZTkq8Wo/1UKt2I8PHETZSdiJhY+4F/gjAWw9ZJYlw98fNwJzwqxvZh82fHAWenKKIjfPH080ft6IRCHc3jD/8MbVMB371+BQ88vg6tUomjo6PYVCgUYxa8u6uPuNgw1Go3opKmsmRGEoNDWiICnWls7xSO3ejHJgKRSCRfPNZJFXwCQhnubWFvUREh8Sl4Oo+Jsk/i4e5OYJAQbf5q8a4asYyNyvoYI131HM04w8I7fsyBjAIKMnbiUPMRb753zB5DOPMqFbl71vLW/gJ+/dIGliUF0ttej95kneDBiYmzlrJswQy81HICoMsFtXcIyhEFIxrdeTFg0OsozDtOU8soaL3w9/XA0zdcOPuDjOgsODhEC1vhh9rVBQ9Pd9y8vXB3F2XLIlIQhScoOoowb+HDePvg7aVmeLh/LGHNEF1CAOVnneDwsXSaR1xJGx+Lh1+oSNsNhZsnof4+50dVGI1G+kcHCQ0NFul7EOHrw5DehMFsYVxstBCSrriL86yC55N861d/Y83b63jx77+grf4sHr7+9A0PYnF3w9PHCzcPL1KC/Ojs+7TvtxWoVI4ohZ1TCZt3DrWrD/4+IeJePHFRCbMr3pP21jbqynM4cvQY3aM6YscloPzE+7Pk+jv5znfu4aFf/5K0lFjy8ws/9TOCT9LU3o1LYABuale8xPMPDQ1gWKulra2RsoIcjopn6BszBW93R5s99gz1x8X5gri+VEhRJrms0WlG6OnqpKOzY2zrG8DByYXAuGnUF+fSbXFlQmw4SUnhxExZznfvf4Cbl4/nbFkDrqohGlpLOFPWSEX2SVzjYlBfNEzXx0tUkG4eFIqXuqutnvTSNiYF+zB+yY10HXoKnUsyIb5uNPacRS8qrCDPi2bOklyW9HS1094hts4uhka1Y4FeESx37+ZIcb3tWM7x4yLQAVe1VXx1i0q5i6zMcvTnvtVSOhHgG0DgYAPF9W0UZufS1z02Fv4CZnTaYTqt1xJbV2//mOC3YWJopJjjWZXUlxUzYjIIL6yeVzZmsfqbD/Dhvl341hxn0OiAUgjAoeGh8+Ppp6alcfBQFl2d7Zzct4HHn9tMYHgsN9z3CyYo2oQDl8ewTn5TJpFcShRKB0KjQgn39cbF4ExMSCzKixzM/xRnZ0eKTu7gO9/6Fj/52YP86bG/UDPoTVhUmD0GNOTv52/PvUfKVfdyc5ofHR0DRI2fR1SIN5Nnz8PUWU9lYztm4exKLg8UbmGsTHMj41gWdfUtdHd3kXvkA559YzeBUb5Y1F3CN2miqewE1foYwjysglrxLxvaWnOPk13dSm1tHS0tvcTGJYwd8ApjZqAHC2+8i+/ddw+pfgY6u42czthLn2Mwqyb6sG1/pq331YpV9MWFhJF7Ko+u9kZOVbQQ5SVEoEr5bxv6HBwcbI2HKcLHumFqJK++vA7fkHCMbW001dTS1VHPppwqZo+PQuXqTHdnDR2N1VRUdmCdZ8vawKAb7bV/1//PmTdzMZETl/HAd7/N+PgI4fP18ckJJq09bR3CvjfV19LX34W7jxCsnk60tnbR1dVD9jF7T+InmDJjEk3Z2bZz26oLOFvaSrCfLylJE1mwbDXf/+43GW1vF8/D2X7Gl9P8Kb8pk1y2DPR2cOzALnbt3MPevXvYs0dsVYPcumSmUGsj9LZX45O4hBnjQohLGk955h627t5DTlk39/3sh/gojNSVl1BRepYTZzu57dabiA/340xmIfNvXIWvuweeaifh/G4RlddJomdexer5k3D1DKaxcCcRi+9lYrCzuJSZ5LT5xIb62u9McjlSkrufrTuPs99aVo5kYXFxx8XdnfjoBFYuncyG117hWHYOGqMe54BJrJqfSNnpHPbuO4JrmA9ufhOZk6ymsFnHLSvnY9Z08OH6DbQOGnEJSGDO1EQh6sccoJGBNg5t/5CdRw/ZyuXJ8jamJUdS1qZl1dw09nz4HkNGAxmZZ0mduYCVVy7DsaOQdVt2c/xYHgvvfIAFicG0V5dS0tCF2llFWEwci5dfSeWB9/jowGHahl245farxX2M4iGuv2xBIgd2Z5E8ZSJe6nOGQyKRfJFYtH0czatk+XU3EuxswOwTzoorZtNYW0/UlPmk+WmFzenj2htvQt9dhVYVytw5s+htLELvEsOCWYmcOZpN/NIbmTY+wJamg7MX45PiMA+1kZ9XSI/JnW888Au+e9N8hjpb6BxW4OxipqO9jc6GCrZt3cKOXY3c/vP7CFF08+H7H0BYGvfffSsxwd5fkvso+UcUxCZPRN9WxIcbtnNQ2If6AWd+9PMHmRgfjn64mx0bPyQ9r44bv3M3E2NCKC/IJm3ptTjrBukZHCY4Lhlf+mjodSIt0Yu3RJ3vr20UZbCUcXNWs2x6FPVtvcTEJHHV4hQ+eOsNDh7LROMZz+0r0ygtrSE4YQa33bSCUwd34pcwgd6aImZcfTuxIf7k79/Eln0Z+CbO4uor5jDYVin+nkOcnxPDA910ahyZNcEu/AQNlUX4jptLfKAbSidXvP286aw/g7s4J9FjiO3bd7LvyAkm3/xTbp2fhLPKhdxDWzh2pg1nVxXT5k0iPiaCYzvXMeo6Dk+HHsLGTcZRP4S7XzTRod7UlRUTlTabK65YTt5Ha9h2JAOdyo/V11xDkNcFbVJVfIptH+3kwP49HM06Q9T4OVy7aglJ4YEc2LmVoxmn8I9Pw8krUjxbTwYGRomMDkSrcCNt7hL8e/N5bf12iiu6iIyPY8FVqwhVGzh+YAfb92aQuOBarpqdTHdNCaqkOaQEqO1XvnQoLIKBgQG8vLzsQV8cZv0wVbXNGIwXWnpVzi64ujiL63vi4eH1KV2FFowGa3yFUNv/upveJAp196AJP18vHJVjnYA6zRBtzV14BYXg4zk23MCiH6WipkFkSjLqT2lkGuntZFTlSYDHPwpVi0mP3qzEyVGJfcTRP6W7vQmVdxheLrJD8vNEL/L52M5d1PcNs/iGu0jwkw0Kks+G2TBK9t7nyeiZxy/vnmcP/XzRCRH1++/dyvdf2Un0pa/TJf8G7egQ7R09tiE41vXorNW4drCd+tYhouLicVV9vGLvaW+kz6AiPuLCx+//KWaDlubGJjTCdoRHROLm8um2zKgbpblZxDOAb0AQ/j5eKB3MtNc3YnL2JTTYyzbjWWNzB65e/mLf71OHuxjF9dpaWhjVW/APCha2z12u1SiRfNUYLiflmr9TeuRNe4Dk684l7SkzDrYJNXqQ8opK9m3bQG2Xhr6+fgZ6unF0UuHrH/gPC7nph7soOXOWYaO7MFD/2sMZactn67FaYqPChdCzqi0zrTWFPPvHFzAEhJMcF2YzwB1nDvHLP/6NSctuJfBTkmwpzqbG5EGU3z9+R1Jx+iitIw74+fjw7763L8o8gNY7kUB3OT3E54leN8Dp7EIiJy9kSnywbCWU/EeYLWbcfKNsLXRfFCajkbjUNFzlq3/Z0d9azbtvvUWL3o3EuEjbIqbHP3iKZzcXsnTlYtSfWGF1z/vPsO5EE6sXTreH/KcYSN+8ljVbDlNTcYazDX2kThzPJyf06m0o4c3XX2XtO++yc88BCktrcfLwI1yU09xdu6gbdGdcvD9b33qM9/cU4OTpi6fSTP/QKO5eFxYxN5lG2f3OC7zw+tts33OQivoeQsIjCfD1+JSGRAt9HU20dg/iovaQs/hJJJcTFgtak4o5U1PsAZKvO5dUlCkcVHj7BRAbG0PWvnVMuvbHLJicgJPFgMpVjdpBR/OAjq7qIoqrWoVI86enroB1b39ApzFQGKRQtH1NnMrMpt/oQpC/p3DIhVHqbqWoqJju1hKOF48yc0qKfepqqyirZO2T6/FMDWe8cJLUKgtbP1jPcSGY5t30EyLcjXQ015BXcBY9Tnh5ujPYWs+ga4BNlHU2lJOVX8SoWYWbo5GP1r1MdlkrcQlxlFY0EBkWiEGrobWxDp3SyTYVbkNlOS29o2j6WlGHJjFad5pMkUZVVRVVzR24uLnbes/Ki/M5fbYGd78g4QiY6elopKKqhY7uXtQenjirpEf3aaic3JgwbRoxYf5SkEn+IxQOSrwDYr5QQeagVJIgBdllixItJ/dvI7N8gFkzpuLjouEPD9zLYPQqblliHdKaS0lVIw4u7ni4qzmw4Tl2Vxi5/8ZlFOcfY8jshYdKS6m1sdDkKGyGm62uP3Eig26NgkB/3483LppHePoXPyDfksA1qSpefn0Xy2+9HT/XiyIZh3jpDz/jzaN1XLFsGUkxQTSWF9EyoCRtcgrdwqbo1WE4amv4wy9/QqdDFHHBKvZ+sIncijZikhPxEfdq7Q3Td53lvu8+iPukFcxN8OXUkf0MuAYzZWISToZh8jIzqG7txz8gkKHOGt599Sl2nijBOyKBALWZouwsYX/rcFR7422dcEAikXw5OLpJQfY/xqUVZY5O+Pr64e/nR9aBDaRd8yOmxQbYFr/rGtbjMlrD0+t2YlGq6a0/zd4TtaTEe5CbcxaP0GQCTPW8vf2obchjbf4BivpciVRr2bZpPY39RiryMm3rCa1YPO2i9YRaKD1eRsTsOFw8Igh17mbrsVbctWeZsPK7WBozeO2dnShVCnJPnsSo8mSkMotSx3BSHKt4/KXdeHs6c7a4mD69StxXIYMWDyalhPHYCx9x6+pFtuGO6Xt3ovEJJXPXVmHsW2ziszZrB8Rfgbe2lY7eYTqEwMsuKiUsJoGivZvJruwSjpuW/Vu24z8ukZKMD9h2opqQ0HBCAgNwdZazKkkkEsnniaOzGyOdDew+ks+UubNw78nlZ49t5cHH/0zNwTdZvzuPmrLTpBdUERefSE3ubor6vbjnukW8+Nj99DhNY5zvIG+8+Aa9joHEeo3ym/97mIbeUU6n76K0z42Zk+IuGlbogL6zgvW70mnr7mbWiltZtWgyzhcpt6HGTL7/q+f53pPv8KM7VzNn1kymT5/G+JRkYQuc2fnSy1Rqwgl0rmfT5l1CQE0iysfM3m376dY5M2PeTMICfWxi0Kjt5Z2X38YlahKLFsxh8aKFTJ0yiRBPeOnhX7K/pJWmsmyO5dcQFaJmw9rXONM4RNLkCRx5+zm25VQzLMTa1o27CE1bQLivHB4ukUgkl4J/MwDv0jA82G+bgUynGWBU68/yK65gxaqr6D6dj9LHn3HJScTFRpF19ABKVy9CQ0KJSYzh4JtrKW5soLHXlRuvv4arly8gwFdYnk/gFxaJm6uajvoKKk4dJ2L6dNxdnTAZDeTt24vv9FVcu/oapkd7c6a8kvqmVnpGdOj6ajiVU4raL5IrV1/NnKkTCA4OZMKUqYR4O9PY2mFL3yzSGezrZliI206dicQJk1g4fQLD/V0izEL0+KnMnZ6KSqEgNmUWcW7d7D1dSWBQIEHB4Xgr69m4NRuDXk9YdCpzp6Xi5S4/5JdIJJLPHYUjk6el4efQwamzQuR88CGqKStYPS2aCZNnEexhoqwoh00HDtPQ0WU/CSxmM+3NtfQOaDAZNLS3toi/Rzi2YyP78ypxdlCg7W9j09rXqe09NxMn9Nbl8+GBXAI9jBzPqSN51jSqCk/SNaixxwBNfz29GhdmzpiAZaSf1/7vAa658TZ+9cfHKCiroKu5ifbOQabMX06MvxMp05ZzzZIlpEbEMXXufFISwjk36tLJJ46/Pfc4Ht1n+PPvHuKXj/yN/LO1NBUd4I2NJ1C6qDCbNRzdvIGznQriExJImjKH2YmB5Jw4TklNC2Hj5/HzX/+c5ND/ZCkIiUQikfz/cFmIsosJ9I/Dz9sLTx8/VBYTCqUjzk5OOKkc6O3uo62uhBMZ6eQWNTJt1iQGh4bod/Um2NfHNlWou4eHPaULODh5E+Hlymh/Ox8V9DAtKRBnR6XNyDb3dOMfE423tzfRgf5YjCZ0tolFwCv5Fh7/+dUc3vQGP/3xL9ifW47SUdyPi4ttIpGLBp+cx826RomPDx5urra1DqwoLAYKju+hqteL229cgbOxl4GBfs4U5pN+/AQDzvGMj3HGydkNX98Q3NUu59eWkEgkEsnnS1DiVGYlBpO1Yz3r3j/Mzd/5AQ6abp770+9oNUdw253fIjrcD6P5grj6Z9S3NmFUKG3fGIckTOe265bgen5xHRMb1rxIi9t09uzbzY+W+vCbe2/gN79/lpr+C2l7B6bgoxzkQHoxjsLexU+eSWpiGL0dNQyNXBBvbp7euAj1pXbzxlfYSbWwFVabp3ZxOm+POspPUNTqxF/f+oB9e/Zw5+Iodm7aQkF6AQMjClydlbh5h3P97bcQ4+WOi6saVzcPPPzi+Oszf2NxvAsv/fHHfOsHD3HqTLM9VYlEIpF80Vx2ouyckDmHdd8iDJveYCE6OsC2FtUDP/wxd61Oo6ismTB/P/wGGqnq6Ke0oJD+nl77mRch0khOjaajvpCaLlf81N7WINs6I+PjY6nMzLUtyHe6qhaVkyOe9ummy/e/yEfl7vz5mWf4/p3X011SisFBiU6rw6B0wqe3m+bBEbp72yisr7adY1tx4mM/wUJZ7j4+OFrLt++7GRch0Fx9E/Bx8+Pab3yLn/7sp4QYauk0WVskrWd//PdLJBKJ5PNFofJmzpx5VJ3aRe5ACPffNBOjoZ/OpiFiY5NwNw8yYF2bTmirc4v/Wm2R0tGF+oZ8KqoaqKtrt4VPS0kSFsqNG+7+EbHUsedkHR5u54aeO9gWKzWb9YzqnbnpW99F0d7JoJMbThadPQ44hU7jp3fN4Yn7V/HdXzzMwdMVDPb146AOsH2D/Gk4eTjhHqhCMzKMRme03qoNF5WJ5/74E+64+/v87amn2HM0H5OrH3GzpuLrZSZ50e1cNdWPXdsP4GgdJq/2RKsZZbC9gcO5laz+7sMcSc8g2bWJQ5kn7KlKJBKJ5IvmS1un7OzpDGJnXEWYpyNtjbXC+HgR5OlAy7AvM9OisJh0QmRVMPuqxXRWF5FX3MCy1dfRcno/72/cyKGcRn5gXdE7JgTDUBNvvfEWdd2jOPrEM39GMmrXsbnuh/qEcKobYO6NS2jKyyVi/ESmpCVTU3CMuHk3kZoUQcXRDbzxwU407pFcv/pKXAYbGQoYx8r58yjZ+QZrtu6hz+DMyuuvI8bbkR07tuEWOY9ZsQP87Zl3qKlrJi4miYikFHQD/QSHhBEV4k/VmWx8Uxaz/+WfUDPgRPGpdPbvy8Y1NIWVM0LYsOYtNm3fhjn0Cu67aS4DXS1Y3KJIjhlby0QikUgkXwyBfo4Ul9USN/967r9mFiqVO06KATZt2Ui3zoKPTwhTp8/E1FtDjzKE266cj4+TqP+3bKGksQMXd18mzpjDymuvJlTXyMOP/IE6h3gefvQ3JAS42a+iYFzKJAYb8vjTo3/kwOkubvvePaQEOmN0DWR8XKi9Gc6BaUuuJt7LQl7mMYqr20matYJfPvggsydFcvZEFqqIqSyeF0vOkb2ETl7NvKkxDA20sG3LdtzDxzEuNtzWW+fsE82UBB/O5J6iqLyRyKlX8LMf3sO06fNIi3bmzb8+zK7TvfzoD39ixZRoLCODHNuxmU6PSBI9NLz13F957tUNJMy5nge+excBcii9RCKRXBIu6TplEolEIpFIJBKJRCL5OJfd8EWJRCKRSCQSiUQi+V9CijKJRCKRSCQSiUQi+RKRokwikUgkEolEIpFIvkSkKJNIJBKJRCKRSCSSLxEpyiQSiUQikUgkEonkS0SKMsllj8ViOb99UVx8jS/yOhKJRCKRSP4XuLx8CenjXP58aeuUSST/jobKIj5Yt4Y9h45zIiODDLFZIiYQ7eNqj3GB0xl7aNa7E+zjgcN/sv62fohD+3fx9nsfcirzpO0a1i0weRb+bkp7pH+BUUNxyRkqWwdta9N9Fg5sWotjWCLeLmNr6Uk+Hz58+UE8x63A69yySroBjuUW4aByxctdbQ/8dEYHusg6foAPN3xESX0b7l5+eHm6MdDaxqBej4ta/Q8tWIaRLpH3JQzpXfHz/tfpSySSryYHP3iW94/XMnPaBByFbemqOcP76zZj9AgkOMD7Y/amubaYj7Z+AOpggv297aGfHbPJSFt9Ods2vsvGbQfo0UBQcCCuzir2b3yFnCY9E+Ij7bEllyNmo47OlgaOH9zDRzv30tQ9jJePHx5urig+xTcx9Nax8XiZyNcIewj0NeRz7HQPYSF+qKyLD/4zTHpOn60kJOhfr21rsZgp3P4eL67fet7PqWweJiw0BHe1kz3W/yf9tby0I5cZ4+PsARdjoe70GZQhQQx31HMku5LE2HD7McnFyJ4yyWVLe1MV9W3tRKdMZtr0abYt1M3J1sozOtRPc3MzPX2DGM0WKgpPUdrcjUkcG+nvprmpmf6h0bF2KlEhDfX30NLSwtCozpb2eYSoyimvYlDpfv4a1s1T6KWB3i50xrEWpZGhIUY1WnFtE71d7TQ1t6LRG0WlqKOmupyiygbbdYYHemlqbKKrb8h2bYvZZAtraWllYHgUcatkH95Na28/rc1NdPcP29vSLGhHh2hrbaFnYFjEGwvVjQyK39lk+53W3yb55xza8hzto/adT9Df04NWO0KLKDP9Q8LT+RhG1v/9D2w5VUfy1Ck467tY8/ILVLZ0s2P9BrZuPcCgVi+MrZ5OkT+NIi9HtAb7uVYsDAwOoBH519rSaMtTiUTy9SCAPt54/AmyaweFx23g1PF9bDh4HL3RgGagh8aGBtq7+kT9LARbazV7dm6gqqFV2JwuunoHMItKXz/SJ2xAJ1ZzYjLo6Olsp72zR6Rhsl9ljL72ep575Cc8+vQajh87wC++fy8vbjyCznAungWNsAkN4prntv5hjbBL1oalbpqaWhgY0drjSi49ZqpyD/LEUy/SavJg1aorce6t4O+PPUldzyjDI8OMjI7lj2awj4FP2BGrD9AufJ622kIyc6vR6kS+W4x0tbfQ1iH8kfPlYIz+6qPc9/vnae/pF76G8D9Emi3WhsQRUSbscWyIMtiYm0mnNui8j5OcGImriwqLyUBXW4s4r0P4O2bMQugNC3/Hdm2RSl9XDwaR9khfF8OjGjraWunpH7L5MlY0whdrEjZxtKeBzYeybWEGnYZOcc+t7V1ohZ+kGWzjl9/9BeWNnVz4BRZ0o8O0Cb+sW/hLYz6PmZ6ebuFv9dMmnsOIRm+LadRraG9tpkWkZzh34a8psqdMctnSUlcqRFkPSRNmEurvhUdQOMnhAQx11rBrx0FKy8spFWLI1cOb9up8zIHjiXbsY9ueQ1SUl9HU3omHfwhDLVXCwB3nTGkFdbXN+EfH4+Fs7wUzjJBRUIJS7cus1HF4eHiILZiwEA+y922kwzGKCB8Fx4+eYNhgplvc0/GT2VRUVYtKo5fA0CAa6msYNKsJcxrlxMlTFJ0ppaiwALfQRBxHW9m7dz+lFWXUtw/j7x9AwdEP6VN60VR+lpKSMjyC43DUdnEq4yg5hSVU1dSh9AwmwEXDto+2cVb8ltqmDlTiHgN93cfuW/IP7Hz3Uabe+DBh5x6RYZis4mr8/ALI2PI2tQNDlJwupKauCU//CHw8znWpadi3/iAJixaSlpTEtGkzSUuMxqDXkXv0ABXNw6ROSaIiO4PcgmKRH6JcNvcSFuZDU0M9OPtSeGov1fV1lJWcIS+3GN+YZPzcPqcWSIlE8qXhHxHOjnffYMRvAvMTXNn64UYsgWnMSg5g/86dnMjK5mR2Hiq/SFz07Zw4dZLx01fQWbKTg6d7SUtNpDV/I395+SjT5k+jOvcYW7fvIjeviAGzE1HChqgcx+xRT2cTW7d9QNKiO/jDQz8mNtAVs9KbGWnjOHVgA80GHyLVWt79YAvpRw6ybftO3CLG42Xo5N1168jJLaKqsRW/4Ah8Pf5xRInki8WiEwL+jQ9JW34jN191BaHBwcQnTyTIRYfWxZva8hI6e7VEhQdRsu9Dck3BJLoOsLeghbRILzKP7CfnTAVVZYW0joawaHYcxcf3kZFbSLXwC4ZHjfiLNJ3tvWfFJ7fx7t58UsZPxE85wL69R4V9Kqe2sdvWO+flocbWOScET1X6ftrcxjN/WrTwcUQ5igzH282BU8LGZeYUUFlVRZsQRz5uCs7kFzKq8CPIz5GNr7xH4KTxlG19k8z6IWpLTlNS3YSrdwAqTQeHDh+l4GylEJKl5LRauG3xJE5nHeVkThFni0UZNwlt0dfA+vXbcQsbR3SkG0WlbcQHuwqf5xjZp4upqKzA5OJPWIAzr7/0NP3DI+Rn59AxqCdA+H6FpzLIzssTflcFnRo1iZH/umfwq4zsKZNc1liHAWQKsXLk6BGO5JZgEf/1NJbTMqwidXwcdQV5nMoqwmiP35azi3cOVRKRkIivm5KBnhYO7N3F2YY+oqPCqcvazLq9JfbYdrTDVJw5PXYN25aP3kGBWqXgyOET9LXVUt3cykh/C2+/s4FRBy8SY0IpOPA+B3Lq7ImYqCqvwODoweS0ZNqyP2TzgSqaq06zW6QXHhEj0lMKR9/a8jNA+wDMXrAQZXcWO44UcjrnBAdOFAqRFwFdJbz84V4M3eW88u4OAkLjCPL1QDP6yR4eyb/EMEpZVY2tVa80fzflPRbmzp8nPJ9yNu0+idkeDdy48f7rGGqs5MD+3WzZsomcmg5h/IIIDo0mbXISAW4WcooqiJswmYRgT/ZuXkNVey+N9bV09AxSKfKvulPLzHlLUDYeZEdGkz1tiUTyVUbpFce1S1PIPbqH02fLqWzuZfr0NNzMfZRVN9DX1cpH77zAU+t3288Yo7Ysh5wCYROMJvqbitl3IJP6xmreef150vOraCg5zuNPvERNlzAGdnz9Q1i+/Bo6Sk+IY09R1mlmwsRkm2grzj7EqeIafALDmJISR3f9Wc7UdIljCna++WeeX5/ByEg/O95+mbe3pp+3iZJLh3Gwgw6lGyFBvjgrFbTkHeWNNW9zur4TbV8L9Q0NNLV12eJ2VhVT3jWMcaSLrKJSqsuLyCioJW1KGh5OjhgNRrSdxTz69zU4+4bjrzaTsX87BZUdtvOtJCRMxDMklqmJEZzY/SF1Gg9mzZhGb2Ue6blnGNZfsHJGg45qUSbHfJzj1DV30tuQxztbMolLm8WstATOHN3CsdxyGurqbOLR2nNVkl3AkN5A0xlRnqv7mDB1EoPd9TbRlbVvFzV9JubOnYl5tBuV8M+GB/qpq2kiPHE8PuZWdu87gcInjGBPf+YvnYJ+sIvC4lIKc7LILW4ibeYsot1HePHNjzBajOQd2IdGHUJKtD9lp3MpL6vkwy070Am/a3x8OP29F96XryNSlEkua4Kj4li07EpWrVrFqjmTUSgUaDVaBoXYqhAvvlbUGxaT8XyXeODERVw50Y/T2acoONvIcFcDrT0dDAwP0dDYjHtIBJredntsO64epE6bNXYN2zYLtaMT4UlTcewo4OjpatTu7gS6DdI4ZEA32ElVbTNeYeHoh/rsiZgwm0x0NNdztqwGz0AfcY96giOTmZ0aKSqgbCEQ6hgWBtqMJytWLCMxLpYJE8Lpbaugpb2T5u5hulqbMai8MRtGcPSO4ZYrZ1JRkEve6bMM6vQXdf1L/jO8WCmeedK4cUybO5f2ivLzz9KsHcDoFcu3br+JxcK4hAd4UHcmgxOF9bi5eeIf4IuL0iLKmYbykiJqhKJ2UysZ1V+UGzovZsyaQ0LiOGZPT2CgXQ5hlEi+DlhtzrJrrkNTcZJ3N+1nyNGfiRPG0Vlfw6jOQlLabOKjg2jt77Wf8c+w0CdsT1VNNS6u7vhHxBHj64VR+M1jA7IsmIx6QqKncve993PtioXo60/z57+/RZd9yBsKJV4+oj4y9tLUD7ff9wDzJgaScywbL+9QnJxdiBs3EbXFJEXZl4DS2RUnYeMNBqudB0cXNV4ernTUZHA05xONwRdhMeoYGOhFGTKO6ZPTWL5kOgF+Hgw251KrVQtB10pbzxCuXqK8aC7YFm8/X1RuXrYRNJW1tcxatpyJkyYzIzmUnpFBhnQXSoGjyoXkSfPtPs5S4qOChXgrxjV4OnMmjydl4hTmTgikrKzFfsbHUSgdiJ+7gLTUFCIiIzDq+qko6SFtwgSSk5O57rab8RPxrJ94jAwMUFNeavNZdHojLuIe1SpXQiKCcbQmZtSK8juCR0Qi0yZN4IprV9NbUoK1ydqFUOYumMuE8QkEeXtgMHtx5RVz0HQ2cPjQSXpHhm3xvq5IUSa5rPHw8iM2LpHEBLFFhdq64tPTD+GeOJlpk1MJ8HLHcNEbWlV8Cs/k+axevgQfZy3HhaByVnkSHTeOeQsW4qPQ4ejziQ+wVc62HirbNWxbJCpxJb+AYBJCHNibUYmnbwQRQtCpzA6MnzabBQsXoDYOoxRizcZoH8fLG/AMjWbWnNnimB6z2Uh3WyNOQclcdfUyDB21wiDXYLSoxT3Zv/i1mDErzLi7uBIZGsKU2fMZF+yGytGTvsaz9DpGsvqaKwnxtLaUZjIqVdl/SR9lNZ22D+n7Wxtw8Q/i3DQuCtMIa199kaI2DamTprJgwSKCnI20CCOoUFjdJQtdtblUdrkybdp021Aiy+gnRZczTiqHsaEiEonka4SC0JSFRHsMsvmjfQTFTyYp1puTe3fR2O/O6pWLUZvtoukilEpnunsb0Zu0FBVW28JcnNzx9gkidkIa44VTPCoEn5uj4ny90d/TxoY1z7M3PQedqKHMJg31zQ2YzPYeD4uRmqIsXluzhXGzr+LO65fhJRzeoDBfzO6+XL36KpxMPZhVTsjB05ceB/cQZsS6kHEql95BDUGpM7n5xutIihByxcEBR4MRg0YnhLiBspY68a89X5UqnJxcRQHoYkhvpr21B42I5+YTjYNWx+Q5C5k6KRUXBwMOrh//1Egh0lCKtAO9PamvawWzjpbOflwdlLioLkxW5qB0xD8oyu7jxOMvBI9PcDDdHTVoTGYhJPXU1bYSEBog7ssqpkYxDLaL8qcT5c+aggKV68WlSoV/gILWngH0BjOdteUMCEHW1d5AWbOWGbNnExViFWFjTQ4KB5Pt20cbSic8lAqMQ30M60z01Vdi9PW3lVmFQi1s6Vg0K6O9rbQOOzF/yVJWrJxPxvtv0X3xp3hfM6Qok3zlSElK4PimV3lt7WZqOpuwOOpEBTL2tsenTiFn87M888IaypuHmLXwKq66Yh6dJek88fijHGtw4cbFaba45+ms5YVHHhIv/Irz2zsn6nH18iU0IgbXkXZix6egDprEAzfOYstbL/CXvz5GpTaS+ZPtMw05e5As6t0D29bzyquvM+weTM9ACx6+flSd2Mzfnn+LHjyIDgvnnB47j9KV2XNnE+Y6yIt/e5w39xSzatF0vKPGoyvfw2NPv0R+ZTvx4yeilm/sP8U6AcyPb7fn4Q138ubWoxe1FjuRs/t1Hrj/+2w81crtt604X/kpXAP5xjUL2Pj0b1i1aiW33PUT6pVxXLtkGmHhKg5v205ltwqH7tP87alX2CAcMx8fP1q+5sMoJBLJGJ4+gSxfNgcnV3emT5+Br/h3wZWrGKzcze33PyRsQwimrgFG7D62lXkLVqNszuGaG75JQZd1BiIF4bHJ3Hzz9eTvepNn39/HguXLbDMGj6EgMDSOq65aSumxrTz88B/JaTHxf7/4Pv7qse/DjNpBirI/Yu+JHLa++zxXLprDQ6/s5bYHHyXaWMD37v0RbcpIrl4xWzp3XwYOzqy66Zuk+Wp55KEH+c593+X+H/+cCm0iN159NROSwjidvokf/Pgh2ruNIsfHnAGFgxNJKRMJcmzlpw/cy5od6fRrTKgjF/Dnu6fy4l8f5aW316N3i2V8bIjtHBteYSR25fKHNbtYfPUtlG75O3fe/X0ymi3MTJuE97lv5/8J/uOXcd0EIz+47z5++KNf0eo1i5uumkeYjwtbXn+Uh/7yPnrnYSHo7Cd8DEeW33o9Tdk7+fH3v8fT23PxVDjg6e2DYqiCF597nlNnO+ka7MVoVDB1moLffPdxeq0Ny0oXZs+ejrK3jJ+I3/vg37dwz/e+cb6h9GJcfUNwtab3yku89tZHpK64jgBbd9vXE4VwZCwDAwN4eXnZgySSywOTyWibuUrpKBzii4SM2WQQIsyAQmF9hcVxpfUNNYuKzRGlsETWiWusLTIOoiZRqax9Xmb0BoMtLYUIc3Z2sleFVizo9XoMBlFBXjRfrcrZRYgnE7knj5Jb1i4q17twEYetPS16cW2rBLS2PDmpHMV9mmz7CovZ9v2ANR0HccNmUcVYP8i1pm+dWejc/VjHdiudnFGKeNbhKiaLg23aW6O4R6O1SUqEO1mPi9+iF7/FZLtvaxyV+K3S1P4zdJphjGYH6+MTKHAUeWNFqVTyyHeu4erH3mOir7MtH5ycRBm4qExZZ8nUWfPJNrOT9VyVyCtHW1mzDkWx7psM1nwUZtSav+JchaOjrZXSWqZMRiNKEd/aYmmdpdFosZYNmVcSydcDi6if9egMZmE/nHEU9bDVFmittkbIH+u8Cybxr7P1u2FRjzuqnET9DlqtzjZLnaO1V0BU7a6uLrbh9jabIOoZaz1/bpKPMaxDGMdsjHW2XQdRn1jjWK+n045iVjgKu2S2zWh3Dkdx3FmkodNphS0S9lDUVc6fqN8klxaTUdgN4QucWw9MKWyF1X5bh/YZRN5atbst10U5USksY+XK+h2ZOM9o8yGEfXFQ2fwLqw3SC//Eapds6YiwC1krzrXOCi18EWsZOO9riH1rPIeLCoFRL8qqSPOTU+xbfRC9fVZHq69l82ms92+9phBZVmfKycUZs/V8R1FexY1b79H6y1TCtlqvae3Jtfoo1nu0/g697pzP4yDiWcu51X7qhH8j/na2/k6zuI7yU30enUaHk7U3UPhT1us4iGtY3xnr87Tdo7UX+GPvzNeLSy/KRKEc6usmM30/ZfX9pM5YwMwpKbi7Xuwof3HU5x2jXh3D3HGRokDJWkvy6ZhFBZK+8WleOdTOrx5+hKnRPvYjkq8if/nhN7j6kTVM9Jczkv3PYxol88A+9h/LZvo132TpzBScLT0897u/M+IfwpW3fpspkf+4xlRnxX7W7mrn3h9/C98vZInBQV7/1WPUWP8UzpBfWCzLly0nNSHC5pR/DLOBqsIsTpxpZdHVVxPj72Y/cAGz2SScK5PNibE1TAlH3uocXdz4JJFIJJLLh0s+JX5HeQYPPPgnfBNnkZYUSs6h3RTWDzJ+/DicHSwM9vUxMDRq+2DVwWpIdBo0Wuu6CYNiz9pb4GhrRdBrhujpG8CiGOutsK0HNTjA4LDG1kplM2JCqWs1w/SKeFaRbe2lKN2/kUytL9Pjw3Aw6+nt6bWtRWXtPbGYdIyKZzE8MITR2ssh0pX8b6JQOhIzcT43X3clod7Skf+qM3/VTQSp5WLdEoFpiG1vv87Tz71OI+GsWjCFkTPbuP77f+BMTTOTlt7AhGA1gwP9whYN21qsVSolTblreeiv6dzynVtQaQdta9WpnJwwakfo6e3DgCMuTmOtzEPCFll7ypXCkvQJm4ajMw5CDHZ1D+Ig7NzA4JCoY6yt1he3+Pbw0PKbONTQTVdbA1nph4ToaiB50jTC/FwZEOn0Dw0Jq+2Ek9LE6aM7WLMpg4kLlxDh5Ui/OD6s0eNi643RUZZ3lO2794N3JMPNRbzy/k6CQsMI8PES9nOE3v5+W++OTahZzIwOD9rCrPPXuLhcmkZSiUQikVzgEosyE288/CMib3+CH1w3i8ioWGIigjEYNHj6BdJcdprjx09ypqSM1r5h2+wzZ3P3c6yglurifMrqegiNCEUx1MaenfvIKyqwfdDo4e1LT1M5x46li3MraO8dJTI6Al1fA/t3H+J0URHlNS2oPX0YrT9DkzqK6ZHuHD+0l6zcAmrq21A4qXHSNrNfXL/w9FmMrv5EBf/nK/JLJBKJ5DLGrCHn6GGaeiz0jhhZvXoRJ9Y9SbtTML0DGpZcfR2OnSW2NaBOnDxOaeMQySkJDNWn88H+NlZcOYVD2zfRPOSAteP18J5tHDh4nKKKGvxComC0m80fvotW5UegYzvPv/ASqtCJePSf4KGH16E3D3H4wD7ahL6KCA/D1emcMBvi3T89y5wfvMTfH/ku8aHuFJwtZ2JaGtqWUrbv3MuJU5mUVHcSmxRPR0UBWWfbmb14Hh1nT7F9115y8gsYNHsR4KHnlT/9jDe2Z6P2cmHvlnfZsvc4Wo9gFiUH8NGG9RwUtq66qQt3n0DMA/Vs27yZw+knbOsGuQVGEubvab8viUQikVwKPjEm4otmlLOF3cyfkWDfh9C48Vx15ZX4Gxv4YPMBXEMSWDh7Irk7XmdfViVVZ3KpEEYxZUISuQcOUdPcxpGNz3G8zsLsObNhsJ7Mk5ns2rmT+n4zUSFe7FzzElmNA3TVFVPWaiA1JZ7qvCwyTuRzbtKWhuydPPfBEYIjYzH3N7D9o23UNjWSfaoQv4hYokJ97TElEolE8nXDO2w8Ubo2ihtE/b+vkJWrr7CFW4waaqvKKKuspfz0Cf74m/+jtN06UYOFwf5W3nntJQ7m1xEfH0XJ4fU889pGeoeHOfr2X/nd85vpG+wVdiSd2uYODMOtHDm4i7qOAUa6S9kohE9tn+gTrrgAAHOuSURBVBG1Qsf6t18VourcOodjWCxmDm19lgd/8RBrNu4jJGo8kcF+nD2dQ1VjG83lOfzlt7/iUMWF6de7qgt48qnnKKxqprvyBN+7/2fUCcEYEhKKp68/8YmpRAT54iH+ti6Knr/zTX7ztzfp6elhz4Y3eXPDLg7s2sirazfSI36mebiD8rpPLBsikUgkki+cSyzKHHHzdGRgSGffB6NuhM6OdurPFuHgkcjsaVNJnjSTmxbHkJtXi5tbABOSZzJ9xiyivdwxW0ykn8jkhu/cwaQJaay67htEu5no6uxlVKultWuQ8DAvWruH0euMwsAOUd/Ujl6rEH9fWM+qLCMdhX8kPe0tjAilpnZ3YnBUR2BwMilJE4kMkK2EEolE8nXFyTWISal+7P5gHZn90SxICrOFa0dG6e8fxs0vmImp8biYO+i1TatnYaCvlr17jqP2CCI81Jvi04UYDdbh8irGTZ6L8+gwF6zbP+Lk5MMNt36TlVdeiZNKS33LxxcZt87GFp04jSuWLuO2b97Lz390HwlBTkLo6XDzCmL6zOm4mzV09w3Zz4C68nLq+0ZQu6rwCo4nLd6Ffp2SmPh4/ILDmTx1DuOiQvEJjmDxlPEcObQfs5svnu7uRERE4OVkIiR+MtMnJtLRWEW7EHSuzkrbh/wSiUQiuXRcYlHmwjU3zObtNzYyItSRxWykqiCTbdv2MKj0YGio0/ZNl3WYY0V5AwEhfigdrLPWOI+dbicsMJDy6hYsJgNN1aWcrWhCpfYgPCqWadMmCqFnxMfNhYzjh1AExZA8Lg4fTzWGi9Y2CAgNQqd3ZOqMqcTFhGExGHFVOaJUWmctusSPRSKRSCSXFGdfF6bOmkD2vh34TZlHuPfYmoPdrY3sP3wCVWA80yYk4Hx+eKECv6BE7n/guxjbyzieW4W7jxeOXj4sXbVKiKUeHNw9cFUo0OgM9AwO0dzUzciQxn6+sGymXkorGxgd7MGkB0+3j0+wZbU9Mxbfwc8ffJD77/mmuH48+u4KPtpxAL/kGVwxLY5Projl5eWBi3VK7WkLmBHnS1u/ghA/d5xc3DGbzZiMZlROatvMoRahLaNCAzE6uDFn3gIC3IT4clDh7eXLrEWr+Nadt+PTmscjf16LXP5cIpFILi2XWH0omHfLgyzxa+TBH/yAH/zoR7y+KZ3QhAlMmLGYK8a78Oxffs8Pv/cjTpuncPPScfbzPs5tP/g1FRse40c/e5B3tqeTMH8pC2amUJ25h5deeIVh3wnMiPYiPi6KvP0b+GDLXhq72zArtefXs5pw7X0s8W/iledfZdehbELiJxHq/XHxJ5FIJJKvJ46ujiROmYmjQc/0hVfg7OKCnwj3CwljamoERza8yvpDZ3EyKOjoHRRHFKjdgrnm1puYlRrA4T0HGb/0NiZHWvjTr37J8SYn7rhtBcEBgcxMjuHDF5/kmbd30DN8oTXQZHTlxJZneOgPz5IwdTkLpo23H/nneASNY8H0BDY+/zCPbTxDeJgzQ5399qMQN30Rd18zi/3rnuOxtw+w6vZ7iPNVExIRj7k2nxffeANX/xhc285w52+eYeV9v2FFpJk//elRSvqdmT13Dl4qI4Und/OXvz5ORpOOa69ZhpzeSCKRSC4tX8o6Zdb1hIZHdVYbh9JBJQydm23NAr12lJFRrW1tB0dnNe5qJxFmXYPBBVdnB0YGh1GpXXFSKhjsH8Ao9JV1XQU3dzcsRj2joxrbmgcqca6HuytG3SiDQ6M4WGdsFNdVWddBwITRwQk3ZxWa4QE0epNt3SJXtbgHpRmNzmwzztZ1RSQSiUTyNcNiZmR4CINZibubE/29/Ti5++DuZKa3bwi1p7CFBo2wUWMz+Zr0etx8/HGyjNI3aMTXb2z2Qp0R3NQuaEeHGdXocFC54OPjhVJhQTsyzNCIVpyvxGg04uHtR0/Ok4xfvYP0s3sJdTTg6uYhbJyrbTbhMUz0tnWi8vTHw+2imULt9zssbKOjs4t1zD9Oam+cFAZGNAbcPT2w6DUMDo/YZij28PJBbV0LSK/DatsVTq42e2f7zQoVgb6eDA3023rzVM6ueHi442AxMjw0LML0WNd79BDPQO0iZyuVSCSSS4lcPFoikUgkki+YlpN/ZdINu8mqzSD+H5cVk0gkEsn/OFKUSSQSiUQikUgkEsmXiJzRQiKRSCQSiUQikUi+RKQok0gkEolEIpFIJJIvESnKJBKJRCKRSCQSieRLRIoyiUQikUgkEolEIvkSkaJMIpFIJBKJRCKRSL5EpCiTXLYUndrP3bcsZ+GSK7hi6dj2kyfW2o/+dxx96Q+8kNNm3/ts9Dfks37dFoqreu0hksuR330rmTNd9h0rw608v2Yd+WV19oB/Rh9/vPl3VHUP2PcF+kEO7N/B+3tP2AMkEsn/JBYLJ7e/zuql80ibNoufPvIiVU3/mS0wGvX86jszeHLNNnvI54tF082rj/+CRdOnMnXeEv70/Fpa+zT2o5/ArCN7z3vce8+DZORk8uN7b+Ol7afQWhd+/YxY1+4b6O5Bb+jjjUd/yS+EXW4b0NqP/o9jHOXQ5jf5wQP3cdd3vs3PfvtX6ns0VBVns279ezT0G+0R//957v+uYvZtP0dn37foBtj0yuP88JFnqer9x/zQDzazf/ta9mRU2UM+X8wmA6XCb/v59++3/fZ7v/czdqUXojWY7TE+TsWxHby98xBtw3p7iLDG3R08L8pU+/9ocZKiTHLZoh0dInXeCt74YAd7du+xbX//+Z32o/8dw70d9Gj+s0rRZNDQ3z+ITm+yh0guRzqaK9FenEXuIXz/rtuZnBRtD/hnmOhs7EBvushwOHlwxdKruG35HHuARCL5X8Q8XM5PHvgVw17jWDQtieMbX2TN5t306z7d0fxUhLBrb6mhq2/QHvB5ouOFX3yTnz+7jdQFy5g+LoS1z/yVF97cjObTblHci2aon5aWNkZHR2ltaaJ3cNQa/Jkw6bUceusFfvyLlxhVeXP3/z3G48IuB3u62GP8L2Nm19tPc7Rawe//9BRvvvo6t8/04be/fIY+jfAjBvqFnfns4vff0dPRgENFLpn1Ywqmr7WBujM5DJsVH7dndsxmA8ODfQyNnJNxny/dtad57MV1fPOXj9l++19+cSu7P9xIRWMrn/arExdcxTdXLSHY3ckeIsqX0UhPVzuGz+8xfaWQokxyWWPQ6xkeHmJoaGyz6qKGvI+455fPYhRWpOrUbt54dwMFRQU88tD3uOmGG/nGt+/nSEkzbXVlPPGr73PLTTfwrZ8+QmlDu83wFG19kW/dcTs3f+Nedp2sYqS7kVef+hN33nYzy1deyTNbcjHqR9nxxmPceP31/OT3fyevQlQqZiPpW9/kG7dez803rOYnf36doqJ8Xn76MbIbBtn79pN8+4d/pbVzkLPb/sQv3zxl/xWSL4XBJv703MucKqrk99++lT8/+RC33XIL9/3o/yht7rdH+ifo+tm+7QNe3bKHl174C4/85nvce9f1LF5xPflNowx2NvH6Y7/ipuuu4e77f87R/AoMbfksXH0r937rWzyzbr89IYlE8pVGiBCNwp1pi1fzi98+whNPPMbUifFYjBp2vvYY01LiSJw4i8ff2MZIbxN/+/W3mbtwMQvmzmb81IVszaywJWMU6RzbtpaF01KZs+oOjp6uFA6olp1vPM7stERix6Xyw989S1NXB28/9gtmTZlB2uQpPLXxGMc/eJ6ZE2IJCo7g5vt+SUX7iC1NK9qmfF7ZXsTfNqbz4lNCjL30GocPbOGHd1+HStPDu8/9jhmTkohLmvz/2rsL+KiutIHD/8lkkslk4u6eEIEAwbVYKVpaSmmpUm+3u3X3dutKqSLF3d1dA4EkhLi7u09GvjuToaW73d3ufruF0vO08yO5NnZz3vPec+45PPf+D1Iy+csXJbsaS3j5wamEBvsxZvp97D6TQ1d7A+u/e5+hfaMIjuzD24v3UZN1mFufeZXVq7/h5aff5JXHH2D2i3Mprmlk/5KPGNonnICIXvzppc/Jr25hy+I3GT0qjpmTxuDn58O0Z+ZesxVuXWMh+zK6GD1mMO6u9lhZWRE7XkqYHxqGlA+Z6LWt7Fz5BXfMnCnVV2bwwcLtaLo0ZMTv44nZdzHtxhu5+4k3yS6u5PPnb+ft977m7jtuYcbdD0n1mrLug1zmvkduYM26g1LdRk9hTSv1Glsi/ZykJ+pi1/I53HX7Hdw4bQJ3P/kxdZ3dH3xXZwu7l33OO18upaahicMrPufmKZOZdeddzFm0mabaIj6Y+w374lNM23/01M2sS67n8LLnuf2pF5g54xYefvptzmeW/izZOrlpKWHXP0rvQFcspOxC7RUjxc3xuDioSdv8Gn9+/4S0lZ5zRw7z2dtfcGLXKr5cvZWCyjK+fu1xpk6X6lsvvE1elfFzauPkzuU8eM9tTJs+g7fnbaLtD3BhXCRlwlUt4dAOXnziYR548AHTY/WpQpyCBxGoSSWlpI7U4gYcHZ04v20ZFiGjePOv7/Lk3SP59q+fkFtWRifevPjOB9w/bRgqa0tTAWLtMYTFSxfx1APjOXD4MMXZ6VLhEcZTr73LFy/exfL162itzmT10TLmr9rAq4/fh7+jNW1l5/hhZy7vz13M2vWbGaq8wPbThXh5eZCXkkhph4bGymRaNU1s3JzM9El9u9+EcBXIwaXfA6xcuYx7xgaxdMXOX7xy94sqS3GPncIXC9bzzo3erNx0jqwLhzldZslr733CjEEeHNx/nMraVnLrrPhs0RKeumu8eWdBEH7PZM69eF2qHB+a/zpTpt/O0m0nUFkqacs6xKvvr2LW61/x2cu3seGjt9iXWmvaR+3bh2+XrueuQU68+fF8qRqKVN7ICeo9lkWLvqeHRSOnzqaTG7+Fp95bz/OLD3Lu0EYaEzbw5dLussnSPpSvF63lien9KCmv5b5XvuC9V2ZTeGo/x07mmJ7HqLkuhxadI317eJl+VyjVBIZF4+Nqx5m9q1i4PZkPFm3j3P6FHP/hWRZsTjRt97cOLv2Ib440MXf+YoZ6t/H1t/M5fmQ/i3fE89RHS9n5zdPsXb2Cdq+hfHrXLYya+DDvffBnnBXd+9el7ZYq6vN45Lt9nNu3Cm36TuYu3oGxGt2uteJeKeFc9fad7JjzA4XXaNe0zpYaZGoZahurHyvXVtYq+g4cwaXGoPKkg+xIamT248/w3ruvkrP+I/amVVBWXkafyQ/w2ad/xbOxiaKKatNnV+kSy5LFS3ny9mHsP3Sk+yCXCRo+g87EzVQ3NUj1lhLsPaNQSU+uay4lsUDLs6+9yscffo5L/QFSyjqkhKyZAxuWcrrchjtm3Ii6NYXnvj3Ci+9/xjOP3Is2/xgHz/xyl/8urQwX994sX7WC8ZH2JJxLoKHjpxa5i6VVeEcFSz/pyUs9y5J5c9mwaSvpxfXo/klTbPrelSTZj2Trhk2899ydyLsUVGancPhsNsNuepiP/voKxfvmcaLof9HSfHURSZlwVRs6YQbzlm1g86bNpsf914WgUtkzeEA029dtoaWzC4+AYGqqKii9eJKN69ez+0gKdnJL1G6eqO3bWbFoEYdPXqCyvg29VC6EDYhFJrPA2kqFRXMb1q7eKLStnD60ky37jtOl06FtKKPDOQAnpQWePq54+7rRUlOEvVcQDkoraX8ZUbE9aWxuwsnZg4bUQ3Qqe9DH05XUnCQuaIKJ9bI2vwvhyvNlcC8/LKTzwjUgHG11Jb++E6snYX6eKK3kOHqo0bV0Ul+RRn5hPts2rOVkagGNrQ0Y9F34h/hiL0pVQbhmtFXloAwazYLlK3nvpceQ1yTx7fxlnD2VSFNnC7tWzueHVXux8/Omo767Bcvf3xMXDy96BYdSWlWG8Y4ZhZWCgEBfPNxUOLrZoNPrKU7Po83Bj0GRntjYuRPj70VhSZGpbPII9MfB1Q2LzkZOnz7K+o2bKK7rwspSj05nbnaR2Dj4SnGqmfiENCl2GehobSQt6RxZBeXklRRj4+JEgJs9jr6xxASpyM1NM+/5cynZeXQ0l7Dgm685fbEEV7WcAikZ1Fjb4CEleBFDp7Pg8xek8s2AhbXcvNdPyjMzaOjyZlhcALZ2rvSQPo/KgjKMd7a5e3vg6aQmOFJKHGVdUuW+e59rjZXaHWu9jNb2TlNdw6hL00ZaciLN5u6u1SVVNFYWs3fXDtau34bB3pna5g7UDo60ll1g69btUh2i1NQryMhY15FZWKC0tfvlxMbKi7ERMrYcy6K4pJSe/SNNi3UyayKCXTl95BCbNm+ioKrF1FOoubaKUinh00qvU6fX0VhxkUZNO3s3rWX73gOUtujQdTZ1d2c1P51e232+WUvnQmhYDApLa3w8HOnUa2nV/PRlhnp5Up1fLKVkMpzcfejTfzD6+lzyK+uQTnfpmN0HNUi/SLv+qEg6T3wiQkw/q91CCQ10oLaxmcKiHOJPHJQ+p+10yiypMP99XctE9UG4qjXVV5OdmUZauvmRX4qlVDD4R/cnN/4gTXpLeoQFEhbWg9DYwdx+193cMKIPfa8bglLbjotfFLdOn0xnUQrns4tN/bnlluaAYiog9KTEnyAtr4I+Q0czuGeYqcCwdgnEraOE00lpXLiQQUFxLXaeYcibCjh3MZ3CvAwOnU4lLKIXvi6OUkGURYelFWOv78X6JQsJHHMjoof9b8v4beZnmc+TjCwq6xovxRRJDfv2n6QgL5ekMwm49QjH0rymWzt5WRnmfTOkilS9ebmRHAsLmflnqU4hV+Dm15t+vXpz4y23ct2wYYwcOhB7e1tp5U/bCYLw+9dRl8M7z/6FL35YQ2p2CZ0GOUqVAvfQcLxcPZhw+/08cMdUescNpn9vb9M+2VI5cuzQPg4lptG7Zyw/3THzc77RPfGT1bBh6z6OHT1EUmkDfXpGSyWOVJQYyxypPDG0VLH36Hl6jZhChLcTGq2FsVrbfQCJ2qcvd08ZzPfvPc/Hn37Gh+//lVfffJu98WkEhkRh0dLAoWPHObh7AxnV1vSL++UeHH1ie+PoEsB9Dz3CtAlj6Dd4JP0jA3Cgk9OnTrF74xJe/3AexnEqVJ5KGmpLyJWSh0tdET2jehPs3siGdTs5euwoF4vriO4T8bM4aHpP1zBLey+Gh7iScOwY56R6Q3FhHvu3r2LZpr20a7uTMreAAAJCIxg/9WZmzZhIqFSX6eUm5+jBPXQ4hjJq5DD8PO2kgKY3fcsKS3NT5D8xYvJYDm5cTTWeBLt0XwxuLk5k/b4LRPQdxoTrBuFsY0WnToeDZxB3PPAQoTYNHD5xFplDD2L8Axg7dQa33DSVOOk86BETiULTSmlRIRmp5ykqqjAds7OjldTEE6RK53eyVGdyUNthb/1TJB08fgr153dJ52uClITKsLNTIbNSY6e0wt7ZnbKcBHJyc7mYkkb9Zbe1hcfEUHHuOOn5RaQlnKSooh1XFxeio2IYOWa8VIebRO9+oxgmJZnXOvmbks7OTpRKUYUUri6tTXXkZGVSUlZhqkzn5OSQ0yz94ceEGTvoU1acjl3ECIZE+ePp6U5FSRH5+TmUVTYR2ncgwa62lORkUlRZj4NXEEMH9cO6rRqLwD708rChtaWR5g45cX3CpeSvluq6JmTWVug1VtwwaTzOFk2kZRfS0NSM0sGX2H4DCXDQk5OfS2FRCZbOoUy8fiTu9hYUVbXgFRTF4H5hnD6YwcwH7sDXXrSU/Zby0k9TUm2guEA6T4rKsba1RaZQEiwFwYtHtiH3CqO2IA+d0plx48bg+uON6VoKLl6gqKGKgvw88guL0VurcbazwcrWEQepIuEZGoSHq7NUQSumyaoHw/qHom8sJ7OggOrGTkJ6RBPgakNmeRvjh/Q2H1cQhN87G2c/fBzkZKUlk5ZViGtQT2697TYGDRiAr5slGRfTKa9sIDxuBAN6uJNw4iAldXocrQ20yh25/567CPJ0JC8rEd+o6+gd4klpWQ2ewTEMHDKAAGc56alplFVUEdJ7JDOmjEHbWINO5Ua/fr1wdnTARqYhr7BESgYdcfVwJaJnbyKDPbtfoFxJZHQUlh3VnIs/S0lDJ72HXs/EscOIiQjBztIgxc48CgvLiR09k9umjkTbXEt9mwVx/XvRIsW+kF6DGTO8P6q2GjILS+m0sGPQiOHE9gjCScooC/ILKCivIazPSEYNlCrsch1lZeWmljwbSwvUUkV/5HXXERlgK72XVMqqagnsNYTpU6/HQnpdbXob+vcbhFreSkpOJzfdNgWHf51r/P7I5Hj7eEqfaRVFeQVkSfGkRUo++o+eRJCzlWmEy6i+Q3CQNUnrjbGmRDq/AhncPwaZto3Kymo6O3UY5HrCYvtK32ktHj0GE+hoSWtzIy0GFX0vG7iqJDeZwD4TCfBypzQtnl7XTcdXLdWdZFYEBodi1dlIZVUNnXo9DlZWuEfE4qyQEjOvaAb39OBiajEhfQYRquokQ/qOi8orsXXyoWevGBwtNJQWF1DTojHFwOABo9EXSslmgRyVoQGD2ovBAwfg5WLHpVRb7eKDi3WHdL4UUVCQT6n0ftz9I6X31wcfb1+qi1KplOpZOqzx8PMg2M9ViscOUsLVD8u6IrJy8qlv6sTWwZVh11+Ho6VO+pyypfpWKQp7PwbG9cBaOt+uZTKDpLGxEQcHB/MiQbg6tLc2S4VUBe2X35gsVZJDPVQc3LqdlLwyJt39GJFetqZV7c11pmZ5aztXfDxdsDDoaW6oo7q2UdrNBVdnB9rrKulQST+rLOloa6VJKnBcpEKlrrqKpjYtHl5u1EtJnHegDwZNO5UVlWCpQKlUY2urlgoEPZXlpTR1GPD29UWtlCKLXisldA2mFjxHWytK8ivxCPLB6hq/Kni1KS9Kp+FS7wa5AhdnJ1O3D7XKlvceuZnJby3ARdOCs6ePKeH6iY6KgiIa2jtMVyZlFnIcnF2k79YSrUGOFCWxUtuislGiaa6iscsOd2clHa1NVEgBTyFVlNxdnFCgobCqmQBvt+7DCoJwTdBpO6mqKKelXYudkxQ/nBywlFug7+qkrKQEqYTA188HeVsZn7/3KvnyHvxp9h04qFV4uzubGtDLS7KxtPXA1d6a6upaKZeylxIuqUKr11BeWkJblwWe3j5SuSOnsbaGli5wdXM1VUI7WxsoKq3GztkNi64WZNK+bk725lfXraujmdKSCrRyqfLt7oG9bfdFJ60UxyrKy+nQWUqv0RelQkZbUwO1jW04uzjSID2Xtb0rLva2aKTnKZFiqI30u6ebE8YQpu00JgtVdOjl+Pj4SPtb0CUtqyirwFKlRi7FP62UGLpJx1LIpLJUei/NXTI8PL2xV1nRIiWYDS0d0nvxwFLXTE5hA0HhwVhfw3Vr40BhlWWVNEt1F1fpc3B1sKWzo422dinhsHfEUt9p+k5ape/cz9/P9J10trVQISUxCpW9VHeQ0haVA5qWWhSOXthbyehobzHVO9ydf/req8vzULkESokx1FaVoXLyQqFrp1WjQ2VnR1dTjZQgS/V7dy9sDW1oFLYopOc2WNpibyOXzrtqaZ0rKqkaU1ZSTLveEk9PaVupXqPr6qCqslL6bqVt5VJmqXYleeP7nGwdzx03eGPj4Iyzg53pHLmcXqelqb6GmoZm0/2N7tI5bGPdnYE311dSVd+Og6MzcrRYW8ml89ICOzspk9S0UlxcKp2L7tK5oe3uuqvrpLa6muZ2HR7eXtLfxj9qc752/OZJ2Yo5L7Fgdwp2Vt1/kX5R/bnv4ceJC3Qy/f7/UZW2l1c/XkRZTYupu5GVnQu3SJX2mdf3/zGTp6Oc5z7ewOtP34+d7eUVM+H3or21hm1rNuHVe6Rp1Kpr/MKJ8F+wZfFX9Jn+EP52136hLvwr7Wz77hu+WrCK7mEZpMqvXxSPPP0a04aHmZf8B1pzuPPGx7nxgwXM6OdrXvif0Xe1k3BkF3PmzqNGZ8+9Tz7HTSP7SpW3n9/Lo2su4+vPPmPl4VI+//ZDBvbw/7fvSahMPsnHn25kxAN341R4gJd2lrFv1cf8+uhooKXFGHMtUan+2DFV317Pvl1bqLP0YcoN434c3EEQfu8Meh3ZZ3dSZOjL2EE+5qXCf9tvXp2tLMln4J/eZ/GixabHey89SS+//05CqGmtR+U9mI8/+9p07I9ffpSji78gveaylhZrd157cjZqleiu+XulVDlz46y7pIQsTCRkwq8y8fYH8RU1JMFET215MfWNlsTGDWH06NFYVyTw9BOvU/HT+An/Pl076RcuUNX800So/6mm8iK2rliHY5/J3DM+lk1r1lFTd9nk5mZF6Rc4cfYUBed3sPlg8n80l6KmpYm8jFxqG1vpO/1BNn/z2r9xP6yBzIS9vP/Wu8Rf7L7v5I/MQunI6Mm3M33CddiK4ka4hhh7kITE3cDIft2jfAr/G1ekSquwtsHGRnqoVKZ/LfWtbPvhS+6ccTOjR17Ho+8vxmDQUZB4mAdvnsQNk6fyyYK1VDc1snnBO0yaMJkpk27k63VHfhzh5hK5pTVqtR12dnbYu3ihtm0g5eRhPnjiPqbfeRffrljGLY++TWNzK28+eD1PP/caU2+cyIOPPMp7777C9WPH8tZ322hu7yL7+GqmTRjLpJtn8PZXK6ipLJC2eZ0bb7yJP7/1HR2a/08EF/5TppETlUopIRPdA4VfR2Ft/XfdLIQ/toDIEfz5yZd4883XefjmAXRJCYamrpBPnppJVGRv+gyfwJwvniQ8dIhpKOb21gqmD/Tn3flHyDx/iLsnDcXF2YW4UdM5lVllOqamrZnVnz9Dj8AApt3/MhcLamkuz+SZu6fgau/MiBvvIamwnuKs8/xp5hjcXFzoNXQSu89kYx4HwETl7EhgqAPx25fw5bLNuPmESrFSZV5rZugk+cJ59PYx3DVzAsf275TiVodpFNDDy54mIKC/FCdHEBoTx9dr9tHSWc6dIQFMfOgv9Anyof91t7D3XKH5YN0OffMGAdfNplWv48KRjYztF4WvfxjPfbyQsoZ2Lu5bxeh+4dJrsWPkjbM5ePwc37z1Jh9+/glPvPgMZ5OTWP7Fi0T7e+Id1ItX566iuamaL99+gvA+faTXEsuctbukz3gW7i6OeAf24OVPV9J82XXT3zWZDIWVNVYKxU+9cwThGiG3VKAQV8L/p67Ip7vy5fuYOnUqU2+5g48XbaWqJItygwt/euk9li2bS97iNeS3trBlzRImvPgdm5d8jocUj06sncfmdDkffP45c+e8R+bGLzhV3GY+areSrFN889UXfPTRR3z83l/p8JpOHz8VFk7BPPbsBzx68yjslN1v2yCT49DvZpbO/YRoT0d8e93I1iUfUFiQQnNtDg/+eQ7PfvQdX7z9HK7aXDYfPEt5kwV3PfUqX7zxCEqra/FOVUEQhGtf/J6vGD20p5S8BHHHX7dz+wN3YyczXuXrwLfPMBatXM1to/v/zSidkq5mEk8colDvzzer1vP07WNobOyeP0cmt2bAuNmsWPo1bTUpnElNYe03H5DQ6MOeowcZZlXEs298TlricZLKrXh/4Spef2Q62o520xDpJgYDrc2tNHVa0lpXSqdTFLeMH0Bzc9PPhsRurSrkbEIStt6BTLnxBpqSj3EgrTs5lF4kNq5q/vLuUt58cAJbN6wlxzyCWrs2iEOJiUwJ7+T7eUtp+oWEqLOjkW8+eJuYGW+xe/XXdBSlcTErjcKKWu5+8XM2r/6E+nM7OZ7ays0P3c+NE6byybsfI8s5zJvLzvLDoRTO7Z1H/Mp3+GFrgumYKo9eLF25lXt6y/h27V4e+2w925fPJcjJQKNxNARBEIQ/uCuSlN39yQr27dvHvu0beOWhm1HZe+DrKCPh6A5+WLSCknotXTo9VXW1RIb5onQOZNqkCTgatNRJCdySHxby/YLlNFtYUfE3XTrsXLzpHRfHgEEDuP3RF/n0zfuwkd6l2s1Revz8xlgLuQW9eoYgt5Lj7u2Ni4MnShs1WoMMQ0MxCbWtbF/1A4uWruVslnFUnFbcPF1ws1OZhqwVBEEQfp9Ceo7lxdfe5bPPPuPVP01h6UcvcabMOFKMLd6u/vi6OyC3MIbILvSmLhk69MbegQpb+gweSW+PTr777BP2nM+UkhjjbEzGFlkrgmNicLW1x0Vtj0bfQlFeMcXJR3np+Rc4lNeEdYcB396DGBFpz4pvPmfjkXO0tLeZkjEjfVcb8ftWsfl4EU+8+jaRynLmvPU4dzz/Oc1ac/dEg56CnBzi45NJPrmX75dtoam+hAU/bDYPUW6Jk70/YaH+ePkH0aJtobW9exSc6OFDsbNREhPjRVNVMQ2/MJGvXldHaW4TAT7hRPYbzqsvP8eAEHfSLpxl0Q8LSMhpQKkw0NXVhXHORpm5JpGWk4eDXxAxPvY4ePYgxN+FgoIs0zr3ID9pmRsO/gP4810zOLzgNVMPlDopIdOKXieCIAhXJin7W/kX4zmclE1Yv9FMnTgaJ5Xe1H/Vx8uThFMJ5GZeYPe+w7Rb2RMS1ZtZ9z7Iw/fNpP/AEfQPdDEfpZujWxAjR4xm3JhxpuFcFZfe4S/0JTAuUlr+3XXQbrbujOkZyg0z7uL+++5m6qihxEX1kFZIe4l+CYIgCL9rxlHCjNPBdHR0ILdWYSPT0aoxtlZJSYaUZRhHzFMoHbGxbOLMqXhOnzhGRZMxH9JjqXJk+IRbuGv6BKov7ufr5du7D/p3rAmKDCK471hee/NNZkwYzuTbrsdRSuziRk3lnpk30lmcwPyVW00TzhoZpISryzhNjY0dngHhxAR6knQ+xTTMdk1ddwal62wmM+UMjTobeoSHYGvvznWj+pGwZzkXq4wJop7a2kKOHTlCUlIqHo4eONrZmfbNPH2A02fOkZheg2dgDxx+YeYOC7mjFGu9SJOSyf27tzJ/4VJSUi5w4EQi0SOmMapPCDrTfFnSZ2RlLX2WTRQVF+EXEAx1pew7Fk/8iUOU1GqJjojoPqjxA5X+13S24ddrGH9+4gl6+1mzccl3nBT3owmCIPz285SV5KdhGzqI3p7dw5h301NfXysFkTraWjV0GNoZNn4yQa4OpF5IorxSKrBtXYgbMhh5WzmFBUUU5OdjYevNgH7RmAdypLOlmsoWJb2iQ7AxDlVu1tnaRGNHF95B4bgpdaTlVTN8QCzlhRn4x47GU6mhvqEFB49gfF0syChtlI47gCgPHcnpRZQUlaCVq4iJDKOxtZ1AP388XRzNRxcEQRB+P3RUFBaRmZVCem4GFy9epKBGz7Q77uOm4b2oKzfOQRjEwP4xqG3s6WqtITOnGLnCii69jj4DR+FsWcfJ+ARqGjtxcvdnwtTJ9Ax05PzZTOJumEKgWk9RdT3hUX0Y3q8PtVV55GbnUauRM3bM9Vh1VnH8xEkq6juwd/Fm7A3X06dHsGmYdQu5ArWDK+1NFWRn5dIhUzF05EicbCzpNWg4nvbWdLQ0kpxwDq/+k3nzjZe59aapjB8RQ/a5BOxDh+LQdI6tRysJDnCgrq6d0eOn0T/Wlx3fLKQjqjeqhmJqDS7ccsetBEu5WkFpA1GD++Eka6awU8Ud08bj5eZMfs5F01Dsaq8ABg0agIu1nty8AjRaS+wc7AiMjqN/pA/VlWW06JWMuG4E7goNKWmZFBeVEj5wAjMmj6Sxuhytyp2hcbGo9Q0c3L2P/IoGDAobovsM4fpRw3AR8zoKgvAH95sPiV9dVoje3hsP9WX3Yxl01FVXUlnbhKunL1opGNl7SYmVXEtNZSkNrTo8vHxwUCvRadooKiik3WBNUHAgNj82hUFXWwPVzTrcjHMGXXYzYld7qymZUjk4o5KOWVBai5+3BzXlhdi4BaCWd9HY2Ixc6YC9UgqmVY1SQHKRjiGTErd86tv0ePn54aSSS6+xEVu1WgrWYvRGQRCE3x89dRXllFfWcOl2KoXSjoBAfynm6KmpqqDTYIOXtxtSCKC1vpKCslpcvX1orynFxtkfd0dr6mqqqKxuQGnvgp+Pu2meuqyMPJwDQrGXayivrkPt6CwlG2qa6yooKqnBwdPP1C3SoNfSWFcjvYZaFLaO+Pp4oFT81GvD2FrW0lBLWUU1cikx9PF0o7mpCSdXVxQWMrSaTirKSsHGER8P5+7OGwYNeWlZyBw8KDz0AS8trOP7Je+iluKrp6cnKmU9d4b0x+OvG3iivx16GycpDrqjb2umVHp/9h7S++1spLBeQ3R4IAZtF9XlxTS0dcdfR3uVaR6rgqIy6TPwRqmpp8PSDl83e6oqy2nulEnvwwsrWRdF+QV0YENAkD8qSwM1Unxv6pLj7emOUorNmlbpeYpK6JQppM/ZV/qM/mYQE0EQhD8gMXm0IAiCIFwjjPMJZZxax4bj7fzp6dk4/Xj9s4nvn3sLh1ue4LaB/uZlgiAIwtVCJGWCIAiCcA3Ratpp1xiwtVVdNhWEgdamJiyUamysxFBVgiAIVxuRlAmCIAiCIAiCIFxBP914JQiCIAiCIAiCIPzmRFImCIIgCIIgCIJwBYmkTBAEQRAEQRAE4Qr6zecpE4Rfq7wwk13bN3Hs1DnOnz/HuXPnKG02EBHobd7in6suKyYj7SKOXv4/TSL+TzSWJHM6rRU/Lycsfro7/if6Ti6ePc7uXfs5Lb2WwooG3L18UFn/gwnIhd/U7tUfYRs0FDsr8wJNE8fPX8RCocTe1sa88JdoObx1BbsPnzKdY+eTk6moa8PD3Zm09HSa27W4ONmbtxUE4Y/EYGhi/dcL0XiG4eVw5epJmrp8PvlyHtkFJXgERqA2NLNn2xY2bd1Bh2sQwa5/X0ZVZCaz/ug5fLy8sFWKeeD+9zqJ37GbgkY9Hh7OWEr1iLaGUnbuSyQ0IvCftoJUl+Wxbdt62mSOeEuxx1gD0bdV8O1nXyML7o33j4HtJ60V59mT0CDVidzMS/57KrNT2LhpNwpXH1zsbU1zv7c0VrJr8ybaLd3xcu2ejP5yrY1l7DmeSkSwr3mJ8O8SLWXCVasoJ4WTZ+JpxwoblY3pYW112fx2/0JFcT7Hjxyg9dJkRP9Cff5Zdh3KQKvTm5f8XEXqSdbvO4NerkBlYyMVWvGs3XYcg3m9cGVtmP8Sxc3mX0xkWCkUyC3+VTGnZdfKlVR2GFDZqrCyMJByah/7TpzjVPwZUjMLzdsJgvCHY6jnh3fe41RenXnBlaGpzuLll1/mk7nziU8ro77oIsvmzTEt25Zc9ItxqDQlni+XrqWivtG8RPjf6uDwlg188sHn5Fc2mJa01BWyctXuH+dE/EcqijNY/s277DmSQGNndx2kKH47386dy7HiJtPvf6u55BSrdiaZf/vvKktNYNXSb1l94AKdWp1xrg2pznOa7xcu4/SFEvNWP2d8r6u2HDL/JvwnREuZcNUqzU+j2WDDTbc/wMiBfYjtFUuonyeVmcdYuOMiA3uHU5WVwInkbBQKS3asWci6jds5duYCXuE90TWUk19YQM/+A7iwfxsr1qxjy5Zt5HXY0DvYnXMHN/H9ktUcPpmMQu2CSlPI3lO5ZF08xs5t22mycicy0NP8aqRCKukwe7K1zL7vLoYPjCMsyB8HR2c8nJQkHd3LkiXL2H3gKDj6EODpzNdvPMuZrBSSktIpry6VClo1Pu72rPnmA6yCetNwbjnf7UngyPZtnD6XSnFxAZvWLudcUTPRYUFUXTzA598t4cDRU1Q3ywgNDeCyOdGFv7Ft6dvETX8DH7V5QWcTR86l4ejkwp4l80kvvsC6NVs5n1ZISGQUautLw4Jr2b9+B5Mef4FJIwYRHRFMQ9kFkkrbUFuCnYMb5Sn7KTB4EOhqJwXCROZsPoOLso21K3/gxNEjbDmQQmdDPts2b2T9rmNE9elLReYpvl+8nvgDOzmSXIB3QABOdnIOrPmGecu2cjYxBYWDF3aaIjbv2MLGzXuo1tsT7u/+yy21giD89gyNrPj0ByJmzKZ/oJN5IVzcvZoXVhzghiFxtBWf46EXP0DtF0z8+gXsSixF2V7Kux99hTo0FuuSrTz5+kYGXT+CvLO7+WHJBhycnVj9xUdsOX6aRV9/RVFRIWt2JzFkxADKLpzk6x/WYOPiibebk6nVRFObyxcLNxMQPgBbV1ccOopIyk4hv7ye3pPuZHywNV++8xqffvU9x85n4+ztj0VNLtsuFHPTmAHs/OZ9lh4tZWC/CFKObuGddz9g68FzOHkF4OXuzJKPZrMny5VBkU4cXPcdK3dn4qXq4pt5Czl+dDcLvlnIuYIW4gb0RilmVPgHOqV4cBFbXTkJtQrGDIimvaGEXQezmDJ5EAmHd5nqCXsOnMLCxQd/dycsjE1QkqrSbArSjiH37I+3jz+eTtYs/mEl3vYy1INuJNqmlW2rF7Fi3WYOnkrFVdpG1Z7B3jQbpg73Z+uy7yjRueEia2TTqqWs3bCZxKwqwqPCsG7I4K1lRxjVL5q89POcPH+BruZS9pw6yfbN29ixdTtttgH08HcxvRajiowkKmSWXMxtZOrofijkMk6uX0iDgyduXjGEO3ewac0qNmzYwvaDJwno2R9lV6V0zALGxQWwa/suaruscbRsZOn8eWzctpezF7IJi4mRkrt0jh6Mxz8mgsbMw2w6UkGwRxeffvQDWYn72bz3KHVdSkICff9wdR5RxROuasd2rGb2zClMnDTR9Jh3MAdLO3eKTm+npLWLC+m51NQ2cGbHKqptQrnzntlMHRHIN58vpMt8jNqCC5zNb2LouBt5+OGZ7Hz3SwqaGtm/eyejp9/DhOvisJJr0XTpqWppYtL0mdx2y/Xsmr+Sy68vBgyewKhgeOXx+7jn4afYdOgivoH+FEqF3KmUbPqOm869M8ez4Zv51Gm0pCauwTl6ImOHRFBTkk9lbavpOFkXztHQrqGhNI2TybXMnDEVumq5UNbGrXfMoODIKUobm/juk3foN+Vubr1pMu52elo7fmWTn9BN205mbj71jS1kJq0kVxfB3XfeTqCyiqUbDps3uqSJrSsX8e233zJ37ldSZSWTvrF9zOugOC+NEun7M16N1jTXcD4jj7qSHPILyokbNwN3Qw4H87uYPH0WcVb5bDqcTVFeLheKWrhh5r0EWRSz+0QSWUfWMP9MF/c/dB8j4iI4tXM92WUV0nlcRK8BIxjRO+RXtOwJgnCl1RZmsy8+CZ1ej6apkn0HD1NtUOPp7sDxzfN56umnpd9dCXWzp60mk/1SJbRNZ6CmvICEM+ekuFVH8snjHE9q5NkXn2PkwBASdq/kTFY5KQlHpLKrFLm12pSQXWJta4efXyBtF05xOqkAPw933Fy6uy1W5l6g3SmMGTeOk+LjHtZvPESLscFF18a6L1/lq2353Hzz9TSVZ7Bw/jJCh91MrJeWxctWUlReS9q5fZxLK0Ov01CUlcSZ8xk0VFdyZudumlShPHD/VPZ88yqLd6Wbnk/4BxS2jL/9XhSJm1gTX2xeCHkXz3E28SJDJ89i1o39WPLlQqrb2s1ru3mFRqCQaakpzaezJp3irlB6ethK36GG4uwkcuqtuOeBBwiyrSc5M5c2jRSRDBpWz3mHAnkEfYPUHD9+nDpcuXP2g4TpM1ix8yKG9hpOp+SYnqOprpr8oiLqqkukczaJIaMn8tDs6Wz78m1ym3SmbS5x9I/Duy1det5OdNpGzhS2MqKnu7Smi1PHT6O39WTmvfcx0quJxRsumvZpq5f+FrZvpqLLlogQN9YvWYoquA/3zr6X4YEaPv9hBw21teRl5ZlaD9sbSqVzvQJNRxPrvltJ0KhbmTp2CCVJ+4lPrzQd849ERH/hqjbo+puYu2AFq1etNj3uHh6E2sGDIZHO7NpznJqWDhw9fMlLPcv2xV/y4gvP8+YH8zh7+ASVnd3HcPKPoW+gmkNbl/LWmx9IFeo65DY2eLk48uYTD7F29xnkChVWCgtCgvsTFhRMcHgkli15NHV0H8PI2t6DW+5+lK/nLeDDlx5Bk3eSl1/5gtyyHPZt+Z7P33uL51/7kL17l5NaoUdhGUC/XpF4uTkj/4WGD5nMgh7BgwgLDiIwKAAfH2/CI6Jw0HfSqdcxfsJE3n34Nj6bv5o2vS1qG3Hv2n8uiEnjBhASFk50v4FUX0hBY17TTYbCxhqlSolvRCwvv/0BkwcGmdf9AzpbfNzCiImJwNPFjujoGOl7DKFHuCs1xc3YOjjQs09PYiJCGTWiB8VZxZzecVA6N7fywnPP8d6Hn3HwbBIZpQ24O4cQFNQDdyepEiYayQThd8l4/+rwG6bQT6qMZtTa8uB90/FykirV/0SPocPo2bsf4THDGBxmx571azmfmo9vdF9C/H9+r5CFtRLPHn60N51iU2o1ap8g7G26u/R3ddSxbennfLtqB/WtbTTUN6Ax1rEzTvPRvC3IQ/swONKLlpIM1m7cyRt/uZsX3pnDygPHqG78J90bXfzoP7AvQ8beSt+wek4eP2peIfwjNo7ePPvqY3z1zGOUmDJjLZXFDehbXIjrF0VUv7H4SAlTafPPL7RaKF0JspNTW1fH8R27iJ0wBktjPLCwwickmkC7Fr7+7GNWrNtCSXUjOoOBE2s/46v1ScQMGoiKRjIu7GXJ4nm89PzzfLN2G7v27u0++C+IiBlMVHgEIVH9GeCj42R+vXlNN5lcyY3Dw9l0IIP6tP10+Y/FQWF8QQr6D+qHrLmYbz/9gO/W7qa6ss14EpJ3cC1L957GOyQKV6t2zp9OZvGXn0ox71k++H4jR06e+pvY+xPb3v0ZGRtBr57R+Ho7kpubZV7zxyGSMuGqJpdbYq1UYiMlUcaHMbmxtrElYtAIjq1dRnuXnh4xUSht3HnirU9YvXYtK5fP4+WnHsDFfF9z0pEt7DhXwIQ7n2Tewi+JsTdIhZkGv943s3rNMgZ7trBmzWZySpuwtrLpvjIp1Yxl6NBfdnvZ6s9eY8Xu0+hkClx8gpk4825cOjJp0dkzaup9fLtkhXScJcz5bC7RHlICJSVdFsYXLP1rkA6k7dLQpWmhpVGHVJZKx5ehtO7uayezkLaVHsbnNj0/rVQTw/bDh7h/fDRHNv3AgYQy0xrhH9N2ddFlfhivYP+kVgp0Hab1HY0NaB3s+HmKa8eEm2Yx+57Z3DptilQZcsdS/lPxaGy96uiU9tdqaWqoMX9HllhaKqWH9E1K54tc2t6YUMmMXQ+l71ej6aKhuZUubRf1VS0o7eywd1Qz4ZF3pfNEClzLl/LCEw8S62Mv7SOXjimKY0G4GhmkArujtYWmpibTo6NTqlYa/9hb2mjq6KS5wXy/mbRdcWYaafnF6Krz2H7ggqmHg/ECnEFfQ5NUHrS1tqIxXzA0UlhbmcoPldqOMeOGsX7RYs6XaxnQJ9ZcAf6JMU54efqgq2qlTHqOHoGRKKUyyGjx3M/QRUox7duPGdHDXyqCjK0o0gpnf+Z88yH1u+az5mwZllJiFxc3jMUHUzhxYDsLXn2cYE83Kf7IaW0pp729g5b6y1pwmptorG+hvaOJliYZDnY+5hXCPybDOWwknz4Yy9N//Z4uqWxX2ErxwaaFtjYtXZ0N0seqxPpvvl/jfr37hVFcXsLK05WMiO5OynWdzZzZu5qz1a688s5HPHrPdFwdugev6j3lz6yf9yeWvPsJDV1y3ALj+PNL77Fm7WoWfv0Vzzx0i/HEQSfFIWNc7OyQYlJn9/fbUleP8falLo1GShDr8VH//YBYMddPIfPwBtYvO8SUqYO7Y5+mnlXrNlMp8+D19z/jjQendi+3tCbqhrv58103kXhwI0UtWlQekbz56VzWrFvL8vlzefLBW7GWGaS6lfR6pBjZVNMmvZ7uFrrm6gZaNFo62lvobO1ApXQ2Lf8jEbUA4aqlsFJSVZTDZin5Wrx0cfdj5zHprFXg7BKIq630By0lY4HONkyddj17Nm5g646dfP/pByS06rBTKFCpbKVgZw/6VtIuxLNo7vdUOFvR0WIg9fQ6Vm45TEOnkqDQAOmYjqhtrYzloimI2jk6cPmtPWMnTSRxxwq++HIuixcvZN43X+M0+Bau6xODjUbHhmXLWfH9HDacrzDfi+TUnUSqPVBL7yXp5E7WLFtGXp1KOq5UoVequ1u/pIBsvKdTJQVn45Pb2ksJg4Wa+owNfLFwI+X1Xbj5BOErVd6Ff8zO0Y09G8znycp1JKQXYqNSobA0pl/tfP/9t2zftpXN2w4yftKEywo/GWoHB1Of+Z+TmS4EGAeXGRAby9ndW9i1ezurdh7HTy0d18oKla2N6ThKG1uUiu40z1JKtG1VluhaGjh/cB/Ll69iyd40BgwIZ/TsR6k98AUrN2xl/YrFHD2VhVqtRmXTndwJgnC1kWMp0/LhfeMICwszPV6Zswx1UBShHWW89e7HzJm/AVcXF2itZPfuHdiHXc9n7z/JuZ0/kJBbiVvIGAIc2/nkzTdZs+MInbYOWEnlir2TE3aq7quHxla2sL4jCLAoQmbrRkzPcNPyS2SWVri5ueIb5EmPfjFERkbj5RssxS1X7KylMmrQEJpyTvP+l/M4nl2FWmWFpRR3nCP7MmLcLN59aTzffDwH64A+jBzkxurPXuX9j78mv6YTuZSoDeg/hbyzG/lgzlfsTCrE0cG2O/7Jm9mybiF/ffFpknVDuG/2yO4XJPwCY3Jta7rH3WjI7JcZrqig3cGe8IgwKZZ0slKqJyz6ai6yAWMIVv80IqalwhpbWztcAnuhrk7GwTUYR2sp/qgdUEnnijHGdDWWcmT3Zs6cPE9NY4f03SjxcnfBM2o8U/tbsPFYCRE+ARTE72ft+nV8/OUi2i2skbmFEdqUzrJ1Gzl2+IiUYFsgl77czMR9rNuyndXzP6XcaTKDgn9q1TUm77Y21lg6hDHcqYY9Mk/ivG1QKFXYSPUVtZ2S+tpSju7bzPJDF6Skvh0L6Rx18vRm6JAB+DpYcfJ0EROv92PTho3s3LWTzz54l3atDS6u9ui15axfvprNpxJp1+tM99ZpSs/y7Xcr2LB5B3kNlgwZFGZ+NX8cMoOksbERB6lSIghXk9qKIs4lnKXaWPhc4hHC7aP6kptyjmMnTxA04i5GxXiYVtUUZXL8bCKOfr0Y1j+KlroqKisrCQiPoDg9idS8SiL7DKK18Dx+fcei7KzkTPxZ9Gov4mJ7YiUF2OxqJb0ivTHoOkg8eZaoYSOwveym5o7mahJOJ1BU3Upkv4HEhvuZKuVtjdUkJ56jTmfL4EEDcLa1JuHoPiKGjMNOKp/bm2q4kJSM1tYLVVcL/r36IKtOpbjTj9gQO4pKS+nEhjB/Ny5IhZRfbDROVnpOHj5Ilcaavv0G4e8ukrJ/5vSBFeRWmH+xsiUqMhwLuRxvTy++fGoW1z/3ETWZWUT2H0YPP1fzhkY6Eo+fxK/PACnRv2zYaL2GrLwiKbFzwM/LmaykeC4UNjJkSG+qyhrx8XCgvqGFoMgwyrIuoLP3J9DDkYaiJEpaXWgqjWfjmXJuHhKFnXcIkSH+WFla0NFYztHDp5A5+TF4QF8sNTUUlrfh4e2D4y8MeywIwpVjMLSyb+Vmqs2/G4X27CfFiVCKU06QUtTKgL4RnE1OJyy6J7X5WbgG9iDS145jB45h4RnJ8D7B5KWcIkP6O/fycKalsZWIyAjyLyQi94uhX7gP+q42KWYc4qs5c4mY8hgvPDiVyxtStE3lbDmUQN+hI9BW5FDWJqdvjwBOnzqFc4/+xPnZcerQflrkLvi62FDXosPHVU16eR2D+8ZiZ2hk867jDJlwE2ptLefPnUdn60HfXtE4SuWeQdPIoT370dp7SxVqqG61wVNTwrOfreS2B2fhIDMQEjuEyMsGgxD+VhdpSVm4+/ng4uJovL5LXVkWZ/PbGDu0N6215SSdS0Jj485AKbG2k5KeSxpqyygrLyUwoj9VeYl0KD1NA5uVJh2j3b8fgUoNyQlnqNfbEe5tT7vCAW/bZtLKbRjaJ4Cm6jJSM6roMzhG2j+NpIwCAnr0JSbUV0rApO+zOJuElFw8vPxwcbSlvSyetcdhUA81GltnRl03BNvuXNKkriSXsnZLggN8aStIIqvdk0HRrlSW5dFicMfHQWeaqqjVwpH+PTw5X9DOsBh3zmVUMrRfNGUFmdS1GwgKCaEuP4UziblSvWYQAyL9MOi1lEl/J6k55fgHONMpHS/So5E+Mz5j6+f3kVWlY8DA/rhIid8fzW+elOk6mjh59CiFNY0oFEqCw3vRMzoE5S8MsaLpaKWyogRH73DayouxUNvhotKx5VQuN40eaN7q39Mqnfhnz56jrLYRFCqiesXRUyrY/jeDCRnITjxKSmEDjs5eDBjUD7XVz9/n6f3ryCjrNI0wYyFX4B0YTm+pQu6o+g8rZ1JFMiM7HwuFLeHX6FwRHW3VrF+0Gp1LENOnT0L9d10ABOHnvnvrKa77ywf0cLos6fpf0naQdP4EZ0tkPHjzaPNC4Wqib69l984DFDYpuOuuaaivwpbK4tyLJOWU0b/fADylSp5w7WqrzWPOx19RaVBz5wN/ol9Y98XGK6ni/DE+Wr6HaffezfBe4aYkQ7g2VKXtZ+t5C26eMhRnh98oLv4zbQXMfHYFa755xbzgj+k3HxL/7NaFbE6oxHhBurWxhpycfOQOxqFB/74VoLaymP071+MaMZikXTtokFInX087krMr6RUeYN7q36DvYPvq5aSV1Jj6iLe3t5B04jhePQfhevklgv+WrlpefeEjHDxdyU06i4VHNIHul8br7vb1a3eRaxGBs5WO9uZ6LqRnIle5EOLn/p8VgNoWtu3eT2W9ll6R/2Kggt8tC2zU9vTq1x8n1a+ft0z443IzDjHs7oHVL4248r8gs0CldsDXywMHtcq8ULiaFCft57nX3mLF8s3ETp5FD4+fl81Xg7qqEgrKa/Hz9f8XE6ALv3sWFjg4ezFi3HgiA//D+P9fplDZERQWSpC/r7l7vXCtsLSxx1OKTy5OalNXxivOwoqQoO7pGf7IfvOWsiWv3EFKwIN8+OB1Uo7UQkFhAZb2Pniq2tixZTtZJXUo7Fy5865Z5J9YzV/n/MCISbMoTIinzdqXl56bzuojubz2wHSWfP4hqgAP8rIqCes9mPFjhqMpu8jSdTvpwhJXF2tsfcdw2w0x3U+ua+LNJ1+ix5Q7mT5mIHK9hpSEM3iE96Q0O5ET8anSa2qUanA9uOPWSVgU72Tejmrs1Jb07T8YTWUqZ5KzaOuSMW76HQR0JrM1z5PHbhlIZUEOaRnZRA0bh4fxhiLT89Vy58ibueG5lyhNOMLwe55lSOjPm/5fuqMvA189xrRIW3StVcxfuAKtUzgzrwtm69a9lDU0YesQxu0zryfn9F7UsRNwbUhjX0IBo2+4HldtJgtOGLj3OneWLV9Hp1QZTC2t47oRN3DH+Fg2r19HVlEtlrbO3HTH3SibS9m7Y630WboxYOhY4qJDukf3EQRB+KMwaFj1yQssO9eKffkxmvs/zfZPHpQqwgaqS7PZsnoVZzMqiBxyA3ffcj1Olm0sn/8tRy7k4h8zlFkzZ+CtbGX7pnXsPZWCb/hgHn/8PuxoYfe6H9h5JAkrJ19uuvV2hsYGcHjDMjYeOIFO4ciYqXcwfeIg2srz2bVlHYfOZ+MR2JfZ999BoKucz1/5M3WWIVirbQgK9Ka0oprpN9+Cm7ye775dQFp5K8PG3MRt08dSm32WNWvWk1naQEivkTz84EzcLu+CKwiCIPxu/H2fwf+xG+75Mw7Fu3jgvrt467MFlDbJ8PFUs2fLZhrljoyfPJnBvh18MG8Hrj5hREcEMXDEKEL9gxk4qBfuNl0cOJ1s6pOacHIZHfYxjBoQRnHWRTIyclm0ZB0BPQcyefJEalKOkiQF1h9Z2DLj9hvJPbaRex94iPfmzKfdLhBPW4Ppfp+s6i5GjJ+KsvQEW05IyVdVCruS8hk3ZiT6xgqy8qoYMn4KwyMUbN+dgK2LB3uWLKVFp6GkJJfU3ErUl82qaNAaCPG35qsvvsJ7+Az6Xjbx5OUObFjKwoUL+frreaRkFRPo58yqZeux8Qxj6tRpBBgu8uXKfbS31XHq7EXS8zLZuG8zJXVVxG/fQpejG9t++ByLoKGMHhKHvdI4rAEc3biSYoMbE6ZMZXisC99/tYTq2kKyC9IIiR1KiK/HLw7VLgiCcC3rqM7h4JkM+owYzyMPzOTo0m/JqNfR1VLLvg3LOZhez+hRfTiy5gf2JOSwa9knfL4pick3TqMp7RCLVm1lz9Y17D5bzA2Tp1GVuJa3v9tGfUECX8xdiUuv6xgU7UdFaRmFyXt579P5eA+8ienX96MkN4Wa6ip2rlvCroRyxk2Zhi73AE9/8INpVNhDO9eTVNbMDRPGI28t49Dx41RLZf33775CsiaYu2dM5PT271m5YQc7Ny4lvqidCRMnYNlWQWFVs/kdCoIgCL83v3lS5hHWnyefeYF3//o+kwcFs1sKKqu37OHC2STWLl7Mpx99yNfLtrFz/2EsHVzxdHPGPzgMVyfp3wBv1D/eGGkcsc6N/v370TMmRFouo744g9xOG+L6xJrmDBo3Otq8rZlMTuSAUTz+9Et8+u6bjO7pw6qPXmJrQhl2zi706t2L3rG9uGFUOOdPZ5hGkw0NGkBEWBixsVH4etixe81SFq3eRVZuBUr33oz0KWdnfC6VhVm4RxlvlLyU5Wj48ukncLn9r7z7+A3sW/YV69csY8fxDPP6yxiH1pVb4B4Wy2NPPMGocDU57RZE94wmtmdPxt84nqSkFFz9I2jNOkZNu5IIKzXNDY1sPlvH9GE+nD6Vzuixw+gzYCBx0nt3ppPzCSfZs2YRH3/4IXO+XcmpfUep7rTGwy2EvrHRuDr+fGJKQRCEP4K0c+dJy6+iJPUk8bn1WNVeZNnmeFrqG7hwPguX0F5MnXEP85fOZ8qgCA4fWIdbWE8mT5zM6x9+yTOzhpGWnMLG5fP5y6MPs2LrEZbs2Yu1gzteNg0snvsRW09l4ebliadfBB4O8PUbT/PNhpP4hMQgb6okUYoF3qFx3DDxBm65Po5TK/djvIRoZaWkV+wI+veSyuhLN7o3lbD1YBLb5r/FvQ88yrr98RzPyMPT3YesI5v56MsFtFu54uty9XXBFARBEH6d3zgpa+T+KdMpwgEvbx8GjhrLyEH9aCwsAqdgnnn9XZYuX8byhd/z6pN3YUy/jImRab4N88+Xs5DZolLKTXN8mPIahZL2Dp1pTijjPWOatp9PUddacpbn35xDeUMnHl4+DBoziZlTe3AxMY/OLi3tXV2m7itt9e0o7bvvcVMorEDfSfyJwxxPLuOBZ17j/ZfuxtNVjUFK8mbcO401P6wnu6iW4YMvG8JWX8fRw53cMrE/w2+4gzFhViyUgq5noJ95g5+Mufku7r93NrfdNIXosABUttKxNcZ5HLrfR1dbC3qFNa5Skmrbkkt+Owwe04fkM3spt4kmQGWDyk5PR6f0CRn0aKX9upBjoXDiyTc/NH2my5bN57Wn7sfJWoaFhaX0EOmYIAh/QNpmziWcISc1keXffcHL73xFA1rWLvqBVimQGEfI1Lfr0Mu6OLdvJ4fP52BhaUdrlw6ZrpP8tDPsOXISbZcFkx96jRMp2Wxe/jVfPjYLJ+8oFu05z67lX+Kpy+f1t94nrdqG1ftOc3rXSoaGKnjvkdmsPVGEpZQ/aXXG+fQspGSwDZmHNcYBqY3TcZjmS5SKaOPDRGGJg87Ao/P2k5OdzYov3+KBKRO5+eGXOXbqOK89NIWDi17l2c93mHcQBEEQfm9+46TMgYdmj+HPd9zNF19+x5effs7e4+eIHHYDE4Z5s3fPNjZt3sJbLz5FTatCSois0Wn1JKdkYGWnJTstlcqGdmxV3VcPbWxtTW9AJiVHVtbWWLmFMTWwiwVL17Jry2q+XHFUSj5+eou23jEMcmng4w8/4Kvv5/P1F5+wYEcJEyf1pqu2jP2bt7J86VLmbE1j2oReyC2V2CgVpsiotFKgaa0n/ug+5i07Tm19tSmBc+l5PXb1B9C5DcDr8rFSLDy49R4HXn99Dtt27OBcdg1+gW5kSu9Be1l2aaOyQ/E3CZLMwZ8bwixZt2YjW7Zt5vVX53PPXXfg7uWMhdKGutIGhlw3itRDx+hz3SDTZLW3zbyF7z58j+Wr1rDn2HG0UoJ649SxbFi2gi3bd/LlO69wuK4dtXkyZpGTCYLwR1Rfmkt6XhmPfrKa2lYpKdLpKI9fhL70GAlVCkZOGE7h2fU89eifeeeHjcitrXjs8edpjt/G48+/wtsffU9BuxPXTx1BZ94hPn7jKV5+8zusvYIoSz/CtBtGM3flHpraDQSH+tNVdpopY6/n42XbqW/U4O4fRuyAOMZJ22Wf2sCLT/+Zt5ce4Mln/yxFSBm2anspKeu+L9lSYYWtFOcs7YK5/08T2ffFi7z+2nN8s3g3eksdCz54ntmPvsSJiwXIbT3pE/73F/0EQRCE34crMk9ZXXE6h08lobNxZkD/gQR4Gof61VOancKps+m4RfVnZO8QdF2d5KWfp6xZRliAFxfPZxERG8zFokYmDO3NueMH6DFkHDZdteQWVWHv7EVXQwlJiYmUSUmdTc0JmkMe4fGbL+vGaNCRn36Bs0kpWKi9GTlqOG6KVtZu3U5ORQdxob74RfYhIsCTjqpkkiqcGdrbH017M6nJZ8mv1RDXM4LckgZGxEVQXl7O5nlz6fvQOwwNtDM/iZlBS9Lx/aRWtDNwyEjcbGW0dUhB2eOne7nOHdmKa+xEAhz/ZvRHvYb0xDMkZJfTZ9AoYgJdTcvyMnNp7FLQs5cf5/edxLdvf7xd1KbZ2rMunCa3qh1nN298XF0IkD6zqoI0jpxKwDGgD6MG96S5ppLyinKCo3pz2e1vgiAIfwiNlSWcSUrHr0cM4VIZabpsp2ti+8ptePS9jr7hzuSmXSAlq5yw3v2IDPZGIbegIieJo+fS8ArtTf/eUVL5qac4K4XTyVkERA9kQJQ/Br2OainpOxWfiMHGjf5S8uXt5kBTRR4Hj8fTYbChnxQLwnycTOV5YXYqZy/m4hPWh/7RQVJc0HJox0acwkbSp4cXZQUZXMyvoHdsX9ydVFw8fZhEKf4NHDqacF8nNK0NUlw6T1phNf49+jC4VyiWxkmJBEEQhN+da2vyaH0Hm5YuoR4VdkoZOTkl3PTwE/Rw+xdDCWua2Hv4KE0Wbtwy9t+Y/6y1nHmL19Bq5cOjD8xAekpBEARBEARBEIR/y7WVlEm0Hc1kXEyjtl1PZK/euDv8irld9F1U1dTShRU+/84cCdpWzpxJJqRXP1zUYg4PQRAEQRAEQRD+fddcUiYIgiAIgiAIgvB7IjqfC4IgCIIgCIIgXEEiKRMEQRAEQRAEQbiCRFImCIIgCIIgCIJwBYl7yoSrlrZLQ1tbGzq9QTpTu5dZWtlgZ56n7l8xThPQ1aXFysbmf3L1QavpoK29A+PLk1sqsLFRYikX8wxcKS1NtSjVLlhe+rINetMUFFYKBZaW//x70eu0pnNNq9WBhdw0l5/S2urSafczBum4ms4urJTWv7heEARB+APTa2lqasHK1h6lwhiQDHRpNGgNMiz0Oiyk+oJC8TfTIP2b9LpOmprbpXhkQCaTjivFLRuVLYofA+C/IMWxTmP9SIqPxv3/GYPx/TS3Yqmw/nGeYE1nG+3tnab6jzEQyi2tUduq/t9z4BqnFdF06bCW4u8fkUjKhKtW/IH1fPTpZzTonbFRdC+LHn07Hz51R/cv/0JK/FEOHjnMrCdex83avPC/xCAViFsWfMaGAwk0avS4eody+913MaJ/T6wvTUIn/KYeHCPnwRU6BniaF7RW8N3GwwwaMIjeEYHmhb9Ez4WDW5i3egtF5bXIbR0YMmoi9951K26qvw+cLU1lLJu3i9nP3s+vuzwgCIIg/FE05h3lrnueo+/j3/LmzL6maZd27dlBar01jsUF+AwZxNhRQzBXa/4j1SnLmfzwHFyc3JHLLbB39mbK7Y9x6/jYX3URWttQyMLtp7h50gTcnP55/b8ucw8zn/ya6268hxcemY4xKm5e9Drfr9iGwdrHdCHUziWC1z78K1Eev2LE83+itugCyw7m8uS9N5mX/LHI35R0dnaiVIrqhXB1Kc1PQ+bkzwtvfcZj993JrFmzGDe4F231paTk1eDl7iT9XElpdQMWUiKUl5lKVnYepRXV2Dq50VxVQsqFBKwcXCkrLkWhUmNrY8nZsyeorayiskGDtYWGtNSLZOcV0tolw95ax8nEHPx93GmqLiXpQoGUcLlTUVRAW5cela3K1Dqi66zgzde+4ZUFK3ji/lkEqLXUterw9PGjrbqAxOSLlJaW0aZX4KAyUJKfTXpWAY3tOsrz0rB29sDGUkZDZTaFNXoMmkZystIpLSkit7jO9Ht2Vhb5JZU4u7nT0VRF2sWL5OYX0aq1wMFOjfz/e0nqGrNt6dvETX8DH7V5gYUctZ0DXh5uFKZdoK65hqzMXKpqm3B0djFNCNytgzkvvcOgR17jr8//hcmjB1OXnYSFewRO8nYy01PJzsmluqETVzdnsi8cYuGCvfQc3Bt9az3paWnkS+eXzNrO1Ir7Ly46CoIgCNcsHbuXLcRt+FgOr9vJpJsnokRDTm421R2WKJsasPfzxVbXSLlOhautwtTLIy23HKVMQ3Z2JgVF5cisbOmU6jqJyamUlpXTYVDg5KD+sXdGW9UFztW5smze19x1x+0EOurYuPEcYycNoqm8iNS0dPIKi9FY2OBib0NtaS5JF9MpLq1CJ7OksfAcSzYfkuoswQT5ephaywwGHQ3V5VxMSZH2LUFjsMRWrmHXqi/J6hrBMw9ONh3LKCPpECEDJ/Hamx8y+86Z1Oz+kmTlEIaE2lFelEtKajollTUobNSolNbUlGSTnJpJYWEhjW06nKXj5BdJz6GXoZbiZm5qAu1Kd3KOr2bJoWxiAj1pa2nGSu2IlfS5JCWl4yTV+ZKO70HlGYby/9fQeNUSSZlw1TImZcdOnKC0sp6stGSSkpPQ2Pth1ZTJnHkbGTp6JJnx+zmTXiwVUAXsP3mOmqpqSooyySrvwttRz4mj+2gzqClJP0dahZae4Z48N3saBqdgWprbqM5P4nB8OnU15ZyJT8Ldy5F33vqc8TdNIm3PAj76YT+9hw/k+K6dtMmsCfT3MTfP6ynOzKCivp78gmLsvEKJ69MTO0Mdi35YSUF5JdUVpaSnZ2DnouLAthUcPl+Mg4sHO+a9h+fgiXjbKUg9uoDNiQqsWlLYsHEjLRoDe3dsp6S5k7baCo7u3oKFVwwNWcfYtj+BJmMS2iwjLMgHG+v/z3W2a8/fJWUt5cxduQ0HJ3c2zXlWCipqGkuLSU0+T6u1JxH+buYNoUFK4IukRD1HCoiNbXpiBo+ih6eSM0cPcPDoaapr60g/dwqdaxStBafZfTCFoBBv8lLOcSY1n5rSPCmguBHm6y6SZUEQhD+ozvoCFm9K4MbbbqPz9DIqPIcR62Pzd0lZ+aGVHJCFMzLImcKcs8xdfowA+zaWr98q1Su6cHe2Zov0c2l1DZVlxWRm5eAeGo2zqjvuG5OyFVtP0tXawoULyZxNSMQ9oj9xgTbs27OLhNRcaqV6zYn4RGLiBrDj+7dIrtBQUVKCVqagq6GY/cfO4xEQQe+oEKleI6OtoYb929ZwMrWI2ooCziTl4uuh5sShXVwskxPXryeBXk6m5zcmZWeS0igvryXl/CmOJBQw6Y47sdOUsXn1avIqaynOT6ewQU+Il5ql8+ZT1tgqvdcMkqUEyzs0kB279qCRqQgP8GLxJ0/TEDCB5qR1HElvINDJgpSLF7F2D8WuLZNPFh1kxMg+HN+yHO/eY3H4L/d+ulr8ys6ngnBlGPR6dF1atNruh15vwMGrBzGOTZxMyqSgugVHV3dSj+0kr6weS2M/5M5GNi1eQ4NWjpd/BNPvuJfHHpxB2qlzNLa0QpUF42bdy+h+QWTn5jLyltk89cTjRFjXcrpKzhi/dg5n1JCfmUPPuEDOHDyK1tIaF3cfLM31bQuFA/c89iDe9ta0SAXZyb1b2b73JNnJh9m47zwKaxvTFa3sM/s5drYIuY0Tw0ZPZtrYgdjb/kJp0q7H2yeaW+99hEEhVlh692H2A48yNc6V5AvldHW209zcjtrBFW8P58taeYRfR0rIh03l0Ucf5Ybh0Rzfc0xacomCyXfdS/9QL7o0nRRmJrFp9TLOJCZx7ORBcsobpO9TSWNxAos3HKLviFFEB0UzdmgsXW0ttHTqcPH0w814FVPkY4IgCH9Y6acPUdqhIfXseVx83fhh3kra9OaVv4Kbfxg3z7oDP1kemw4kYm2jQmbQkxF/gJPni81bdTPe32ysF+m0epQ29uhaSkhIusDBk+dp1oBSYcmZ7Us4nN9IW2srHW2duLh54O7iQkzPGCL6DmbCyP7ILbrrE7XVFaSn53Pz7D/xxOOPoW7JoKhdxdRRsUT3n8rIvkGm7S7R63Xdz6+XERzmT/K585TkpLDh4HnklkrkbXWs37mXqtp6VPYu+Pt4Yau0oqo8i/z6NvNRLidjqFRPComJY8ZNE1FbWVGUnSklhUfpPWIEKktb7n76ffzszJtfg0TNTriqBUX2ZuZd9/HA/Q+YHoNCXbFR2dFnUD/2rFlDW6eWgPAI2tt1REdHEhUZSWz/wVw/JA65VEO2USqxtbE27dNp6DLdFAseONpbSoWJHr1BhsrWRvpLsMJeLaddo2fSjaM4sOsoBW22DI2LlJKyAyhslPj4/NSy0ph7lGX7c5ly8wzunHUbY/r7k5edRVFhiVQQh9EzqgfRMT0ZMXIcQW42qJTGJvxLTTi67ptjpUdX+6XUwBYHtbNUYMlNg4Z4uTubllqprNB1ynH3iWDo0H7YyDs4tHU3ZXUNxt2FX80KLxcHZBbSOaF2QNPVYV4ufRuNhXy7ei/RQ0Zz3z13M23y9bhZNXPsTKKUTKsJiYiSzqsepvvM+kd5m/eSSIl3SM9e9O8Vga6pkjVbD9Ch6TKvFARBEP5IDJoGDsXnERHojVyK8y5RY3CqOsyJzFrzFj9nvMhsrAjoNJ1cSlHs1Sqp3mKFprURV78IepnqEr0YMWIM/q4/v1/LPTCKe2fP5oEHH2DWzGk0lyeTWtqIo5R4RUn79IjqJdVnpuCl0hHU6wb69wyhqzafUydOU1LVaj7KT3R6qU4k/Wfshm9hpUIt19El1ZP+UV2j98CR3HXvAzz40GM8PnMAy3ftNyVqdp7BxPaKMtXFRg3si7y9hPTCBuwcXAkKDMZRbSPVgQym+pjxPyNt58+TNIWtG6Ge9tSXp7I7XcOgSB8s/wD364ukTLiqlRflcGj/Lnbs2tH9OJmEhUKJZ0AMzSVp1Bibvn3dGC4lYRmZRcikinJxygmq7F2wl2tIToln0+atLFu4GO/wSNPoQJeGcnRxc8Hd3oZda1azb8cGdpxvpq+fK8FDJ9J46HM6HAbgaa+iRqq0G2wcTX2/L1G6+JC19Sve/mwe23buYtv+M8htbYkYOA7njlIKG7uw0DVxNjULD19X817dAryd2LRpD2dO7Gfb3izzUhkymfTn+Etljl5DSWEWWQU1ODpKr0dKyDSan9p5hG7Gwv3EAfN5svcg6fmlUni5pJ65Xy+QgtFxNq3bTMyQoaablY0sVI5QcJBX3/mYjVt3sUsKLAlpVUT1G06Qswft9fVSoNFy7OhZfMPCpK9IgaajiIyMHDLTUqlpNeBgraeyrtEcZAVBEIQ/mqrsZOrlzoyfOJUbxo/j+sk38dD0OFZt2HlZLOrmG+pH/MZNxMfHs3b7ZimFMzPVAWR4Rg7Hua2QgiZpTVcD56V44+7jYtrkkoaKQnbv2cX2Hdules4matrtuG5AT5ys9DTU16FtLiH+YgvhHvakn91HRYc1dlaWNDTWobe0pr6mhszCCvPFanB2csLVQcWqFavZuXE5CfV2eLs68I865uSmJ7N3jxRvpdf/+bcrGRI3CDevACIcWymta6c4OwOZQYGss47TZ1KQK6ykJCuborJq9BZKbDsbuJhwhj3b15ru3zeSWchpLyikqLqJmN5RFF84S5eDL27OTtKn0sWhLcuk92na9Jok7ikTrlrGYcprKisoKymjoryc8jLpoVcxMjYCuaGdLukP3Sl8LH2CXPAM7UmoqwWnTx7HJmAo984Yh9LSEldHR2lbqcBxDOHWqWNxc7Slo01D7NB+2CrVBAaFYGitIKeijcm33U6/SH+slI5YSQld5MhJRHg64OXqT2Svfng425pfGVhaOzJo+FC66krJKyonPG40N04YjbenD8OG9qYkNZ6sik5umnUPkb5Spd/CGndPqWBxkhK32H60F18kq9qCSVPG4eTqRYCXA/bOzvj4eaPv6sTdLwwvJxU6rQY7z0j6x4bQJRWweVUapt46nZgQPyxFF8af6WhvpqSknkrjuVLThKO7J95eXgT7+5F4YA/jZtxCWsIF4ibczsSh0T9+fjK5NbEDh+Ol1HLxYhJd1l5Mv/NO+vcIJjwyApWshXNScj1w/EzGxoWgtLLFzkZLRacdwwb3oiYvjSZLD2bPukk6V+xNN0wLgiAIfyyVUn3F2TeQnlGROKhtsLaW4r6PP52FdQRICYabiys+Lk54BvhJdYahBFnWEJ9WzLDrpxLq5EJosA82aid8vX1Q27kwYlgfCpJPkl+rZ9ptdxHh42y698vIOEx9dVU9paUV0vNW4RIcyz133UlogC89woKoK80jp1LHXfffQ5CHI2GRoRSknadF6SnVO6bQIzwEF4tGiuo66dmj+54ya5U9QWFhtFflUtYiZ/qMGcRIr0kmPZfCMZDI4O77yYy02k7KSyspK62ior6F3uPu4OGbR+Dq5kl4aKD0XBfROYcyefx1BATH0DtAISVmafj2GsJ1g2NwdA5kWN8ImquLabTwYGz/nnhHxOLr7oK1roommR1RkWFcvJDFgMH9iQ4LQC7Tcf74PnxihknJpfmFXGN+8yHxdVJF2zgqmrFrmZGxT6zx6rKFhYWp6dTYt/WXKjU6nd7U9ejSCWlk3Fda3D3wglTvtviFSqrxCoBeOq5xDofLD2ucC8Egk3fvK/yudLRVsfLbJRS2WPD480/jZiO+ROGfe+O+qUz7cA193P5/w/UK1wa9TtcdbywtTTHFIMUlrRRLLBWWv9xYbV6vsJSb9jXILMRFEUEQhP+R1voqTu/dyP4cLXfOupXoIHfzmmvbbx5V5rx4J389WmL+Dc4f3c6crz4nrzCHN+YspLiyzrzmMpoaPv3qO9NIMT+SErKipD08/O53xO8/wLpVW/ilFs3S/AzmfGIcdabTvKTbodWfciDz7/vUCr8DMgU+wcHc+eADIiETfpUJtz+Ij1qMVikYtbL07WfoGTqETYcTpWTLwPF3H8MvcBZV5i3+1v45L9F/5gtUVhTzyuyZPPruAjTmdYIgCMJ/l/H+MaVHBDNnTKVH4B8jITO6ei71qdy588bxuDnZ0VpXTkLCWS4kJ5GekUlZdQvouqgoKeBC4nnOJ2eh+bGDrgU9+vRm2HWDUGg7KchOJzExkdTsTM6fSzf149W0t1KUm8m58+fJK66kramKHbv2kpKWQkObhtqKIpISz5GUkkZVXRN6bTvpKamkpSSTWVje/TTCVUNp48T4m6YT5i0mPBd+nUHjpuBuc41ObCL8R1pKE/lq/lqKq5vNSyQGPU11lZyPP8nhw0dJzsijQ6Olz42zmfPSfVyjPWYEQRCuKtb2bgy9bhS9w/35A4zv8aPf/J6yU/vWk1SuRVZdQFpaGucT4qnTyOkb4cPHizbRO8Kf3SvmcTwlz9TKdfDAflpkHrSVZVJQUEh1ZTnbNmzBa/BY7NuKOJJVj1tHA2cS0lCrWtm4eSeZucUUFZ7hgy/2cuO0IZw4sJvS2k4K005xMquWUFfYsH4jzTJ7woL9ObxhCecz8snJSqW4UU+Aq54XH3mTDoWOBp2KnmH+v9ilRRAEQfi96SLp8EGyilopLs7C1j8Gn/o01p/r4OE/TyL35H4WLVnBts0b2H44jf7DBpO08A1unXuMx24fQ/y+PbS7hDJpZBxy8xEFQRAE4f/rirSUNdVUUFpaanpU1dSiMXbWN9PWZbP4WAkvvPwqjzx4Lz2DzDcWyqzpO2ICf3rmedM8UgfSKrqX/0jPqQOH8e45giefeYYHbh774+hqKkd3Rk29jRcfv5equko06iAG9Axk4h2PSoldNit3n8XFwwcXay27DhygqLyaGikZu/exJ7hz4lCRkAmCIFxjAqNGc9+kgaz69hsSSutNy7SaTmprK7B28aJvrxCKkxLJr2r6u5HTBEEQ/o62lQMbVrFs3QFa2ro7OOu1nVw8vpPla/bQ8guDJuu0XRzbv4XCBjGisnCFkrJB0+/jiSeeMD1unz4Fb+efbr7Xd7bQrHDG3toCK4UlLs723SvsHXByVGMll2GntKG1+W/vIDPQ3NaBvdradAO2nZsPl+aXs1OrcHNxxFJhTaNWh1Z/KcQa0Gvakdl5EeDriV9wD/r2jMbBVom0A46it5MgCMK1ydKGyXc+SB/bEr7bfcq0qKmxnhMnT9GqVxIVEoy9ygqtzmAMFYIgCP+croX9e/fy1dcLKW9sMi3qaO9g88pV7Nq3l+ZfyLu0UlJ2fN9mKSkTc1wKV9M9ZWYK90iGWmYyf90+jh89zO6jqd0rZMZ5nC5rszLPq/ATOXF9Ijh66JgpqC6f9x2XhhMx7ndp30tT1blaWZOWnITB3p84bx31Ggva6qtRyq1Q2qiknUybC4IgCNcoW48wnnv5cZqruu8dNkgVpMaaakrLK7iQkUtNQxMGMfecIAi/ltqXSMdGzhXWm6qpmuZismttCDeOVaHv4My+Lbz7xqs88ee/MGf13u59JPqudk7u38HKjTupbWnmyOaFPP/CCzzz/AvsPl9AY3kRO9avIrGi1TT43Rffr6C0opaVc19l2dKVpm0/+mohBTViALvfs9/8nrKOtmY8QnsRZm4dM87DZKVyIMDfX0qW5ERF9GDUdYMpSD1HeZMOD0cFau/ehPk54+fjg6uzA5r2FuwCoghzU6JX2NHD3wu1oxO9h43Ex0ZDYtJFwntGE59Ywb0zr5cSMgv8gsKwt4JmKfmKDQsmKjKc9MRTBPcbzeBeoRRlpNGicGPM6BEEeNjT2iljQJ9I02sUBEEQrhUGOts7cfQKpGfvCPzDowl0s8E7pDcTpgwnIigImU5LTL+hRIf7ExIdi6edJUrPEMYO7inFLC2+4VH0DPW/+q5qCoJw5ehaOXAokeEDvTlysZ0Jw3uScXApJU79sGsvwT/Am9NJBfQZOo7J4+NY8NJXDLt7KskHNlOvVZKVkcPw8RMwZB9hbVIrd95+C6OkMmfJF+/jExVHVlI8NqFxBKvbWbT+EAP69uLE1vmkWQ/h6bvH0VyRR8LFMuLiosT9rr9Tv/k8ZcY5w5CSpEvzgxnnETM+LKQFpvnK9A08NP1uRtz3F6wacjmVmMfsF94kxkNlbCwztXgZpGMYpH+NAdF4EdPcCMaprQvZmdrCsP5RpOxcQGXIvXzy+ATTcWXG+c+M20v7mn6WntM4T41p/jIpSBuXm44pvTbj8S7NmSYIgiBcW0wxRPr3p7igk+KQDLncwhSPTHHCGAiMl7rN8cIYa4zrTTFM2ssYswRBEH7UWclLr37P+JtHs/yLFby//Eu+eeE5Rt1xL6e3LOOuF96lNH4fO/cfJD0nnxP7mzlcto25909kbybcets9PPfUbPYsep9PVu5DbW2DQipnysoKue/Nb7DKPU7ITY8xxquFh19dxHOP38fajx8i7skNjA+z4vzR/Rw7lcCdT72Eixgq9nfpN886jJNEXx7LjIHPuKw7yEn/WjrzxaJvsKjModXSnadffYNeXramAHipC6IxkJomkTbt273c+Bgy5W5uHRVDTno20be8wYePT/zxuJee8sefpe3lcvOE0sbjSD93T1xtXCkFX+NrEQRBEK45phjys7gglf/myaCNscQYG4zrjXHBGGuM219ab1ouEjJBEP4BmdyRaQMVLNu4iTrrWHzMwyaknt7LluMpjJj+J75fMIc4DxvTdR9X7wBeefevOBtK2COtd7BRMfnup1i2ai3r163mr2+8wshAZ+PVJDra2mhtqKdW04mu+7AUlJbS0dFKc2szOgsnlGI8hN+tqzLzUDn7M+uhx5h9x3T8XNXmpb+ChRW9Bo/l8b/8iYlDo0XzrSAIgiAIgvC/J7PAwd4eKysFI6ZNY9NHn3Dd7VOxtFSgtnMwPRSWWrLSElj9wwqqHSzo6pTh4OhCSGRv+vWMojj1DN5xw+nMOsqWbdvZuPxrth8txcvXBScHFWe2b2L1jl10dbShMF8o2rN0CVs2b+ZUYiqhw0ZiK9oUfrd+8+6LgiAIgiAIgnBN0XeQkpKLp58vrs5WHN10gr5TxyJrbaCkqIDAHtFU5KaRlltGcFQfNJUZeEQOpa4gEdeQOBwM9WQXluPi4Y+DopPT8WdpwZFRIwejtpbRUl8lHT8Va1cvtB16oiOCmfP8DALv/AL3hmx8evQlIshD3Ov6OyaSMkEQBEEQBEH4nVny6bME3vwOI4N+mlpK+P0SSZkgCIIgCIIg/M6UFmRi4xGGs41oH7sWiKRMEARBEARBEAThChJJmXDVunjmAF9//RWFtVrM97MSNfo2Pnzyju5f/g27Vs1h0YaDtGn0yJDj7teDR599jn5BLuYtoCxxE+uSXHn0zqFYKcRVJ0EQBEEQBOG3IZIy4aoVf2A9h5NyuOHm+/B3VJiWWVopsbP99/tOr5zzPHVeo7npuv6opIQr7dhq5h1tZ+EnT3Np9FhdVwcdWgtUNlY/DpUtCIIgCIIgCP9rojlAuKrJ5ZZYWSuxtrY2PZRKawrOrOe+F75EZ4Dc0zuZv3QVF1JTeOPp+5k8YSI3334/xzKrzEf4iZXSBltbtfSwxcPLj8aqWvYd2cL9d0zgrvufZNX3b/DmF/vQ1F7gptHTeOa+25kyfTpPvf4OLzx6O+MmzuJQYh5abTPfv/Ug48ZNZNY9j7DlyAUqUvfy+ht/4aabZ/L52uPojDPNCoIgCIIgCMKvIJIy4ap2Ytc6HrpzOtOmTTM9FhzOxSl0MAHtF0itaOBicT0ODk4kbFmCdfRkvvjmW954fAJz3/6Etr/Ji07sXMsXn33Mxx9/zKdzl3PTrOnYNrUQGjGED+d8yrDYsB//IEoLG3jsi2W88ZdZ2HSUce9bP/DstChSistI3vw168rCWLDwWx6+bTyJe9eSWdNJF5688tePeerWYcjF5LKCIAiCIAjCrySSMuGqNmLKLJZt2MXevXtNj0fHhGGrsmdI/0i2r99KS0cX7v5BVFeUkn1qNwvnfc/Kzcex6tLQ1GU+iJlPSA/6DRjAgKHDeeGjb7nnhlhpqQNO9l7Yq38+1bg8PIoAe0ssLZ3w8vDFzdEGO6UN7XoD2cnZNFVk8v1337Nl535qpedpaGnH3dkPlbWd+QiCIAiCIAiC8OuIpEy4qjU31pGfl01Wdlb3o6gCS2sVAT0Hknl8L016S3qEBxEcHE7ssOt56LE/MXPqKIaNH4OzlfkgZiFRfRk9ehzjrhtBoKeTeanRL7RqWSl+vNfsbwXExBAa1YfZDz7CrNumM6RfHKHuxmRMtI4JgiAIgiAI/z6RlAlXLXsndxS6Dk4d2s3OnTu7H/EXpNxHjrOLJ1FhbihcQ3C3tWLU1OnYaRs4cnAvZ5Lz8YkM5vKczMMvFC8XB37eq1CGo6sr3n5eGNvJlI7ehAS4YKFQE9crzLSF2sEJX/9AFNJ+Dp5+BLg6EjVuBiN9Ojl+6CCJF3OkbTxwcXHDz9cTW5vuAUkEQRAEQRAE4dcSoy8KV622lkbKSkto7dCal0jUzkT5OXB0xy6Sc4q4ftajxPioTavaGmsoLClH6eBJgK/bz644NNSUo7eyx9HO9rLEzEBrUzMdGi1Ors5oW+uobbXE01lBbkk9oYHetLe20NrWJiVv7nQ2VNNqocLVXoWus4XC/GIsVI74+nhhoW2hvkWLnb09Squfd4UUBEEQBEEQhH/miiRlqUc3sXL7cTp0Btz9o7jx5pvo4ffTfFH/SlNxAocybLlxXKR5ifBH0t5aw7bVG3HrOYxh/aIQU4oJgiAIgiAIv2e/eXU2/9BinvwugXv/8hzPPv0EES4GNqxfQ0mTxrzFv1aRup8D52rNvwl/NEqVE5NmzmJo3x4iIRMEQRAEQRB+937jljIdL90+kH6vHGR6jL1pSUttBYWlNbgHBJN7dDUffbeexuYWek57lDdnj+Dgpm/YlNRCTWoSnnE38PafJknL72F/qYrX3ptLL/scPp4zj/oOJRPufJDZMybw6aPTuPWLLcSoOzm16xviGwcR5pjP9rVrqJOF8frbL9AzyFsMyyAIgiAIgiAIwhX3G7czNFGWpiLMrzshM1K7eBLdKwbr2gSWHS7jvW+XcODoISJK17BgZyaNjVoiY8ezbc9W/JubyG+w4umnpkkJ2AdMG+TI7q27ePbrjezY8DX1F8+QeDEDrV7Pj1NUGQzG/6G2jqiBU/j2+8/oJRIyQRAEQRAEQRCuEr9xUqbCO9xAWXWr+XfQtLdQWVFBUVYBLs4h2NuopKVyho7sRWF2MY52rgR4hWJpqcROaYlcesWXEi6NppXGCidCpCTP2sGXAEfo0LSjM2Zh5o30On33D7ji5uSBWiUGYRAEQRAEQRAE4erxGydl1ky8aTKbl67gYnYB5WXFnNizlTXrttJk44S2vZjcAml5cT4nE0oIDvFCJrNALvt5ImVpKae5qRKtwQpn7w6SL2SRn5VCWbMMldIWJzsr0jPyKC8pIifn0r1nxrYx0T4mCIIgCIIgCMLVRf6mpLOzE6VSaV70v+UbHEFlxlkKyqopLsilrKaV8F79GDRwAPrGMnLyCyguKqTewo2bJ42gq7kOa5cQgn3VFGbl4xvdAy8nJefOXSAwvBf+ntYkp6RTVlSCbUAEQ+Ji8XaQcyYxi+aGBjq7FLj6h+Npa8DKzo6gkMB/OCmwIAiCIAiCIAjCb+3KzFOm6yQ/N4/6Vg3u3r54ubsgl4G+q4PC/HwaO2SEhIdiq9DTWFeHwcoJZwcrKorKsHVzQW1tQU5qGtZuIVKCZmlqEWvRyPH198XeVkou9Rrys7NoNajw9XSkQ6tAiQadzAInF6fffshJQRAEQRAEQRCEf0BMHi0IgiAIgiAIgnAFiUYjQRAEQRAEQRCEK0gkZYIgCIIgCIIgCFeQSMoEQRAEQRAEQRCuIJGUCYIgCIIgCIIgXEEiKRMEQRAEQRAEQbiCRFImCIIgCIIgCIJwBYmkTBAEQRAEQRAE4QoSSZkgCIIgCIIgCMIVJJIyQRAEQRAEQRCEK0gkZYIgCIIgCIIgCFeQSMoEQRAEQRAEQRCuIJGUCYIgCIIgCIIgXDHwf5mQzb+HlWPeAAAAAElFTkSuQmCC;" vertex="1" parent="1">
          <mxGeometry x="-40" y="-260" width="379" height="156.57" as="geometry" />
        </mxCell>
      </root>
    </mxGraphModel>
  </diagram>
</mxfile>
